<?xml version="1.0" encoding="UTF-8"?>
<svg id="Layer_2" data-name="Layer 2" xmlns="http://www.w3.org/2000/svg" viewBox="0 0 302.51 272.62">
  <defs>
    <style>
      .cls-1 {
        fill: #f36e61;
      }

      .cls-2 {
        fill: #febe10;
      }

      .cls-3 {
        fill: #fdc264;
      }

      .cls-4 {
        fill: #42a240;
      }

      .cls-5 {
        fill: #71b970;
      }

      .cls-6 {
        fill: #e6e6e6;
      }

      .cls-7 {
        fill: #ef3e2d;
      }

      .cls-8 {
        fill: #fece4c;
      }
    </style>
  </defs>
  <g id="Layer_1-2" data-name="Layer 1">
    <g>
      <path class="cls-3" d="m.19,239.5c.12-.17.27-.22.47-.16.01,1.07.03,2.14.04,3.21-.18,0-.35-.04-.51-.1v-2.95Z"/>
      <path class="cls-5" d="m24.41,19.73c7.61-1.33,15.2-2.72,22.82-3.98,17.51-2.89,35.03-5.69,52.55-8.55,14.8-2.42,39.62-6.46,42.07-6.95s4.29-.36,6.87,1.12,53.87,30.94,81.54,46.83c1.27.73,2.52,1.49,3.77,2.24-.43.65-1.12.73-1.8.83-33.31,5.3-66.6,10.79-99.88,16.29-7.37,1.22-14.74,2.5-22.1,3.77-2.48.43-4.57.01-6.7-1.33-24.04-15.17-48.15-30.21-72.1-45.51-2.39-1.52-5.05-2.65-7.04-4.76Z"/>
      <path class="cls-4" d="m24.41,19.73c4.27,1.38,7.67,4.28,11.38,6.61,16.31,10.2,32.5,20.59,48.76,30.86,6.89,4.35,13.85,8.57,20.75,12.9,1.06.66,1.97.85,3.26.63,18.71-3.18,37.44-6.31,56.17-9.38,15.06-2.47,30.14-4.85,45.22-7.29,6.38-1.03,12.76-2.03,19.11-3.19,1.67-.3,3.32-.26,4.97-.42,2.6.78,3.93,2.52,3.67,5.23-.26,2.76-2.05,4.04-4.68,4.4-.87.12-1.71.38-2.57.58-1.29,1.06-2.88,1.19-4.43,1.44-36.5,5.88-72.99,11.78-109.49,17.67-6.65,1.07-6.86,1.34-6.86,8.09,0,6.98-.01,13.96,0,20.95,0,3.97.18,4.12,3.97,3.52,26.42-4.13,52.82-8.39,79.23-12.59,12.53-1.99,25.05-3.97,37.56-6.1,5.01-.45,7.82,1.55,7.85,5.56.02,2.95-1.59,4.93-4.93,5.7-3.35.77-6.78,1.14-10.17,1.69-28.02,4.57-56.06,8.97-84.07,13.58-2.59.43-5.2,1.16-7.88.57-6.1.92-12.22,1.77-18.31,2.78-3.23.54-6.13.2-9-1.58-22.38-13.81-44.47-28.07-66.63-42.23-1.24-.79-2.51-1.53-3.76-2.3-4.09-2.68-8.12-5.46-12.3-8.01-3.45-2.11-5.05-5.18-5.03-9.04.04-9.7.08-19.41.43-29.1.19-5.26,2.86-9.25,7.76-11.53Z"/>
      <path class="cls-6" d="m295.69,115.17c-19.28,3.38-38.63,6.27-57.94,9.43-27.95,4.57-55.92,9.03-83.88,13.5-.97.16-1.94.3-2.91.51-3.48.76-4.84,2.25-5.18,5.81-.18,1.86-.07,3.74-.07,5.6,0,8.75-.02,17.51,0,26.26.01,4.79.5,5.21,5.1,4.46,32.03-5.22,64.09-10.24,96.11-15.5,16.2-2.66,32.42-5.26,48.64-7.84.1,0,.19,0,.28,0-1.77-6.49-2.78-13.1-3.53-19.81-.88-7.88.66-15.21,3.41-22.42-.01,0-.02,0-.03,0Z"/>
      <path class="cls-6" d="m230.4,93.63c-3.16-8.84-4.76-17.79-1.76-27.08.29-.91.33-1.94,1.24-2.54h0c-.21-1.19.38-2.24.59-3.36-1.29,1.06-2.88,1.19-4.43,1.44-36.5,5.88-72.99,11.78-109.49,17.67-6.65,1.07-6.86,1.34-6.86,8.09,0,6.98-.01,13.96,0,20.95,0,3.97.18,4.12,3.97,3.52,26.42-4.13,52.82-8.39,79.23-12.59,12.51-1.99,25.02-3.96,37.51-6.1Z"/>
      <path class="cls-1" d="m296.67,103.12c-22.26-13.04-44.52-26.08-66.78-39.11-.92.6-.95,1.63-1.24,2.54-3,9.29-1.4,18.24,1.76,27.08.02,0,.03,0,.05,0,5.01-.45,7.82,1.55,7.85,5.56.02,2.95-1.59,4.93-4.93,5.7-3.35.77-6.78,1.14-10.17,1.69-28.02,4.57-56.06,8.97-84.07,13.58-2.21.36-4.42.94-6.69.74,3.14,1.7,6.12,3.66,9.1,5.6,2.11,1.38,4.2,1.8,6.69,1.37,19.86-3.42,39.77-6.56,59.65-9.85,28.42-4.7,56.86-9.21,85.27-13.94.85-.14,2.77-.5,4.62-.2-.36-.27-.73-.53-1.11-.76Z"/>
      <path class="cls-7" d="m295.56,157.4c-16.22,2.59-32.43,5.18-48.64,7.84-32.02,5.25-64.08,10.28-96.11,15.5-4.6.75-5.09.33-5.1-4.46-.02-8.75,0-17.51,0-26.26,0-1.87-.1-3.74.07-5.6.34-3.56,1.7-5.05,5.18-5.81.96-.21,1.93-.35,2.91-.51,27.97-4.47,55.93-8.93,83.88-13.5,19.31-3.16,38.66-6.05,57.94-9.43,3.1-.19,7.34-1.71,6.38-7.16s-7.17-4.21-8.91-3.92c-28.41,4.73-56.86,9.24-85.27,13.94-19.88,3.29-39.79,6.43-59.65,9.85-2.49.43-4.58,0-6.69-1.37-2.98-1.95-5.96-3.91-9.1-5.6-.4-.03-.79-.08-1.2-.17-6.1.92-12.22,1.77-18.31,2.78-3.23.54-6.13.2-9-1.58-22.38-13.81-44.47-28.07-66.63-42.23-1.24-.79-2.51-1.53-3.76-2.3,0,0,0,0,0,0-.08.48-.23.97-.23,1.45-.03,12.2-.14,24.39,0,36.59.05,3.94,2.06,7.04,5.5,9.22,7.31,4.61,14.56,9.33,21.83,14,.44,1.47,1.74,2.06,2.89,2.79,17.15,10.91,34.23,21.92,51.35,32.89,8.43,5.4,16.85,10.84,25.32,16.18,2.15,1.36,4.44,1.95,6.98,1.91,4.64-.07,96.89-15.96,122.33-20.02,8.79-1.45,17.57-2.96,26.38-4.3,2.72-.42,5.1-1.14,6.62-3.61v-2.95c-1.45-3.58-2.73-4.35-6.95-4.15Z"/>
      <path class="cls-2" d="m180.63,187.25c-.3.08-.61.15-.91.23-6.44,4.62-12.96,9.13-19.41,13.72-1.46,1.04-2.95,1.39-4.72,1.07-4.45-.81-8.9-1.64-13.36-2.43-44.37-7.88-88.71-15.89-133.07-23.83-1.69-.3-3.3-.39-4.91.24-1.87.32-3.65,1.95-4.07,3.03s0,2.36,0,3.54c.97,3.5,3.91,3.92,6.83,4.39,1.16.22,2.3.53,3.46.74,31.56,5.72,63.15,11.27,94.71,16.96,15.1,2.73,30.21,5.45,45.32,8.11,4.3.76,5.87,2.54,6.38,6.85.09.78.09,1.57.09,2.36,0,11.51,0,23.03,0,34.54,0,.59,0,1.18-.05,1.77-.27,2.62-1.06,3.29-3.62,3.05-.88-.08-1.74-.3-2.62-.46-14.33-2.58-28.67-5.13-43-7.71-33.6-6.04-67.22-11.99-100.81-18.08-4.2-.13-5.68.85-6.41,4.26.09.99-.21,2.01.21,2.98.7,2.37,2.66,2.99,4.74,3.36,49.19,8.82,98.38,17.63,147.56,26.45,3.23.58,6.23.21,8.98-1.75,33.97-24.31,67.94-48.62,101.93-72.89,3.78-2.7,5.38-6.43,5.52-10.85.15-4.81.06-9.64.07-14.46-16,2.56-58.44,9.79-88.88,14.83Z"/>
      <path class="cls-8" d="m8.53,175.91c.21.03.42.06.63.1,44.36,7.94,88.7,15.95,133.07,23.83,4.44.79,8.88,1.62,13.32,2.42,1.66.3,3.37-.08,4.74-1.05,0,0,0,0,0,0,0,0,0,0,0,0,6.45-4.6,12.97-9.11,19.41-13.72.27-.06.53-.13.8-.2,0,0,.01,0,.02-.01-12.63,2.09-23.19,3.8-28.91,4.63-2.06.33-3.65.54-4.44.55-2.54.04-4.83-.55-6.98-1.91-8.47-5.34-16.88-10.78-25.32-16.18-17.11-10.97-34.2-21.98-51.35-32.89-1.15-.73-2.45-1.32-2.89-2.79-1.78,2.17-4.35,3.28-6.61,4.77-16.58,10.96-33.18,21.87-49.78,32.8,1.41-.54,2.82-.55,4.28-.34Z"/>
      <path class="cls-6" d="m10.33,220.04c-1.1,5.11-2.38,10.17-3.5,15.27.02,0,.05,0,.07,0,33.59,6.1,67.21,12.05,100.81,18.08,14.33,2.58,28.67,5.13,43,7.71.87.16,1.73.38,2.62.46,2.56.24,3.35-.43,3.62-3.05.06-.59.05-1.18.05-1.77,0-11.51,0-23.03,0-34.54,0-.79,0-1.58-.09-2.36-.52-4.31-2.08-6.09-6.38-6.85-15.12-2.66-30.22-5.38-45.32-8.11-31.56-5.7-63.15-11.24-94.71-16.96-1.16-.21-2.3-.52-3.46-.74l-.14-.02c.71,2.48,1.5,4.94,2.05,7.45,1.83,8.38,3.27,16.75,1.41,25.41Z"/>
    </g>
  </g>
</svg>