<?xml version="1.0" encoding="UTF-8"?>
<svg id="Layer_2" data-name="Layer 2" xmlns="http://www.w3.org/2000/svg" viewBox="0 0 233.08 231.89">
  <defs>
    <style>
      .cls-1 {
        fill: #008fca;
      }

      .cls-2 {
        fill: #febe10;
      }

      .cls-3 {
        fill: #cfbd6b;
      }

      .cls-4 {
        fill: #98bb80;
      }

      .cls-5 {
        fill: #afbb78;
      }

      .cls-6 {
        fill: #98d4c3;
      }

      .cls-7 {
        fill: #80b98a;
      }

      .cls-8 {
        fill: #a2d8c9;
      }

      .cls-9 {
        fill: #e6e6e6;
      }

      .cls-10 {
        fill: #6dc1a9;
      }

      .cls-11 {
        fill: #ddbf67;
      }

      .cls-12 {
        fill: #a3bb7c;
      }

      .cls-13 {
        fill: #bee4d9;
      }

      .cls-14 {
        fill: #a9b976;
      }

      .cls-15 {
        fill: #ef3e2d;
      }

      .cls-16 {
        fill: #92b97f;
      }

      .cls-17 {
        fill: #40abd7;
      }

      .cls-18 {
        fill: #9ebb7e;
      }

      .cls-19 {
        fill: #75b88d;
      }
    </style>
  </defs>
  <g id="Layer_1-2" data-name="Layer 1">
    <g>
      <path class="cls-2" d="m184.25,80.2c.19,3.59.39,7.18.58,10.77.26,1.69.25,3.38,0,5.07-.43,6.31-8.61,10.68-14.9,6.68-.75-.49-1.51-.91-2.12-1.62-4.94-5.75-9.85-11.53-14.9-17.18-4.15-4.64-8.4-9.2-12.32-14.04-.32-.39-.79-.67-1.18-1-1.27.31-.62,1.33-.63,1.98-.05,8.2-.03,16.4-.04,24.59,0,.82.13,1.65-.13,2.46-.92,4.41-3.97,6.79-8.17,6.36-4.12-.41-6.87-3.44-6.91-7.81-.04-4.22.07-8.44.11-12.66.44-3.79-.14-7.61.3-11.4.05-3.75.1-7.5.15-11.25.35-3.13.06-6.27.16-9.4.03-.82-.14-1.65.15-2.45.03-2.63.02-5.27.11-7.9.13-4.13,1.98-6.57,5.72-7.69,3.23-.96,5.88.26,8.3,3.48,4.22,5.64,8.31,11.37,12.43,17.07,3.77,5.22,7.66,10.34,11.39,15.59,1.38,1.94,2.92,3.78,4.32,5.73,1.25-.33.63-1.35.63-2.02.05-10.58.03-21.16.04-31.74,0-.82-.13-1.65.13-2.46.59-3.12,3.19-5.58,6.18-5.86,3.31-.31,5.65,1.21,7.09,4.4.6,1.33.84,2.66.9,4.1.3,7.86,1.05,15.69,1.44,23.54.17,3.33.19,6.72.85,10.03.47,1.51-.12,3.1.33,4.61Z"/>
      <path class="cls-2" d="m106.34,33.43c3.74.51,5.8,2.08,6.33,4.81.69,3.51-.95,5.9-4.87,7.11-1.34.36-2.7.15-4.05.15-9.36.02-18.71,0-28.07.02-.81,0-1.66-.23-2.43.23-.66,5.25-1.56,10.48-1.76,15.79.76.51,1.61.25,2.41.26,10.45.02,20.91,0,31.36.02.82,0,1.66-.17,2.45.18,2.65.72,4.72,2.03,5.04,5.05.41,3.99-2.31,6.69-6.93,6.71-8.08.05-16.16.01-24.23.02-3.25,0-6.49.05-9.74-.02-1.28-.03-2,.3-2.06,1.68-.16,3.99-1.14,7.86-1.78,11.78-.28,1.71.27,2.03,1.83,2.02,11.25-.05,22.5-.02,33.75-.03,1.45,0,2.86.09,4.21.66,3.56,1.52,5.18,3.93,4.98,7.48-.19,3.48-2.23,5.65-6.43,6.84-.49.28-1.03.19-1.55.19-14.55,0-29.09,0-43.64,0-.52,0-1.06.09-1.55-.19-5.66-1.36-8.18-4.67-7.63-10.42.71-7.42,1.58-14.82,2.39-22.22.69-6.27,1.24-12.56,2.13-18.8.58-4.08,1.13-8.17,1.81-12.23.67-3.98,3.7-6.33,8.57-7.06.58-.26,1.19-.16,1.78-.16,11.96,0,23.91,0,35.87,0,.6,0,1.21-.09,1.79.14Z"/>
      <path class="cls-5" d="m59.63,104.18c15.58,0,31.16,0,46.74,0-.89.56-1.9.41-2.87.41-13.67,0-27.33,0-41,0-.97,0-1.97.14-2.87-.42Z"/>
      <path class="cls-19" d="m106.34,33.43c-13.15,0-26.29.01-39.44.02.84-.44,1.75-.39,2.65-.39,11.38,0,22.75,0,34.13,0,.9,0,1.82-.07,2.66.37Z"/>
      <path class="cls-7" d="m167.46,39.39c.03,11.81.06,23.61.06,35.42,0,.37.5,1.72-.87.8.61-.96.43-2.04.43-3.08.01-10.01,0-20.02.01-30.03,0-1.05-.14-2.12.36-3.11Z"/>
      <path class="cls-4" d="m107.72,62c-11.45.01-22.9.03-34.35.03-.65,0-1.38.16-1.88-.49,10.97.01,21.94.02,32.91.05,1.12,0,2.26-.16,3.32.41Z"/>
      <path class="cls-11" d="m73.25,45.75c.59-.42,1.26-.46,1.95-.46,10.87.02,21.73.03,32.6.05-.97.6-2.05.38-3.09.38-10.49.02-20.97.02-31.46.03Z"/>
      <path class="cls-3" d="m138.62,97.92c-.03-9.24-.06-18.49-.05-27.73,0-.49-.42-1.53.85-1.31-.72.76-.42,1.71-.42,2.57-.03,7.87-.01,15.74-.02,23.61,0,.96.16,1.96-.36,2.86Z"/>
      <path class="cls-12" d="m124.4,49.32c.12,3.95.27,7.91-.31,11.85-.13-3.95-.31-7.91.31-11.85Z"/>
      <path class="cls-18" d="m123.95,72.42c.12,3.81.27,7.61-.3,11.4-.13-3.81-.33-7.61.3-11.4Z"/>
      <path class="cls-6" d="m14.83,48.94c-.08-1.03-.27-2.1.79-2.81.12,1.04.28,2.1-.79,2.81Z"/>
      <path class="cls-13" d="m3.05,165.8c-.13-1.05-.28-2.1.79-2.82.07,1.03.28,2.1-.79,2.82Z"/>
      <path class="cls-16" d="m184.25,80.2c-.61-1.5-.44-3.06-.33-4.61.1.02.21.05.31.06,0,1.52.01,3.03.02,4.55Z"/>
      <path class="cls-8" d="m8.95,107.37c-.1-.9-.26-1.83.75-2.39.15.92.22,1.82-.75,2.39Z"/>
      <path class="cls-14" d="m184.84,96.04c0-1.69,0-3.38,0-5.07.51,1.69.73,3.38,0,5.07Z"/>
      <path class="cls-10" d="m229.35,206.86c-3.32.02-6.64.07-9.97.07-48.72,0-97.43,0-146.15,0-1.36,0-2.72-.05-4.08-.07-.11-.16-.09-.3.06-.42,1.13.02,2.27.05,3.4.05,48.8,0,97.6,0,146.41,0,1.28,0,2.57-.04,3.85-.07,2.14.35,4.36-.34,6.48.45Z"/>
      <path class="cls-2" d="m184.25,80.2c.19,3.59.39,7.18.58,10.77.26,1.69.25,3.38,0,5.07-.43,6.31-8.61,10.68-14.9,6.68-.75-.49-1.51-.91-2.12-1.62-4.94-5.75-9.85-11.53-14.9-17.18-4.15-4.64-8.4-9.2-12.32-14.04-.32-.39-.79-.67-1.18-1-1.27.31-.62,1.33-.63,1.98-.05,8.2-.03,16.4-.04,24.59,0,.82.13,1.65-.13,2.46-.92,4.41-3.97,6.79-8.17,6.36-4.12-.41-6.87-3.44-6.91-7.81-.04-4.22.07-8.44.11-12.66.44-3.79-.14-7.61.3-11.4.05-3.75.1-7.5.15-11.25.35-3.13.06-6.27.16-9.4.03-.82-.14-1.65.15-2.45.03-2.63.02-5.27.11-7.9.13-4.13,1.98-6.57,5.72-7.69,3.23-.96,5.88.26,8.3,3.48,4.22,5.64,8.31,11.37,12.43,17.07,3.77,5.22,7.66,10.34,11.39,15.59,1.38,1.94,2.92,3.78,4.32,5.73,1.25-.33.63-1.35.63-2.02.05-10.58.03-21.16.04-31.74,0-.82-.13-1.65.13-2.46.59-3.12,3.19-5.58,6.18-5.86,3.31-.31,5.65,1.21,7.09,4.4.6,1.33.84,2.66.9,4.1.3,7.86,1.05,15.69,1.44,23.54.17,3.33.19,6.72.85,10.03.47,1.51-.12,3.1.33,4.61Z"/>
      <path class="cls-15" d="m67.35,190.63c1.24,5.34,1.61,13.36,1.5,16.17-.11,2.8-.46,12.12-7.76,24.07-.7,1.14-1.07.54-1.64,0-14.23-13.82-8.34-11.28-22.35,1.03-7.68-11.72-10.04-25.9-7.31-39.38.91-4.5,32.1-2.18,37.56-1.88Z"/>
      <path class="cls-1" d="m229.35,206.86c-.89-.29-1.8-.14-2.7-.14-52.1,0-104.19,0-156.29,0-.5.03-1.01-.05-1.51.03,0,.02,0,.04,0,.05-.06,1.47-.19,4.76-1.36,9.28,1-.02,1.99-.04,2.99-.04,51.51,0,103.03,0,154.54,0,1.06,0,2.12.02,3.17-.03,2.46-.12,4.28-1.65,4.62-3.85.4-2.53-.82-4.39-3.46-5.27Z"/>
      <path class="cls-1" d="m232.86,161.52c-.3-6.32-1.37-12.57-1.69-18.9-.25-5.11-.85-10.22-1.57-15.28-1.02-7.16-1.79-14.35-2.39-21.55-.66-7.88-1.44-15.75-2.16-23.62-.74-8.1-2.07-16.13-2.77-24.21-1.28-15.01-2.88-29.98-4.17-44.99-.68-7.88-3.68-11.23-11.14-12.98h-9.07c.24,8.43-.35,16.84-.99,25.23-.97,12.88-3.78,25.42-7.45,37.77-1.31,4.39-2.86,8.7-5.24,12.65-.09.07-.16.16-.25.23.32,1.42-.16,2.9.26,4.32.19,3.59.39,7.18.58,10.77.26,1.69.25,3.38,0,5.07-.43,6.31-8.61,10.68-14.9,6.68h0c-.76.19-1.36.62-1.82,1.26-3.61,5.04-7.94,9.42-12.45,13.66-4.8,4.5-10,8.47-15.47,12.08-8.28,5.46-17.2,9.66-26.48,13.16-16.75,6.31-34.18,9.27-51.93,10.57-8.65.63-17.33.69-26.01.51-4.94-.1-9.79.48-14.52,1.9-6.83,2.05-13.42,6.13-15.63,8.54s-3.88,4.43-4.41,6.76c-.83,3.68-.7,7.85-.98,11.6-.54,7.25-.44,14.37,3.49,21.03,3.8,6.45,11.3,13.38,15.94,13.58s7.4.43,10.97.23c-.88-3.46-1.7-8.56-1.87-12.12-3.27-.08-4.14-.02-6.22-.09-1.28-.05-2.62.02-3.6-.96-3.85-3.83-6.92-8.08-7.14-13.8-.07-1.42-.08-2.84,0-4.25.39-5.01,2.93-8.82,6.63-9.93,6.43-.9,12.89-1.06,19.38-.99,8.82.09,181.99.52,183.79.29.43-.02.86-.04,1.29-.04,4.7-.15,8.33-2.6,9.72-6.77.8-2.4.37-4.92.25-7.4Z"/>
      <path class="cls-17" d="m5.63,164.39c1.6-1.74,5.5-4.36,10.12-6.45,1.75-.82,3.59-1.51,5.52-2.09,4.73-1.42,9.58-2,14.52-1.9,8.68.18,17.36.12,26.01-.51,17.74-1.3,35.18-4.27,51.93-10.57,9.28-3.49,18.2-7.69,26.48-13.16,5.47-3.61,10.67-7.58,15.47-12.08,4.51-4.24,8.84-8.62,12.45-13.66.46-.64,1.06-1.06,1.82-1.26h0c-.75-.49-1.51-.91-2.12-1.62-4.94-5.75-9.85-11.53-14.9-17.18-4.15-4.64-8.4-9.2-12.32-14.04-.32-.39-.79-.67-1.18-1-1.27.31-.62,1.33-.63,1.98-.05,8.2-.03,16.4-.04,24.59,0,.82.13,1.65-.13,2.46-.92,4.41-3.97,6.79-8.17,6.36-4.12-.41-6.87-3.44-6.91-7.81-.04-4.22.07-8.44.11-12.66.44-3.79-.14-7.61.3-11.4.05-3.75.1-7.5.15-11.25.35-3.13.06-6.27.16-9.4.03-.82-.14-1.65.15-2.45.03-2.64.02-5.27.11-7.9.13-4.13,1.98-6.57,5.72-7.69,3.23-.96,5.88.26,8.3,3.48,4.22,5.64,8.31,11.37,12.43,17.07,3.77,5.22,7.66,10.34,11.39,15.59,1.38,1.94,2.92,3.78,4.32,5.73,1.25-.33.63-1.35.63-2.02.05-10.58.03-21.16.04-31.74,0-.82-.13-1.65.13-2.46.59-3.12,3.19-5.58,6.18-5.86,3.31-.31,5.65,1.21,7.09,4.4.6,1.33.84,2.66.9,4.1.3,7.86,1.05,15.69,1.44,23.54.17,3.33.19,6.72.85,10.03.03.1.05.2.07.3.08-.08.15-.16.25-.23,2.38-3.96,3.94-8.26,5.24-12.65,3.67-12.35,6.48-24.89,7.45-37.77.63-8.4,1.23-16.8.99-25.23H35.62c-2.61.51-5.39.27-7.82,1.59-6.66,3.62-10.29,9.28-10.94,16.79-.79,9.2-1.62,18.4-2.48,27.6.32,1.16-.66,2.05-.62,3.15-.32,2.38-.46,4.79-.75,7.18-1.32,10.83-1.84,21.73-3.02,32.57-.57,5.23-.78,10.5-1.61,15.7-.11,1-.43,1.96-.52,2.95-1.27,9.63-1.75,19.34-2.8,29-.94,8.68-3.07,28.22-3.06,29.35-.02,1.08-.32,3.49-.34,3.95.76-1.8,2.18-3.5,3.97-5.44Zm46.37-70.63c.71-7.42,1.58-14.82,2.39-22.22.69-6.27,1.24-12.56,2.13-18.8.58-4.08,1.13-8.17,1.81-12.23.67-3.98,3.7-6.33,8.57-7.06.58-.26,1.19-.16,1.78-.16,11.96,0,23.91,0,35.87,0,.6,0,1.21-.09,1.79.14,3.74.51,5.8,2.08,6.33,4.81.69,3.51-.95,5.9-4.87,7.11-1.34.36-2.7.15-4.05.15-9.36.02-18.71,0-28.07.02-.81,0-1.66-.23-2.43.23-.66,5.25-1.56,10.48-1.76,15.79.76.51,1.61.25,2.41.26,10.45.02,20.91,0,31.36.02.82,0,1.66-.17,2.45.18,2.65.72,4.72,2.03,5.04,5.05.41,3.99-2.31,6.69-6.93,6.71-8.08.05-16.16.01-24.23.02-3.25,0-6.49.05-9.74-.02-1.28-.03-2,.3-2.06,1.68-.16,3.99-1.14,7.86-1.78,11.78-.28,1.71.27,2.03,1.83,2.02,11.25-.05,22.5-.02,33.75-.03,1.45,0,2.86.09,4.21.66,3.56,1.52,5.18,3.93,4.98,7.48-.19,3.48-2.23,5.65-6.43,6.84-.49.28-1.03.19-1.55.19-14.55,0-29.09,0-43.64,0-.52,0-1.06.09-1.55-.19-5.66-1.36-8.18-4.67-7.63-10.42Z"/>
      <path class="cls-9" d="m221.59,175.73c-1.81.23-3.62.18-5.43.18-6.08,0-12.15-.05-18.2-.11-5.69,0-12.19,0-19.23-.01-.12,0-.23,0-.35,0-2.87,0-5.84,0-8.87-.01-.72,0-1.44,0-2.16,0-.27,0-.55,0-.82,0-.23,0-.45,0-.68,0-.66,0-1.32,0-1.99,0-.14,0-.27,0-.41,0-.42,0-.85,0-1.28,0-.75,0-1.49,0-2.25,0-.46,0-.92,0-1.38,0-2.24,0-4.51,0-6.79-.01-2.19,0-4.41,0-6.63-.01-.23,0-.47,0-.7,0-.66,0-1.32,0-1.99,0-.19,0-.39,0-.58,0-1.34,0-2.68,0-4.02,0-5.14,0-10.31-.02-15.45-.03-1.58,0-3.17,0-4.74-.01-4.59-.01-9.14-.02-13.61-.03-.56,0-1.11,0-1.66,0-.89,0-1.77,0-2.65,0-.29,0-.58,0-.87,0-.03,0-.06,0-.09,0-.68,0-1.36,0-2.04,0-4.54-.01-8.96-.02-13.21-.03-.65,0-1.3,0-1.94,0-1.41,0-2.79,0-4.15-.01-.28,0-.56,0-.83,0-10.38-.03-19.39-.06-26.15-.08-.05,0-.1,0-.16,0-.73,0-1.44,0-2.12,0-.06,0-.12,0-.19,0-.35,0-.7,0-1.04,0-.02,0-.04,0-.06,0-2.73-.01-4.93-.02-6.51-.03,0,0-.02,0-.02,0-.02,0-.04,0-.06,0-.27,0-.52,0-.76,0-.04,0-.08,0-.11,0-.19,0-.37,0-.53,0-.06,0-.12,0-.18,0-.17,0-.32,0-.46,0-.03,0-.05,0-.08,0-.15,0-.28,0-.38,0-6.49-.07-12.95.09-19.38.99-3.7,1.11-6.24,4.92-6.63,9.93-.08,1.42-.07,2.84,0,4.25.22,5.72,3.29,9.97,7.14,13.8.98.97,2.32.91,3.6.96.26,0,.52.01.78.01.1,0,.2,0,.3,0,.34,0,.69-.01,1.03-.02.08,0,.16,0,.24,0,.1,0,.19,0,.29,0,.17,0,.33,0,.5,0,.08,0,.15,0,.23,0,.19,0,.37.01.56.02.09,0,.18.02.28.03,0,0,.01,0,.02,0,.56,0,1.21.02,2,.04,0,.07.01.15.01.23-.19-4.4.13-8.83,1.01-13.19.91-4.5,32.1-2.18,37.56-1.88,1.21,5.22,1.6,13.01,1.51,15.97.04.05.09.09.14.13.45-.05.91.01,1.37-.02,50.74,0,101.47,0,152.21,0,.11-.09.21-.18.31-.31,0-10.24,0-20.48-.01-30.72-.43,0-.85.02-1.27.04Z"/>
    </g>
  </g>
</svg>