<?xml version="1.0" encoding="utf-8"?>
<!-- Generator: Adobe Illustrator 27.1.1, SVG Export Plug-In . SVG Version: 6.00 Build 0)  -->
<svg version="1.1" id="Layer_1" xmlns="http://www.w3.org/2000/svg" xmlns:xlink="http://www.w3.org/1999/xlink" x="0px" y="0px"
	 viewBox="0 0 500 363.8" style="enable-background:new 0 0 500 363.8;" xml:space="preserve">
<style type="text/css">
	.st0{fill:#4D4D4D;}
	.st1{fill:#FFFFFF;}
	.st2{fill:#662D91;}
	.st3{fill:#008FCA;}
	.st4{fill:#42A240;}
	.st5{fill:#EF3E2D;}
	.st6{fill:#FEBE10;}
</style>
<g>
	<g>
		<g>
			<path class="st0" d="M146.4,258.9c-75.9-13.7-108-67.7-106.7-109.9C41.8,78.2,113.9,37.7,174.9,23
				c61.5-14.9,127.9-11.7,188.1,7.7C415.2,47.6,488.9,83,493.6,145.8c2.2,29.5-13.2,58.4-34.3,78c-56.9,52.7-151.6,66-225.2,53.4
				c-3.2,23.4,5.4,51.9,23.5,66.9C211.2,336.7,164.8,302,146.4,258.9z"/>
		</g>
		<g>
			<path class="st1" d="M134.2,263.3c-76.5-9.6-111.6-61.7-112.6-104C20,88.5,89.8,44.3,149.9,26.2C210.6,8,277,7.5,338.2,23.7
				c53,14,128.5,45.4,136.6,107.8c3.8,29.3-10,59-30,79.7c-54,55.8-147.8,74.1-222,65.6c-1.9,23.5,8.2,51.5,27.1,65.5
				C203.2,337.5,155,305.4,134.2,263.3z"/>
			<path class="st0" d="M478.9,125.5c-6.3-32.1-30.7-56-57.6-72.6c-27.7-17.1-59.3-28.2-90.8-35.7C285.3,6.6,238,4.6,192.1,11.9
				C155,17.8,118.5,29.5,86.3,49.3C58,66.7,32.5,91.4,21.7,123.6c-4.9,14.5-6.6,30.6-4.4,45.8c1.9,13,6.5,25.4,13.2,36.7
				c16.4,27.9,44.7,46.8,75.3,55.9c8.2,2.4,16.5,4.1,25,5.3c18.1,34.1,50.8,59.7,87,72.3c10.4,3.6,21.2,6.1,32.2,7.3
				c4,0.4,7-4.7,3.4-7.4c-17.4-13.1-26-36.1-25.7-57.6c34.8,3.4,70.5,1.1,104.6-6.7c36-8.2,71.3-22.7,100.2-46
				c15.1-12.2,28.5-26.7,37.2-44.2C479,166.5,482.9,145.9,478.9,125.5z M468.8,155.8c-3.7,19-13.5,36.9-26.8,51
				c-24.2,25.7-56.4,42.7-89.8,53.3c-33.7,10.8-69.7,15.2-105.1,14c-8.2-0.3-16.4-0.9-24.6-1.8c-2.7-0.3-4.8,1.7-5,4.2
				c-1.6,20.4,5,43.1,18.6,59.1c-30.6-6.7-59.7-24.4-80-48.2c-6.5-7.7-12.4-16.1-16.9-25.1c-0.4-1.2-1.3-2.1-2.5-2.8
				c-0.8-0.5-1.7-0.8-2.6-0.8c0,0-0.1,0-0.1,0c-17.7-2.2-34.9-7.1-50.4-15.3c-6.9-3.6-12.9-7.5-18.7-12.1c-2.8-2.3-5.6-4.7-8.2-7.2
				c-1.3-1.2-2.5-2.5-3.7-3.8c-0.5-0.6-1.1-1.2-1.6-1.7c-0.5-0.6-0.6-0.7-1.4-1.6c-4.3-5.1-8.1-10.5-11.4-16.3
				c-2.9-5-5.4-10.6-7.4-16.7c-4.1-12.2-5.3-24.4-3.9-37.8c3.4-31.9,23.6-58.6,48.3-77.8c26.4-20.5,58.2-34,90.1-42
				c43.3-10.9,88.5-12.9,132.7-6.6c18.5,2.6,36.8,7,54.7,12.5c7.2,2.2,14.3,4.7,21.3,7.4c7.1,2.7,13.8,5.6,21.1,9.1
				c14.1,6.8,27.5,14.7,39.3,24.5c11.1,9.3,21,20.3,27.2,33.2C469.5,122,472,139.1,468.8,155.8z"/>
		</g>
		<path class="st0" d="M412.4,34.8c5.9,1.9,10.5,3.8,15.8,6.4c5.3,2.7,10.4,5.7,15.3,9.1c4.3,3,9,6.9,13.1,10.9
			c4.1,4,7.9,8.1,11.3,12.5c4,5.2,7.4,10.7,10.4,16.5c2.3,4.5,12.2,2.4,9.5-3.1c-11.1-22-30.1-40-51.8-51.4
			c-6.4-3.3-13.1-6.1-19.9-8.3c-2.3-0.7-5.6-0.2-6.7,2.1C408.1,31.9,410.3,34.1,412.4,34.8L412.4,34.8z"/>
		<path class="st0" d="M14.5,86.5C18.3,80.4,22.4,74.5,27,69c4.8-5.7,9.5-10.7,14.8-15.5c5.7-5.1,10.2-8.7,16.5-13c1.5-1,3-2,4.6-3
			c0.3-0.2,0.6-0.4,0.9-0.6c1.5-0.9-0.9,0.5,0.7-0.4c0.8-0.5,1.6-0.9,2.4-1.4c3.2-1.8,6.4-3.6,9.6-5.2c2.1-1.1,3.2-1.5,5.3-2.5
			c1.8-0.8,3.7-1.6,5.6-2.3c3.7-1.5,7.6-2.8,11.3-3.9c2.4-0.7,4.8-2.1,6.1-4.3c1-1.6,0.3-3.2-1.8-2.5C71.9,23.8,43.6,42,22.4,66.6
			c-5.8,6.8-11.1,14-15.8,21.6c-1,1.7-0.2,2.9,1.8,2.5C10.7,90.3,13.3,88.5,14.5,86.5L14.5,86.5z"/>
		<path class="st0" d="M37.3,34.2c13.6-11.2,29.8-19.1,47.1-22.7c0.9-0.2-2.5-2.4-2.7-2.6c-1.1-0.7-2.3-1.4-3.5-2
			c-0.6-0.3-1.7-1-2.3-0.9C58.4,9.6,42,17.4,28.2,28.8c-0.4,0.4,3.8,3.1,4.2,3.3C33.1,32.5,36.4,34.8,37.3,34.2L37.3,34.2z"/>
	</g>
</g>
<g>
	<path class="st2" d="M74.5,132.8c0-1.5,0-3.2-0.1-5c0-1.8-0.1-3.5-0.1-5c0-0.8,0.1-1.4,0.4-1.7c0.3-0.3,0.8-0.5,1.5-0.5
		c2.2,0,4.3,0,6.5,0c2.1,0,4.2,0,6.4,0.1c2.1,0.1,3.2,1.2,3.4,3.3c0.1,0.8,0.1,1.6,0.1,2.6c0,1-0.1,1.9-0.1,2.6
		c-0.1,2.1-0.1,4.1-0.2,6.2c0,2.1-0.1,4.2-0.1,6.2c0,0.5,0,1.1,0.1,1.7c0,0.6,0.1,1.1,0.3,1.7c0.1,0.3,0.4,0.7,0.7,0.9
		c0.3,0.3,0.6,0.4,0.8,0.4h1.5h10.9c1.2,0,2.2,0,2.9-0.1c0.7,0,1.2-0.2,1.5-0.5c0.3-0.3,0.6-0.8,0.7-1.4c0.1-0.7,0.2-1.6,0.2-2.8
		c0.1-2.8,0.2-5.7,0.2-8.6c0-2.9-0.1-5.8-0.1-8.6c0-0.4,0-0.8-0.1-1.2c0-0.4,0-0.7,0.2-1.1c0.1-1,0.7-1.5,1.8-1.5
		c2.1,0.1,4.2,0.2,6.3,0.2c2.1,0,4.2,0,6.4,0.2c1,0.1,1.5,0.2,1.6,0.4c0.1,0.2,0.2,0.9,0.2,2c0,1.8,0,3.7,0.1,5.8
		c0,2.1,0.1,4,0.1,5.8c-0.1,1.6-0.1,3.3-0.2,4.9c0,1.6-0.1,3.2-0.1,4.9c-0.1,1.9-0.1,3.8-0.1,5.7c0,1.9,0.1,3.8,0.1,5.7
		c0.1,4.1,0.1,8.2,0.1,12.1c0,4,0,8,0,12.1c0,0.5,0,0.9,0.1,1.3c0,0.4,0,0.9-0.1,1.3c-0.1,1.2-0.4,2-0.9,2.4
		c-0.5,0.4-1.3,0.7-2.5,0.7c-2,0.1-3.9,0.1-5.9,0.1c-1.9,0-3.9,0-5.9,0.1c-1.1,0-1.6-0.5-1.6-1.6c0-0.9,0-1.8,0.1-2.6
		c0-0.9,0-1.7-0.1-2.6c-0.1-2.4-0.1-4.7-0.2-7c0-2.3-0.1-4.6-0.3-7c-0.1-0.7-0.1-1.2-0.2-1.6c-0.1-0.4-0.2-0.7-0.4-0.9
		c-0.2-0.2-0.5-0.3-0.9-0.4c-0.4-0.1-1-0.1-1.6-0.1c-2.2-0.1-4.4-0.1-6.5-0.2c-2.1-0.1-4.2,0-6.4,0.1c-0.7,0.1-1.2,0.2-1.6,0.3
		c-0.4,0-0.7,0.2-0.9,0.4s-0.3,0.5-0.4,0.9c-0.1,0.4-0.1,0.9-0.1,1.7c-0.1,2.7-0.1,5.4-0.1,8.3c0,2.8,0,5.6,0,8.3
		c0,1.4-0.3,2.5-0.8,3.1c-0.5,0.6-1.5,1-3,1.2c-0.1,0.1-0.2,0.1-0.3,0.1c-2,0-3.9,0-5.9-0.1c-1.9,0-3.9-0.1-5.9-0.1
		c-0.8,0-1.3-0.2-1.6-0.6c-0.3-0.4-0.5-0.9-0.6-1.6c-0.1-0.9-0.1-1.8-0.2-2.6c0-0.9-0.1-1.7-0.1-2.6c0-4.2,0-8.5,0-12.7
		s0-8.4,0.1-12.7c0.1-3,0.1-5.6,0.2-7.7c0-2.1,0.1-4.3,0.1-6.7C74.5,136.5,74.5,134.5,74.5,132.8z"/>
	<path class="st3" d="M143.3,141.7c0-2.6-0.1-5.2-0.2-7.8c-0.1-2.6-0.2-5.2-0.4-7.8c0-0.3,0-0.7-0.1-1.1c0-0.4-0.1-0.8-0.1-1.2
		c0-1.2,0.1-2,0.4-2.6c0.3-0.5,1.2-0.8,2.8-0.7c1.8,0.1,4,0.1,6.7,0.1c2.7,0,5.5,0,8.5,0c3,0,6,0,9.1,0s5.9,0,8.5-0.1
		c2.6,0,4.8-0.1,6.6-0.1c1.8,0,3.1,0,3.7,0c1.4,0,2.1,0.7,2.2,2c0.1,1.8,0.1,3.7,0.1,5.9c0,2.1,0,4.1,0,5.9c0,0.2-0.2,0.4-0.5,0.7
		c-0.3,0.3-0.6,0.4-0.8,0.4c-1,0.1-1.9,0.3-2.8,0.4c-0.9,0.1-1.9,0.2-2.8,0.2c-3.4,0.1-6.6,0.1-9.8,0.1c-3.2,0-6.4,0-9.8,0.1
		c-1.2,0-2.1,0-2.7,0.1c-0.7,0.1-1.1,0.3-1.4,0.6c-0.3,0.3-0.4,0.8-0.4,1.4c0,0.7,0,1.6,0.1,2.8c0,0.7,0,1.1-0.1,1.3
		c0,0.2,0,0.6,0.1,1.2c0.1,0.8,0.1,1.5,0.2,2c0.1,0.5,0.2,0.8,0.4,1.1c0.2,0.2,0.5,0.4,1,0.5c0.5,0.1,1.2,0.1,2.1,0.2
		c0.7,0.1,1.6,0.2,2.8,0.1c1.2-0.1,2.2-0.1,2.9,0c0.8,0.1,1.4,0.2,1.8,0.4c0.4,0.2,0.6,0.4,0.8,0.8c0.1,0.3,0.2,0.8,0.2,1.3
		c0,0.5-0.1,1.2-0.1,2.1c0,0.3,0,0.5-0.1,0.8c0,0.2,0,0.5,0.1,0.8c0,1.2-0.6,1.8-1.8,1.8c-2.1,0.1-4.1,0.1-6.1,0c-1.1,0-2,0-2.6,0.1
		c-0.6,0-1,0.2-1.3,0.5c-0.2,0.3-0.4,0.7-0.4,1.3c0,0.6-0.1,1.4-0.1,2.4v7.6c0.1,1.4,0.8,2.2,2.2,2.2h25c1.2-0.1,2.1-0.1,2.6,0.3
		c0.5,0.3,0.8,1.1,0.8,2.3c0.1,1.9,0.2,4,0.3,6.4c0,2.3,0,4.5-0.1,6.4c0,0.3-0.2,0.6-0.5,0.9s-0.6,0.5-0.9,0.6
		c-0.4,0.1-1.4,0.1-2.8,0.1c-1.5,0-3.3,0-5.3,0c-2.1,0-4.4,0-6.8-0.1c-2.5,0-4.9-0.1-7.3-0.1c-2.4,0-4.7-0.1-6.8-0.1
		c-2.1,0-3.8,0-5.1,0c-1.6,0.1-3.2,0.1-4.8,0s-3.3-0.1-4.8-0.2c-1.3-0.1-2.1-0.3-2.5-0.7c-0.4-0.4-0.6-1.2-0.6-2.5
		c0-2.3,0-4.5,0-6.8s0-4.5,0.1-6.8c0-1.6,0-3.1,0.1-4.6c0-1.5,0.1-3,0.2-4.6c-0.1,0-0.1-0.7-0.1-2c0-1.3,0.1-2.9,0.1-4.8
		c0-1.9,0.1-3.9,0.1-6C143.3,145,143.3,143.2,143.3,141.7z"/>
	<path class="st4" d="M205.2,122.7c0-1.2,0.5-1.9,1.6-2c2-0.1,3.9-0.2,5.6-0.2c1.7,0,3.6,0,5.6-0.1c1.6-0.1,2.6,0.1,3.1,0.6
		c0.5,0.5,0.8,1.5,0.8,3.1c0.2,4.9,0.3,9.9,0.4,15.2c0,5.2,0.2,10.3,0.4,15.2c0.1,2.1,0.1,4-0.1,5.9s-0.1,3.8,0.1,5.8
		c0.1,1.3,0.2,2.1,0.5,2.4c0.3,0.3,1.1,0.4,2.5,0.4c2.4,0.1,4.8,0.2,7.2,0.2c2.4,0,4.8,0,7.2,0c2.2,0,3.8,0,4.8,0s1.7,0.2,2.1,0.6
		c0.4,0.4,0.6,1.1,0.6,2.1c0,1,0.1,2.4,0.3,4.3c0.1,1.4,0.2,2.7,0.3,4c0,1.3,0.1,2.6,0.3,4c0.1,1.4-0.7,2.1-2.2,2.1
		c-1.6-0.1-3.2-0.1-4.8-0.2c-1.6,0-3.3-0.1-4.9-0.1c-4.3,0-8.6,0-12.7,0c-4.2,0-8.4,0-12.6-0.1c-0.4,0-0.8,0-1.2,0
		c-0.4,0-0.7,0-1.1-0.1c-1.4-0.1-2.3-0.5-2.8-1c-0.5-0.5-0.7-1.5-0.7-2.9c0-2.9,0-5.8,0.1-8.7c0-2.9,0.1-5.8,0.1-8.7s0-5.5,0-7.8
		c0-2.3,0-5,0.1-8c0-3,0-6,0-9.1c0-3.1-0.1-6.1-0.1-9C205.3,127.6,205.2,125,205.2,122.7z"/>
	<path class="st5" d="M261.3,122.7c0-1.2,0.5-1.9,1.6-2c2-0.1,3.9-0.2,5.6-0.2c1.7,0,3.6,0,5.6-0.1c1.6-0.1,2.6,0.1,3.1,0.6
		c0.5,0.5,0.8,1.5,0.8,3.1c0.2,4.9,0.3,9.9,0.4,15.2c0,5.2,0.2,10.3,0.4,15.2c0.1,2.1,0.1,4-0.1,5.9s-0.1,3.8,0.1,5.8
		c0.1,1.3,0.2,2.1,0.5,2.4c0.3,0.3,1.1,0.4,2.5,0.4c2.4,0.1,4.8,0.2,7.2,0.2c2.4,0,4.8,0,7.2,0c2.2,0,3.8,0,4.8,0
		c1,0,1.7,0.2,2.1,0.6c0.4,0.4,0.6,1.1,0.6,2.1c0,1,0.1,2.4,0.3,4.3c0.1,1.4,0.2,2.7,0.3,4c0,1.3,0.1,2.6,0.3,4
		c0.1,1.4-0.7,2.1-2.2,2.1c-1.6-0.1-3.2-0.1-4.8-0.2c-1.6,0-3.3-0.1-4.9-0.1c-4.3,0-8.6,0-12.7,0c-4.2,0-8.4,0-12.6-0.1
		c-0.4,0-0.8,0-1.2,0c-0.4,0-0.7,0-1.1-0.1c-1.4-0.1-2.3-0.5-2.8-1c-0.5-0.5-0.7-1.5-0.7-2.9c0-2.9,0-5.8,0.1-8.7
		c0-2.9,0.1-5.8,0.1-8.7s0-5.5,0-7.8c0-2.3,0-5,0.1-8c0-3,0-6,0-9.1c0-3.1-0.1-6.1-0.1-9C261.4,127.6,261.3,125,261.3,122.7z"/>
	<path class="st6" d="M382,152.5c-0.3,3.2-0.9,6.2-1.5,9.1c-0.7,2.9-1.7,5.7-3,8.4c-1.3,2.6-3,5.1-5,7.3c-2,2.2-4.5,4.2-7.3,5.8
		c-2.3,1.3-4.6,2.3-7,3c-2.4,0.7-4.9,1-7.5,1c-4.2,0-8-0.5-11.4-1.6c-3.3-1.1-6.2-2.4-8.7-4.1c-2.5-1.7-4.6-3.6-6.4-5.7
		c-1.7-2.1-3.2-4.1-4.3-6.2c-1.1-2-2-3.9-2.5-5.6c-0.5-1.7-0.9-3.1-0.9-4.1c-0.1-1.8-0.3-3.7-0.5-5.5c-0.2-1.8-0.1-3.7,0.3-5.7
		c0.7-3.4,1.8-6.6,3.4-9.9c1.6-3.2,3.7-6.1,6.2-8.7c2.5-2.6,5.5-4.8,8.9-6.6c3.4-1.8,7.3-3,11.5-3.4c2.5-0.3,5.1-0.3,7.6,0.1
		c2.5,0.4,4.9,1.1,7.3,2c4.1,1.6,7.6,3.8,10.4,6.6c2.8,2.8,5.1,6.3,6.9,10.3c1,2.2,1.8,4.4,2.7,6.5C381.8,147.7,382.1,150,382,152.5
		z M365,152.1c0-0.8,0-1.5-0.1-1.9c0-0.4-0.1-0.8-0.2-1.1c-0.1-0.3-0.1-0.5-0.2-0.8c-0.1-0.2-0.1-0.6-0.2-1c-0.2-1-0.8-2.1-1.7-3.3
		c-0.9-1.2-2.1-2.3-3.4-3.4c-1.3-1.1-2.8-2-4.4-2.7c-1.6-0.7-3.2-1.1-4.7-1.1c-3.1,0-5.7,0.6-7.8,1.8c-2.1,1.2-3.8,2.8-5,4.6
		c-1.3,1.8-2.2,3.8-2.8,5.9c-0.6,2.1-1,4.1-1,5.9c-0.1,1.2,0.2,2.5,0.9,4.1c0.7,1.5,1.6,3,3,4.4c1.3,1.4,3,2.6,4.9,3.6
		c2,1,4.2,1.5,6.6,1.5c2.7,0,5.1-0.6,7.1-1.7c2-1.1,3.6-2.5,5-4.2c1.3-1.6,2.3-3.4,3-5.3C364.6,155.5,365,153.8,365,152.1z"/>
	<path class="st5" d="M403.4,186c-2.3-0.1-4.3-0.8-6-2.3c-1.6-1.4-2.4-3.1-2.4-5.1c0-1.2,0.3-2.4,0.8-3.4c0.5-1.1,1.2-2,2-2.8
		c0.8-0.8,1.8-1.5,2.8-2c1.1-0.5,2.2-0.7,3.3-0.7c1.1,0,2.2,0.2,3.2,0.7c1,0.4,1.9,1,2.6,1.8c0.7,0.8,1.3,1.6,1.6,2.6
		c0.4,1,0.5,2,0.5,3.1c-0.1,1-0.4,2-0.8,3c-0.4,1-0.9,1.9-1.6,2.7c-0.7,0.8-1.5,1.4-2.5,1.8C406,185.9,404.8,186.1,403.4,186z
		 M410.6,120.7c0.9,0.1,1.6,0.2,2.2,0.3c0.6,0.1,1,0.3,1.3,0.6c0.3,0.3,0.4,0.7,0.5,1.2c0.1,0.5,0.1,1.3,0.1,2.2
		c-0.1,1.8-0.2,3.5-0.3,5.3c-0.1,1.7-0.3,3.5-0.5,5.2c-0.5,4.3-1.1,8.6-1.6,12.9c-0.5,4.3-1,8.6-1.6,12.9c-0.1,0.3-0.1,0.7-0.1,1
		s0,0.6-0.1,1c-0.2,1.2-0.5,1.9-0.8,2.2c-0.3,0.3-1.1,0.4-2.4,0.4c-1.4,0-2.9,0-4.3-0.1c-1.4-0.1-2.9-0.1-4.3-0.1
		c-1,0-1.5-0.4-1.5-1.2c-0.1-1.4-0.2-2.9-0.3-4.3c-0.1-1.4-0.1-2.8-0.2-4.2c-0.3-5.3-0.5-10.5-0.7-15.6c-0.2-5.1-0.4-10.3-0.7-15.6
		c0-0.3,0-0.5-0.1-0.8c0-0.2-0.1-0.5-0.1-0.8c0.1-1,0.2-1.6,0.5-2c0.3-0.3,0.9-0.5,1.8-0.4c0.6,0,1.5,0,2.8,0c1.2,0,2.5,0,3.9,0
		c1.4,0,2.7,0,3.9,0C409.1,120.7,410,120.7,410.6,120.7z"/>
</g>
</svg>
