<svg width="107" height="62" viewBox="0 0 107 62" fill="none" xmlns="http://www.w3.org/2000/svg">
<g id="Group 14">
<path id="Vector" d="M11.946 0.0217911C4.84076 -0.429827 -2.00668 6.21743 3.23634 12.6107C5.49972 15.3768 9.73997 16.2236 12.648 18.3829C12.7196 18.4393 12.8056 18.4817 12.8915 18.524C15.7995 19.8789 14.983 24.0564 11.502 23.1813C8.60828 22.6168 6.50248 20.6833 4.39668 18.9615C3.78069 18.4676 2.86388 18.6228 2.46278 19.3002C1.27379 21.3325 -0.545511 25.1854 0.156423 25.3689C6.2876 31.3669 21.0569 32.5524 22.7329 22.4051C24.1224 13.9796 9.61104 12.2155 9.38184 8.54609C9.12399 4.31216 15.4844 8.43318 18.0772 9.83037C19.4524 10.5784 20.5985 6.9372 21.0569 5.38476C21.2001 4.91903 21.3577 4.46741 21.0998 4.04402C19.3522 1.2214 15.4557 0.00767802 11.946 0.0217911Z" fill="#F5F5F5"/>
<path id="Vector_2" d="M41.5098 1.55941C39.7891 2.60123 39.2061 3.35134 37.3859 5.69891C36.8882 6.324 31.4275 12.1721 31.4986 10.3663C31.5128 8.1715 31.328 5.97673 31.456 3.78196C31.8257 1.33715 29.65 1.43439 27.8298 1.47606C23.2366 1.15657 24.3458 2.3373 24.4311 6.56015C24.488 9.22721 24.6017 12.9361 24.7013 15.4226C24.8435 19.9093 24.8292 25.1045 24.8292 29.5219C24.8292 29.9664 31.3564 29.8969 31.4133 29.2996C31.5413 27.7855 31.3849 25.7852 31.4417 24.285C31.4986 22.5903 31.5697 21.8541 31.9963 20.2566C32.5652 18.173 33.9303 18.8536 34.6556 19.8677C36.4047 22.7848 37.201 24.0072 38.9644 26.9243C39.6612 28.1606 39.9171 30.0636 41.8653 29.883C43.202 29.6747 48.7196 30.7998 47.1411 28.2995C44.2117 23.3126 41.0263 18.298 38.6515 13.075C41.5951 9.88008 45.0934 6.85186 47.9801 3.54581C48.9044 2.83738 48.5774 1.32326 47.2691 1.58719C45.3493 1.69832 43.3869 1.32326 41.5098 1.55941Z" fill="#F5F5F5"/>
<path id="Vector_3" d="M52.3928 1.58017C50.8731 1.71956 51.5518 3.74077 51.36 4.74441C51.4338 10.125 51.4485 16.2165 51.4485 21.5971C51.478 23.9668 51.537 26.3226 51.4043 28.6923C51.3157 30.1559 53.6174 29.9468 55.6387 29.9468C57.66 29.9468 59.6518 30.1559 59.6518 28.9153C59.6518 21.4438 59.7698 11.7141 59.8731 4.52137C59.7698 3.81047 60.2272 2.16562 59.4895 1.76138C57.1289 1.42683 54.783 1.30138 52.3928 1.58017Z" fill="#F5F5F5"/>
<path id="Vector_4" d="M68.7276 1.43297C67.8032 1.46092 66.9468 1.4749 66.1311 1.46092C65.3155 1.44695 64.459 1.4749 63.5346 1.53081C63.0316 1.55876 62.7733 1.8383 62.7733 2.38341C62.8005 3.3618 62.8277 4.49394 62.8413 5.75187C62.8549 7.02378 62.8685 8.33762 62.8821 9.69339C62.8957 11.0492 62.8957 12.377 62.8821 13.6768C62.8685 14.9767 62.8549 16.1228 62.8549 17.1432V20.5396C62.8549 21.7975 62.8413 23.0554 62.8277 24.3134C62.8141 25.5853 62.8005 26.8432 62.8005 28.0872C62.8005 28.7161 62.9093 29.1354 63.1404 29.3591C63.3579 29.5827 63.7929 29.7225 64.4318 29.7784C64.595 29.8063 64.7581 29.8203 64.9348 29.8203H65.4786C67.4498 29.8483 69.3938 29.8623 71.3242 29.8623H77.2241C77.9854 29.8623 78.7467 29.8762 79.5079 29.8902C80.2692 29.9042 81.0169 29.9321 81.751 29.9601C82.4443 29.9601 82.7842 29.6666 82.7434 29.0656C82.6754 28.4645 82.6346 27.8915 82.621 27.3464C82.6074 26.8013 82.5667 26.2282 82.4987 25.6272C82.4307 24.7886 82.3899 24.1596 82.3763 23.7543C82.3627 23.335 82.2676 23.0415 82.0909 22.8598C81.9141 22.6781 81.5879 22.5942 81.1121 22.5942H78.8962H75.5656C74.4509 22.5942 73.3497 22.5662 72.235 22.5103C71.596 22.5103 71.2154 22.4544 71.0931 22.3286C70.9707 22.2028 70.8891 21.8674 70.8619 21.2943C70.794 20.4278 70.794 19.5891 70.8348 18.7924C70.8755 17.9818 70.8891 17.1432 70.8619 16.2486C70.7668 14.1381 70.7124 11.9297 70.6988 9.65146C70.6852 7.37321 70.6308 5.17881 70.5357 3.05431C70.5085 2.36943 70.3726 1.92217 70.155 1.71251C69.9647 1.53081 69.5705 1.43297 68.9859 1.43297C68.9044 1.41899 68.8092 1.43297 68.7276 1.43297Z" fill="#F5F5F5"/>
<path id="Vector_5" d="M92.985 1.43297C92.06 1.46092 91.203 1.4749 90.3868 1.46092C89.5705 1.44695 88.7135 1.4749 87.7885 1.53081C87.2851 1.55876 87.0267 1.8383 87.0267 2.38341C87.0539 3.3618 87.0811 4.49394 87.0947 5.75187C87.1083 7.02378 87.1219 8.33762 87.1355 9.69339C87.1491 11.0492 87.1491 12.377 87.1355 13.6768C87.1219 14.9767 87.1083 16.1228 87.1083 17.1432V20.5396C87.1083 21.7975 87.0947 23.0554 87.0811 24.3134C87.0675 25.5853 87.0539 26.8432 87.0539 28.0872C87.0539 28.7161 87.1627 29.1354 87.394 29.3591C87.6252 29.5827 88.0469 29.7225 88.6863 29.7784C88.8496 29.8063 89.0128 29.8203 89.1896 29.8203H89.7338C91.7063 29.8483 93.6516 29.8623 95.5833 29.8623H101.487C102.249 29.8623 103.011 29.8762 103.773 29.8902C104.534 29.9042 105.283 29.9321 106.004 29.9601C106.697 29.9601 107.038 29.6666 106.997 29.0656C106.929 28.4645 106.888 27.8915 106.874 27.3464C106.861 26.8013 106.82 26.2282 106.752 25.6272C106.684 24.7886 106.643 24.1596 106.629 23.7543C106.616 23.335 106.521 23.0415 106.344 22.8598C106.167 22.6781 105.84 22.5942 105.364 22.5942H103.133H99.8004C98.6849 22.5942 97.583 22.5662 96.4676 22.5103C95.8282 22.5103 95.4473 22.4544 95.3249 22.3286C95.2024 22.2028 95.1208 21.8674 95.08 21.2943C95.012 20.4278 95.012 19.5891 95.0528 18.7924C95.0936 17.9818 95.1072 17.1432 95.08 16.2486C94.9848 14.1381 94.9303 11.9297 94.9167 9.65146C94.9031 7.37321 94.8487 5.17881 94.7535 3.05431C94.7263 2.36943 94.5903 1.92217 94.3726 1.71251C94.1822 1.53081 93.7877 1.43297 93.2027 1.43297C93.1619 1.41899 93.0803 1.43297 92.985 1.43297Z" fill="#F5F5F5"/>
<path id="Vector_6" d="M8.22583 45.9924C8.10831 45.8629 8.04956 45.6037 8.02018 45.2295C7.9908 44.5097 7.97611 43.6603 7.96142 42.667C7.94673 41.6881 7.94673 40.8243 7.94673 40.1045C7.91736 39.5719 7.96142 39.2552 8.07894 39.14C8.19645 39.0392 8.5196 38.9529 9.07779 38.8953C9.13654 38.8953 9.31281 38.8953 9.62128 38.8809C9.92975 38.8665 10.297 38.8809 10.7523 38.9241C11.2077 38.9673 11.6777 39.0536 12.1918 39.1832C12.706 39.3128 13.176 39.5287 13.6167 39.831C14.0427 40.1189 14.4099 40.5076 14.7037 40.9683C14.9974 41.429 15.1443 42.0192 15.1443 42.7102C15.1443 43.5883 14.8799 44.2649 14.3511 44.7112C13.8223 45.1575 13.2054 45.503 12.5003 45.7189C11.7952 45.9348 11.0902 46.05 10.4145 46.0788C9.73879 46.1076 9.25405 46.1364 8.97496 46.1652C8.91621 46.1652 8.85745 46.1652 8.79869 46.1652C8.49023 46.1508 8.31396 46.0932 8.22583 45.9924ZM1.65985 34.2598C1.0723 34.3174 0.690382 34.447 0.499425 34.6629C0.308468 34.8789 0.0293779 35.2244 0 35.7858C0 36.2609 0.190957 58.1137 0.249713 58.8335C0.308468 59.2366 0.396602 59.5101 0.514114 59.6541C0.631626 59.798 0.896027 59.8844 1.27794 59.9132C1.74799 59.942 5.78746 59.87 6.63942 59.87C7.21229 59.8988 7.60889 59.798 7.79984 59.5533C7.9908 59.3086 8.07893 58.9055 8.04956 58.3584C7.9908 57.5811 8.02018 52.96 8.13769 52.8017C8.2552 52.6433 8.59305 52.5857 9.18061 52.6433C10.9286 52.8017 12.6178 52.6433 14.263 52.1682C15.2325 51.8803 16.2313 51.4916 17.2302 51.031C18.2437 50.5703 19.1691 49.9657 19.9917 49.2315C20.829 48.4973 21.5047 47.6048 22.0335 46.5683C22.5623 45.5318 22.8267 44.2649 22.8267 42.7678C22.8267 41.8032 22.6357 40.8963 22.2391 40.0326C21.8572 39.1688 21.3871 38.3914 20.8437 37.7148C20.3002 37.0382 19.742 36.4768 19.1397 36.0305C18.5522 35.5842 18.0527 35.3107 17.6708 35.1668C16.3195 34.6917 14.8652 34.4038 13.3082 34.3318C11.8393 34.2454 2.1299 34.2166 1.65985 34.2598Z" fill="#F5F5F5"/>
<path id="Vector_7" d="M52.2129 34.3847C51.8947 34.4426 51.7037 34.515 51.6146 34.6019C51.5255 34.6887 51.4618 34.9348 51.4237 35.3111C51.3982 35.6295 51.3855 35.9625 51.3727 36.2809C51.36 36.5993 51.36 36.9322 51.36 37.2507C51.3855 39.0745 51.3982 40.9996 51.4109 43.0405C51.4236 45.0814 51.4237 47.0065 51.4237 48.8303V52.4489C51.4237 53.6503 51.4109 54.8662 51.3855 56.0676C51.3855 56.5742 51.3855 57.0518 51.3727 57.4716C51.36 57.9058 51.3727 58.3545 51.3855 58.8467C51.3855 59.6717 51.7546 60.0336 52.5057 59.8888C53.3713 59.9178 56.592 59.9323 57.3558 59.8888C57.7631 59.9467 58.0177 59.9178 58.1323 59.8309C58.2341 59.7296 58.2978 59.4691 58.2978 59.0493V49.9593C58.3487 47.5421 58.3869 45.2262 58.3996 43.026C58.4251 40.8114 58.4506 38.8284 58.476 37.048C58.476 36.7875 58.476 36.4401 58.4887 36.0348C58.5015 35.6295 58.4887 35.2966 58.4378 35.0216C58.4124 34.7321 58.3233 34.5584 58.145 34.544C57.9668 34.5295 57.7631 34.4861 57.4958 34.4571C56.6047 34.3268 55.7391 34.2545 54.8735 34.24C54.7843 34.24 54.6825 34.24 54.5934 34.24C53.8169 34.24 53.0276 34.2834 52.2129 34.3847Z" fill="#F5F5F5"/>
<path id="Vector_8" d="M68.0151 34.2508C67.2935 34.3087 66.2316 34.3232 65.5372 34.2942C64.8428 34.2653 64.094 34.2653 63.3043 34.2942C62.9912 34.2219 62.8142 34.3955 62.7733 34.8584V35.7409C62.7733 36.2038 62.8006 59.2491 62.8414 59.4661C62.9095 59.8133 63.0729 59.9435 63.3452 59.8711C63.6992 59.7988 64.094 59.7699 64.5433 59.7988C64.9926 59.8277 65.3738 59.8277 65.7142 59.7988C66.0409 59.7988 66.3677 59.8133 66.6945 59.8422C67.0212 59.8711 67.5114 59.9001 67.8518 59.9145C68.3283 59.9435 68.6414 59.8567 68.7912 59.6686C68.941 59.4805 69.009 59.0755 69.009 58.4679C68.9682 57.1804 68.8184 47.0104 68.8184 47.0104C68.8184 46.9091 68.832 46.8368 68.8457 46.8078C68.8457 46.7789 68.8593 46.75 68.8729 46.7355C68.9137 46.7644 68.9682 46.7789 69.0363 46.7789C69.1043 46.7789 69.1452 46.8078 69.1588 46.8512C69.2405 47.0104 69.4039 47.3286 69.6489 47.7915C69.894 48.2545 75.4354 58.5836 76.0344 59.3069C76.1433 59.4371 76.2659 59.5529 76.4156 59.6541C76.5654 59.7554 76.7016 59.7988 76.8241 59.7988C77.7227 59.8567 78.6213 59.8711 79.5063 59.8711H82.1476C82.4199 59.8711 82.5833 59.8277 82.6514 59.7265C82.7194 59.6252 82.7467 59.4082 82.7467 59.061C82.7194 58.0483 82.7194 57.0357 82.7194 56.023C82.7194 55.0104 82.6922 54.0122 82.6514 52.9851C82.6105 51.4805 82.5697 49.9905 82.5424 48.5293C82.5152 47.0682 82.4744 45.5782 82.4335 44.1026C82.4335 43.5384 82.4335 42.9018 82.4471 42.1785C82.4607 41.4552 82.4744 40.7174 82.4744 39.9651C82.488 39.2129 82.5016 38.4751 82.5016 37.7517C82.5152 37.0284 82.5152 36.3774 82.5152 35.8277C82.5152 35.1622 82.4471 34.7427 82.3246 34.5546C82.2021 34.381 81.8617 34.2942 81.3171 34.2942C80.7044 34.2653 80.1189 34.2653 79.5335 34.2942C78.948 34.3232 78.1856 34.3666 77.5729 34.41C77.1372 34.4389 76.8649 34.5257 76.7696 34.6993C76.6743 34.8729 76.6335 35.2346 76.6607 35.8277C76.6879 36.7102 76.8241 47.0538 76.8513 47.9362C76.8513 48.2255 76.8377 48.5872 76.8241 48.9778C76.7969 49.3829 76.756 49.5854 76.6607 49.5854C76.579 49.5854 76.0072 48.457 75.8574 48.24C75.2039 47.2708 74.741 46.2292 74.1283 45.0863C73.5156 43.9434 73.0663 42.8006 72.4809 41.6288C71.8818 40.457 69.6081 36.0013 69.0363 34.9452C68.8865 34.6993 68.7504 34.5257 68.6142 34.3955C68.5053 34.2942 68.3419 34.2508 68.1513 34.2508C68.1104 34.2364 68.0696 34.2364 68.0151 34.2508Z" fill="#F5F5F5"/>
<path id="Vector_9" d="M87.7659 34.3704C87.5743 34.3704 87.3963 34.4138 87.2457 34.5152C87.0951 34.6166 87.0267 34.7905 87.0267 35.0657C87.0267 35.8769 87.0267 36.6882 87.0404 37.4994C87.054 38.3251 87.0814 39.1363 87.1362 39.9331C87.1636 40.2228 87.1909 40.4546 87.232 40.6139C87.2731 40.7733 87.3278 40.8892 87.41 40.9761C87.4921 41.063 87.6153 41.1065 87.7796 41.1354C87.9439 41.1644 88.1492 41.1789 88.423 41.1789H92.0645C92.4615 41.1789 92.749 41.1789 92.9543 41.1934C93.146 41.2079 93.2829 41.2658 93.365 41.3527C93.4335 41.4541 93.4745 41.599 93.4745 41.8018C93.4745 42.0046 93.4882 42.3088 93.5156 42.6999C93.5704 43.6415 93.5977 44.6845 93.6114 45.8145C93.6251 46.9589 93.6388 47.9874 93.6662 48.929C93.6936 50.6239 93.7073 52.3043 93.7073 53.9557C93.7073 55.6216 93.721 57.302 93.7483 58.9824C93.7757 59.417 93.8305 59.6778 93.9263 59.7937C94.0221 59.9095 94.2685 59.9385 94.6655 59.9095C95.309 59.9095 96.1167 59.9095 96.7464 59.8951C97.3761 59.8806 98.0058 59.8806 98.6493 59.8806C99.1421 59.8516 99.7992 59.7647 99.9361 59.6198C100.073 59.475 100.141 59.1273 100.141 58.5913V56.6212C100.141 55.7375 100.141 54.7525 100.155 53.666C100.169 52.5795 100.169 51.4351 100.155 50.2472C100.141 49.0594 100.141 47.9005 100.155 46.7995C100.169 45.6986 100.169 44.699 100.169 43.8154V41.8018C100.169 41.4251 100.21 41.1934 100.278 41.092C100.347 40.9906 100.566 40.9326 100.908 40.9181C101.866 40.8892 102.482 40.8892 103.454 40.9181C103.92 40.9181 104.385 40.9326 104.864 40.9616C105.33 40.9906 105.809 41.0195 106.302 41.0485C106.767 41.1065 107 40.8892 107 40.3966C106.973 39.6144 106.959 38.8321 106.945 38.0354C106.932 37.2386 106.904 36.4419 106.849 35.6452C106.822 35.2685 106.685 34.9788 106.439 34.7615C106.192 34.5442 105.864 34.4283 105.439 34.3993C102.482 34.2979 99.5254 34.24 96.5958 34.24C93.6799 34.2545 90.7229 34.2835 87.7659 34.3704Z" fill="#F5F5F5"/>
<path id="Vector_10" d="M31.3378 43.6387C31.3378 40.5104 33.5976 38.1969 36.382 38.1969C39.1664 38.1969 41.4262 40.4958 41.4262 43.6387C41.4262 46.7816 39.1664 49.3134 36.382 49.3134C33.5976 49.3279 31.3378 46.7816 31.3378 43.6387ZM35.5346 32.8278C35.01 32.9151 34.4854 32.9878 33.9608 33.1042C28.5265 34.3265 24.7601 39.6228 25.8765 45.5012C26.2935 47.6692 27.1544 49.6626 28.244 51.5541C30.0599 54.697 34.297 61.3466 36.3551 61.3466C38.4131 61.3466 40.7268 57.578 42.4082 55.3954C44.0761 53.2274 45.2733 50.7102 46.188 48.1202C47.0085 45.7922 47.3986 43.3914 46.7664 40.9615C45.6768 36.8291 43.0135 34.2101 38.8436 33.1042C38.319 32.9587 37.7675 32.9151 37.216 32.8132L35.5346 32.8278Z" fill="#F5F5F5"/>
</g>
</svg>
