<?xml version="1.0" encoding="utf-8"?>
<!-- Generator: Adobe Illustrator 27.1.1, SVG Export Plug-In . SVG Version: 6.00 Build 0)  -->
<svg version="1.1" xmlns="http://www.w3.org/2000/svg" xmlns:xlink="http://www.w3.org/1999/xlink" x="0px" y="0px"
	 viewBox="0 0 500 500" style="enable-background:new 0 0 500 500;" xml:space="preserve">
<style type="text/css">
	.st0{fill:#F5F5F5;}
	.st1{fill:#E0E0E0;}
	.st2{fill:#5A308D;}
	.st3{opacity:0.3;}
	.st4{opacity:0.2;}
	.st5{fill:#455A64;}
	.st6{opacity:0.25;fill:#FFFFFF;}
	.st7{opacity:0.4;fill:#FFFFFF;}
	.st8{opacity:0.7;}
	.st9{fill:#FFFFFF;}
	.st10{fill:#FAFAFA;}
	.st11{opacity:0.6;fill:#FFFFFF;}
	.st12{fill:#508EC6;}
	.st13{opacity:0.5;}
	.st14{opacity:0.15;}
	.st15{fill:#37474F;}
	.st16{opacity:0.4;}
	.st17{fill:#EBEBEB;}
	.st18{opacity:0.1;}
	.st19{fill:#69A049;}
	.st20{opacity:0.2;fill:#FFFFFF;}
	.st21{opacity:0.85;fill:#FFFFFF;}
	.st22{fill:#EEBD31;}
	.st23{fill:#CF4031;}
	.st24{fill:#F0F0F0;}
	.st25{fill:#E6E6E6;}
	.st26{opacity:2.000000e-02;}
	.st27{opacity:5.000000e-02;}
	.st28{fill:#263238;}
	.st29{fill:#FFA8A7;}
	.st30{fill:#F28F8F;}
	.st31{opacity:0.1;fill:#FFFFFF;}
	.st32{opacity:0.4;fill:#CF4031;}
	.st33{fill:#B16668;}
	.st34{opacity:0.35;fill:#FFFFFF;}
</style>
<g id="Floor">
	<path id="Floor_00000013876646643919197920000017874447876317227658_" class="st0" d="M81.5,245.5c-93.1,53.7-93.1,140.8,0,194.6
		c93.1,53.7,243.9,53.7,337,0c93.1-53.7,93.1-140.8,0-194.6C325.4,191.8,174.6,191.8,81.5,245.5z"/>
</g>
<g id="Shadows">
	<path id="Shadow_00000052816161519265647730000017376610036390907803_" class="st1" d="M435.2,311.2l-37,21.4
		c-2.4,1.4-6.7,1.2-9.5-0.4l-136.1-78.6c-2.8-1.6-3.1-4.1-0.7-5.5l37-21.4c2.4-1.4,6.7-1.2,9.5,0.4l136.1,78.6
		C437.4,307.4,437.7,309.8,435.2,311.2z"/>
	<path id="Shadow_33_" class="st1" d="M211.4,422.2l-124.6-72c-3.2-1.9-3.2-4.9,0-6.7l167-96.4c3.2-1.9,8.4-1.9,11.6,0l124.6,72
		c3.2,1.9,3.2,4.9,0,6.7l-167,96.4C219.8,424,214.6,424,211.4,422.2z"/>
	<path id="Shadow_00000042704870701888408950000017637567214601190565_" class="st1" d="M180.4,443.6c-0.6,1.7-2.5,2.8-5.5,3.2
		l-50-29.2l-5.7-5.7c-0.3-0.3,0-0.9,0.5-0.7l10.4,3.5L180.4,443.6z"/>
	<path id="Shadow_00000082336683275837652710000013071321822530776743_" class="st1" d="M135.8,408.3l57.3,33.1l8.9,1.8
		c0.2,0,0.4-0.2,0.3-0.4l-2.8-5.1l-57.3-33.1C140.5,403.6,134.5,407.5,135.8,408.3z"/>
	<polygon id="Shadow_00000139997887747040539160000005269902980365519521_" class="st1" points="336.8,451.2 449.5,386.1 
		376.2,343.8 263.5,408.9 	"/>
	<ellipse id="Shadow_00000101096954049165839340000001160476648526185100_" class="st1" cx="90.5" cy="387.3" rx="33" ry="19.1"/>
</g>
<g id="Books">
	<g id="Book_00000085229985202061492560000013613284779524740503_">
		<path id="XMLID_00000148633073657284680820000017549081075225160603_" d="M417.3,120.2l0,4.5c0,0-1.7-1.6-1.8-2.7
			C415.4,120.8,417.3,120.2,417.3,120.2z"/>
		<path id="XMLID_00000100378815063950098390000015816348189474285488_" class="st2" d="M413.8,119.1c0,0-1.4,4.5,3.5,6.1
			c4.9,1.6,8,0,8.8,1.4c0.7,1.4-23.4,15.3-23.4,15.3l4.6-20L413.8,119.1z"/>
		<path id="XMLID_00000069366176351053401530000010860607339039852987_" class="st3" d="M413.8,119.1c0,0-1.4,4.5,3.5,6.1
			c4.9,1.6,8,0,8.8,1.4c0.7,1.4-23.4,15.3-23.4,15.3l4.6-20L413.8,119.1z"/>
		<path id="XMLID_00000140701344545816965370000001023001616154584455_" class="st2" d="M411.8,310.4l0,0.3l-9.5-5.5l-94.6-54.2
			l0-185.5c0-2.9,1.6-4.3,3.5-3.2l3.5,2l97,56l-0.1,0.8L411.8,310.4z"/>
		<path id="XMLID_00000150100292715693342550000016721442226780637575_" class="st4" d="M411.8,310.4l0,0.3l-9.5-5.5l-94.6-54.2
			l0-185.5c0-2.9,1.6-4.3,3.5-3.2l3.5,2l97,56l-0.1,0.8L411.8,310.4z"/>
		<path id="XMLID_00000135688606020006199980000010216150203458531502_" class="st5" d="M390.6,147.4l-5.1-5.7l26-15
			c3.9,3,6.9,4.5,10.5,3.1L390.6,147.4z"/>
		<path id="XMLID_00000093896796072371680960000016195356205045477307_" class="st0" d="M410.3,123.6l-96.1-55.5c-1.7-1-4.4-1-6,0
			l-25.7,14.8l97.4,55.8c0,0,4.2-1.1,7.1,1.2c2.9,2.3,2.7-0.6,2.7-0.6l21.9-12.6C409.8,124.3,410.3,123.6,410.3,123.6z"/>
		<path id="XMLID_00000062189304166961863670000010094215636677629879_" class="st2" d="M388.8,146.2c-1-0.6-1.4-1.2-0.9-1.5
			l0.8-0.5c0.9-0.5,0.1-1.9-1.9-3c-2-1.1-4.3-1.6-5.2-1.1l-0.8,0.5c-0.5,0.3-2.2-0.3-3.8-1.2l0.6,180.1c1,0.6,2.4,1.4,2.4,1.4
			c0.5,0.2,1.2,0,1.4-0.1l0.8-0.5c0.9-0.5,3.2,0,5.2,1.1c2,1.1,2.8,2.5,1.9,3l-0.8,0.5c-0.5,0.3,0,0.9,0.9,1.5L388.8,146.2z"/>
		<path id="XMLID_00000059268250323840215390000004302881790053119921_" class="st6" d="M388.8,146.2c-1-0.6-1.4-1.2-0.9-1.5
			l0.8-0.5c0.9-0.5,0.1-1.9-1.9-3c-2-1.1-4.3-1.6-5.2-1.1l-0.8,0.5c-0.5,0.3-2.2-0.3-3.8-1.2l0.6,180.1c1,0.6,2.4,1.4,2.4,1.4
			c0.5,0.2,1.2,0,1.4-0.1l0.8-0.5c0.9-0.5,3.2,0,5.2,1.1c2,1.1,2.8,2.5,1.9,3l-0.8,0.5c-0.5,0.3,0,0.9,0.9,1.5L388.8,146.2z"/>
		<path id="XMLID_00000015336022865992708010000012047873560103366332_" class="st2" d="M379.9,320.6l0,0.3l-2.4-1.4l-103.7-59.9
			l0-174.6c0-2.9,1.6-4.3,3.5-3.2l3.5,2l99.1,54.8V320.6z"/>
		<path id="XMLID_00000022548663451812306280000004403310023890007444_" class="st7" d="M379.9,320.6l0,0.3l-2.4-1.4l-103.7-59.9
			l0-174.6c0-2.9,1.6-4.3,3.5-3.2l3.5,2l99.1,54.8V320.6z"/>
		<path id="XMLID_00000151544215919074806750000005748808524585340582_" class="st2" d="M387.6,325.3V145l6.4,2.6v179.8
			c-1.7,0.2-2.8,0-3.6-0.4L387.6,325.3z"/>
		<path id="XMLID_00000174570325978272533050000016979179017844736411_" class="st7" d="M387.6,325.3V145l6.4,2.6v179.8
			c-1.7,0.2-2.8,0-3.6-0.4L387.6,325.3z"/>
		<g id="XMLID_00000155839434259222519500000013389442719016021639_">
			<path id="XMLID_00000033366320801404353480000004080258630364549053_" class="st2" d="M428.7,306.6c0,0.1,0,0.2,0,0.3
				c0,0.1,0,0.1,0,0.2c0,0.2-0.1,0.3-0.2,0.5c0,0.1-0.1,0.2-0.1,0.2c-0.1,0.3-0.3,0.5-0.6,0.8c-0.2,0.3-0.5,0.5-0.7,0.8
				c-0.3,0.3-0.6,0.5-0.9,0.8c-0.2,0.2-0.4,0.3-0.6,0.4c-0.2,0.1-0.3,0.2-0.5,0.3c-0.4,0.2-0.7,0.5-1.2,0.7l-22.3,12.9
				c-2.5,1.4-5.3,2.4-7.5,2.7l0-179.8l34.7-20.8L428.7,306.6L428.7,306.6z"/>
		</g>
		<g id="XMLID_00000028284145876401687760000017748060211261385361_" class="st8">
			<path id="XMLID_00000026146056903272407180000003096409511050001071_" class="st9" d="M428.7,306.6c0,0.1,0,0.2,0,0.3
				c0,0.1,0,0.1,0,0.2c0,0.2-0.1,0.3-0.2,0.5c0,0.1-0.1,0.2-0.1,0.2c-0.1,0.3-0.3,0.5-0.6,0.8c-0.2,0.3-0.5,0.5-0.7,0.8
				c-0.3,0.3-0.6,0.5-0.9,0.8c-0.2,0.2-0.4,0.3-0.6,0.4c-0.2,0.1-0.3,0.2-0.5,0.3c-0.4,0.2-0.7,0.5-1.2,0.7l-22.3,12.9
				c-2.5,1.4-5.3,2.4-7.5,2.7l0-179.8l34.7-20.8L428.7,306.6L428.7,306.6z"/>
		</g>
		<g>
			<path class="st10" d="M394.1,162.5v21.7c13.9-4.7,25.8-11.1,34.7-20v-21.7C419.8,151.4,407.9,157.8,394.1,162.5z"/>
			<path class="st10" d="M394.1,283.2v21.7c13.9-4.7,25.8-11.1,34.7-20v-21.7C419.8,272.1,407.9,278.5,394.1,283.2z"/>
		</g>
		<g id="XMLID_00000021091498451270549060000014674122487591924137_">
			<g>
				<path id="XMLID_00000140737267987320189690000006060942717162774404_" class="st2" d="M401.6,144.9l-1.7-3
					c-3.2,1.9-6.4,2.5-7.4,2.3c0.1-1-0.1-2-0.6-2.9c-0.8-1.4-2.3-2.5-3.3-3.1c-1.4-0.8-3.3-1.5-5.1-1.7c-0.1,0-0.3,0-0.4,0
					c-1.1-0.1-2.2,0.1-3.1,0.6l-92-53.1l-3.1-1.8l-4-2.3c-0.8-0.5-1.6-0.5-2.2-0.2l-3.5,2c0.7-0.4,1.4-0.3,2.2,0.1l0.1,0l10.5,6.1
					l89,51.4c1.7,1,3.4,1.5,3.8,1.3l0.8-0.5c0.4-0.2,1.1-0.3,1.8-0.1c1,0.1,2.2,0.6,3.3,1.2c2,1.1,2.8,2.5,1.9,3l-0.8,0.5
					c-0.5,0.3,0,0.9,0.9,1.5l1.8,1C392.5,148.4,397.4,147.3,401.6,144.9z"/>
				<path id="XMLID_00000157306330072393510450000015843590446821870755_" class="st11" d="M401.6,144.9l-1.7-3
					c-3.2,1.9-6.4,2.5-7.4,2.3c0.1-1-0.1-2-0.6-2.9c-0.8-1.4-2.3-2.5-3.3-3.1c-1.4-0.8-3.3-1.5-5.1-1.7c-0.1,0-0.3,0-0.4,0
					c-1.1-0.1-2.2,0.1-3.1,0.6l-92-53.1l-3.1-1.8l-4-2.3c-0.8-0.5-1.6-0.5-2.2-0.2l-3.5,2c0.7-0.4,1.4-0.3,2.2,0.1l0.1,0l10.5,6.1
					l89,51.4c1.7,1,3.4,1.5,3.8,1.3l0.8-0.5c0.4-0.2,1.1-0.3,1.8-0.1c1,0.1,2.2,0.6,3.3,1.2c2,1.1,2.8,2.5,1.9,3l-0.8,0.5
					c-0.5,0.3,0,0.9,0.9,1.5l1.8,1C392.5,148.4,397.4,147.3,401.6,144.9z"/>
				<path id="XMLID_00000107559138524508904630000007779236020825007029_" class="st2" d="M399.9,141.9l22.3-12.9
					c0.3-0.2,0.6-0.4,0.9-0.6l0.7-0.5c0,0,0,0,0.1-0.1c-2.6,1.1-6,0.1-8.3-1.3c-1-0.6-2.5-1.6-3.3-3c-0.6-1.1-0.8-2.2-0.6-3.3
					l-0.3-0.2c-0.2-0.1-0.4-0.2-0.6-0.3l-89-51.4c0,0-2.3-1.4-5.1-2.9c-0.5-0.3-1-0.6-1.5-0.8c-1.5-0.9-3-1.7-4.3-2.5
					c-0.7-0.3-1.3-0.3-1.9,0l1-0.6l2.6-1.5c0.5-0.3,1.1-0.3,1.8,0c0,0,0,0,0,0c0.5,0.3,1,0.6,1.6,0.9c0.3,0.2,0.7,0.4,1,0.6
					c0.6,0.3,1.2,0.7,1.7,1c0.4,0.2,0.7,0.4,1.1,0.6c0.3,0.2,0.5,0.3,0.8,0.4c0.8,0.5,1.3,0.7,1.3,0.7l70.7,40.8l22.6,13
					c1.6,0.9,2.6,1.9,2.2,2.2c-0.1,0-0.1,0.1-0.1,0.1l-0.8,0.5c-1,0.6-0.2,1.9,1.8,3.1c1.9,1.1,3.5,1.2,4.5,0.6l1-0.6
					c0.5-0.3,1.1-0.4,1.4-0.2c0.1,0.1,0.3,0.2,0.5,0.3c0.3,0.2,0.7,0.4,1.1,0.6c0.4,0.2,0.9,0.5,1.4,0.8c0.6,0.4,0.9,0.9,0.7,1.6
					c0,0.1,0,0.1,0,0.2c0,0.2-0.1,0.3-0.2,0.5l0,0c0,0.1-0.1,0.2-0.1,0.2c-0.1,0.3-0.3,0.5-0.6,0.8c-0.2,0.3-0.5,0.5-0.7,0.8
					c-0.3,0.3-0.6,0.5-0.9,0.8c-0.2,0.2-0.4,0.3-0.6,0.4c-0.2,0.1-0.3,0.2-0.5,0.3c-0.4,0.2-0.7,0.5-1.2,0.7l-22.3,12.9L399.9,141.9
					z"/>
				<path id="XMLID_00000034780734424548896400000004872689376017988775_" class="st11" d="M399.9,141.9l22.3-12.9
					c0.3-0.2,0.6-0.4,0.9-0.6l0.7-0.5c0,0,0,0,0.1-0.1c-2.6,1.1-6,0.1-8.3-1.3c-1-0.6-2.5-1.6-3.3-3c-0.6-1.1-0.8-2.2-0.6-3.3
					l-0.3-0.2c-0.2-0.1-0.4-0.2-0.6-0.3l-89-51.4c0,0-2.3-1.4-5.1-2.9c-0.5-0.3-1-0.6-1.5-0.8c-1.5-0.9-3-1.7-4.3-2.5
					c-0.7-0.3-1.3-0.3-1.9,0l1-0.6l2.6-1.5c0.5-0.3,1.1-0.3,1.8,0c0,0,0,0,0,0c0.5,0.3,1,0.6,1.6,0.9c0.3,0.2,0.7,0.4,1,0.6
					c0.6,0.3,1.2,0.7,1.7,1c0.4,0.2,0.7,0.4,1.1,0.6c0.3,0.2,0.5,0.3,0.8,0.4c0.8,0.5,1.3,0.7,1.3,0.7l70.7,40.8l22.6,13
					c1.6,0.9,2.6,1.9,2.2,2.2c-0.1,0-0.1,0.1-0.1,0.1l-0.8,0.5c-1,0.6-0.2,1.9,1.8,3.1c1.9,1.1,3.5,1.2,4.5,0.6l1-0.6
					c0.5-0.3,1.1-0.4,1.4-0.2c0.1,0.1,0.3,0.2,0.5,0.3c0.3,0.2,0.7,0.4,1.1,0.6c0.4,0.2,0.9,0.5,1.4,0.8c0.6,0.4,0.9,0.9,0.7,1.6
					c0,0.1,0,0.1,0,0.2c0,0.2-0.1,0.3-0.2,0.5l0,0c0,0.1-0.1,0.2-0.1,0.2c-0.1,0.3-0.3,0.5-0.6,0.8c-0.2,0.3-0.5,0.5-0.7,0.8
					c-0.3,0.3-0.6,0.5-0.9,0.8c-0.2,0.2-0.4,0.3-0.6,0.4c-0.2,0.1-0.3,0.2-0.5,0.3c-0.4,0.2-0.7,0.5-1.2,0.7l-22.3,12.9L399.9,141.9
					z"/>
			</g>
		</g>
	</g>
	<g id="Book_59_">
		<path id="XMLID_1135_" class="st12" d="M104.8,348.2l4.4-2.4l-4-1C104.4,345.8,104.4,346.9,104.8,348.2z"/>
		<path id="XMLID_1134_" class="st13" d="M104.8,348.2l4.4-2.4l-4-1C104.4,345.8,104.4,346.9,104.8,348.2z"/>
		<g id="XMLID_7671_">
			<path id="XMLID_1133_" class="st12" d="M221.9,407.2c-2.5,1.4-6.5,1.4-9,0L112,348.9l151.1-85.8l3.5-2l100.9,56.9
				c2.5,1.4,2.5,3.8,0,5.2L221.9,407.2z"/>
			<path id="XMLID_1132_" class="st12" d="M184,298.5l-35.2,20.3l-22.8-13.2l-26.5,15.3c0,0,0,15.4,0,17.7c0,2.3,2.6,5.6,3.5,5.1
				c0,0,2.1,0.4,5.1,1.8c3,1.4,7.3,5.4,7.3,5.4l80.9-45.3L184,298.5z"/>
			<path id="XMLID_1131_" class="st14" d="M184,298.5l-35.2,20.3l-22.8-13.2l-26.5,15.3c0,0,0,15.4,0,17.7c0,2.3,2.6,5.6,3.5,5.1
				c0,0,2.1,0.4,5.1,1.8c3,1.4,7.3,5.4,7.3,5.4l80.9-45.3L184,298.5z"/>
			<path class="st15" d="M114.1,323.1v19.2c-0.1-0.1-0.2-0.1-0.3-0.2c-1.1-0.6-2.7-1.3-4.3-1.3c-1.1,0-2.1,0.1-2.8,0.7v-22.6
				L114.1,323.1z"/>
			<path class="st1" d="M119.1,348.9c0-1.1-0.5-2.3-1.3-3.3c-0.4-0.5-0.8-1-1.2-1.4c-0.1-0.1-0.3-0.3-0.4-0.4
				c-0.2-0.2-0.4-0.3-0.6-0.5c-0.2-0.1-0.3-0.2-0.5-0.3c-0.3-0.2-0.7-0.5-1-0.7v-19.1l4.9,2.9v-0.1L119.1,348.9z"/>
			<path class="st16" d="M99.6,338.6c0,2.3,2.6,5.6,3.5,5.1h0l3.5-2.3v-14.6l-3.5-6.1l-1.9-0.7l-1.6,0.9
				C99.6,320.9,99.6,336.3,99.6,338.6z"/>
		</g>
		<path id="XMLID_1130_" class="st17" d="M217.4,382.7v21.9c-1.1,0-2.2-0.2-3-0.7l-11.1-6.4l-84.3-48.7l0-22.9L217.4,382.7z"/>
		<path id="XMLID_1129_" class="st0" d="M365,300.4V317c0,1.9-1.3,4.2-3,5.2l-130.5,75.4l-11.1,6.4c-0.8,0.5-1.9,0.7-3,0.7v-19.4
			L365,300.4z"/>
		<g id="XMLID_00000085955368327987227760000007688022627078565505_">
			<path id="XMLID_7668_" class="st12" d="M263.1,234.6L112,321.9c0,0,0,0.9,0,2c0,1.1-1.6,1.5-3.5,0.4c-2-1.1-3.5-2.5-3.5-4.5
				l-0.2-1.9l153.9-88.9l0.6-0.4c0.2,0.3,0.3,0.6,0.3,0.9v0.9C259.6,231.7,261.2,233.5,263.1,234.6z"/>
			<path id="XMLID_1128_" class="st18" d="M263.1,234.6L112,321.9c0,0,0,0.9,0,2c0,1.1-1.6,1.5-3.5,0.4c-2-1.1-3.5-2.5-3.5-4.5
				l-0.2-1.9l153.9-88.9l0.6-0.4c0.2,0.3,0.3,0.6,0.3,0.9v0.9C259.6,231.7,261.2,233.5,263.1,234.6z"/>
			<path id="XMLID_7666_" class="st12" d="M213,380.1l-98.7-57c-1.3-0.7-2.4-1.2-2.9-0.9l0.6-0.4l151.1-87.2c0,0,0.9-0.5,1.8-1
				c1-0.6,3.1-0.2,4.8,0.7l97.9,56.5c2.5,1.4,2.5,3.8,0,5.2l-145.6,84.1C219.5,381.6,215.4,381.6,213,380.1z"/>
			<path id="XMLID_1127_" class="st12" d="M259.4,228.7l-0.6,0.4l-153.9,88.9c0,0-0.1-0.2-0.3-0.4c-0.1-0.1-0.3-0.2-0.5-0.3
				l-1.1-0.6c-0.4-0.2-0.9-0.5-1.4-0.8c-0.6-0.4-1.2-0.3-1.7,0.2c-0.1,0-0.1,0.1-0.2,0.2c-0.2,0.2-0.3,0.4-0.5,0.6
				c-0.2,0.3-0.3,0.6-0.4,0.9c-0.1,0.3-0.2,0.7-0.3,1c-0.1,0.4-0.2,0.8-0.2,1.2c-0.1,0.2-0.1,0.5-0.1,0.7c0,0.2,0,0.4-0.1,0.6
				c0,0.4-0.1,0.9-0.1,1.3v-4.3c0-2.4,2-5.5,4.5-6.9l145.6-84.1c2.5-1.4,6.1-1.7,8-0.6l1.8,1.1l0.1,0c0.1,0.1,0.4,0.3,0.8,0.5
				c0,0,0,0,0,0C259,228.2,259.2,228.4,259.4,228.7z"/>
			<path id="XMLID_1126_" class="st12" d="M213,407.2l-6.1-3.5l-91.4-52.8c0-1.1-0.5-2.3-1.2-3.3c-1-1.5-2.6-2.7-4-3.5
				c-1.1-0.6-2.7-1.3-4.3-1.3c-1.1,0-2.1,0.3-2.8,0.9c-0.6-0.8-1.7-3.9-1.7-7.6H98c0,4.8,1.6,9.6,3.5,10.7l1.7,1
				c1,0.6,1.8,0.6,1.8,0.1V347c0-1,1.6-1,3.5,0.1c1.9,1.1,3.5,2.9,3.5,3.9v0.9c0,0.5,1.3,1.7,3,2.7l88.4,51l9.6,5.5c0,0,0,0,0,0
				c1.2,0.7,2.9,1.1,4.5,1.1v-4C215.8,408.3,214.2,407.9,213,407.2z"/>
			<path id="XMLID_1125_" class="st3" d="M213,407.2l-6.1-3.5l-91.4-52.8c0-1.1-0.5-2.3-1.2-3.3c-1-1.5-2.6-2.7-4-3.5
				c-1.1-0.6-2.7-1.3-4.3-1.3c-1.1,0-2.1,0.3-2.8,0.9c-0.6-0.8-1.7-3.9-1.7-7.6H98c0,4.8,1.6,9.6,3.5,10.7l1.7,1
				c1,0.6,1.8,0.6,1.8,0.1V347c0-1,1.6-1,3.5,0.1c1.9,1.1,3.5,2.9,3.5,3.9v0.9c0,0.5,1.3,1.7,3,2.7l88.4,51l9.6,5.5c0,0,0,0,0,0
				c1.2,0.7,2.9,1.1,4.5,1.1v-4C215.8,408.3,214.2,407.9,213,407.2z"/>
			<path id="XMLID_1124_" class="st12" d="M213,380.2C213,380.2,213,380.1,213,380.2l-6.1-3.5l-70.2-40.5l-22.4-12.9
				c-1.6-0.9-2.9-1.3-3-0.8c0,0,0,0,0,0.1v1c0,1.1-1.6,1.1-3.5,0c-1.9-1.1-2.7-2.4-2.8-3.5v-1.1c0-0.6-0.2-1.2-0.5-1.3
				c-0.1-0.1-0.3-0.2-0.5-0.3c-0.3-0.2-0.7-0.4-1.1-0.6c-0.4-0.2-0.9-0.5-1.4-0.8c-0.6-0.4-1.2-0.3-1.7,0.2c-0.1,0-0.1,0.1-0.2,0.2
				c-0.1,0.1-0.2,0.3-0.3,0.4c-0.1,0.1-0.1,0.1-0.2,0.2c-0.2,0.3-0.3,0.6-0.4,0.9c-0.1,0.3-0.2,0.7-0.3,1c-0.1,0.4-0.2,0.8-0.2,1.2
				c-0.1,0.2-0.1,0.5-0.1,0.7c0,0.2,0,0.4-0.1,0.6c0,0.4-0.1,0.9-0.1,1.3v13.7h3.5v-13.7c0-0.4,0-0.7,0-1.1l0.1-0.9c0,0,0-0.1,0-0.1
				c0.3,2.8,2.9,5.2,5.2,6.5c1,0.6,2.6,1.3,4.2,1.3c1.2,0,2.3-0.4,3.1-1.1l0.3,0.2c0.2,0.1,0.4,0.2,0.6,0.4l88.4,51l9.6,5.5
				c0,0,0,0,0,0c0,0,0,0,0.1,0c1.2,0.7,2.8,1,4.4,1v-4C215.7,381.2,214.2,380.8,213,380.2z"/>
			<path id="XMLID_1123_" class="st3" d="M213,380.2C213,380.2,213,380.1,213,380.2l-6.1-3.5l-70.2-40.5l-22.4-12.9
				c-1.6-0.9-2.9-1.3-3-0.8c0,0,0,0,0,0.1v1c0,1.1-1.6,1.1-3.5,0c-1.9-1.1-2.7-2.4-2.8-3.5v-1.1c0-0.6-0.2-1.2-0.5-1.3
				c-0.1-0.1-0.3-0.2-0.5-0.3c-0.3-0.2-0.7-0.4-1.1-0.6c-0.4-0.2-0.9-0.5-1.4-0.8c-0.6-0.4-1.2-0.3-1.7,0.2c-0.1,0-0.1,0.1-0.2,0.2
				c-0.1,0.1-0.2,0.3-0.3,0.4c-0.1,0.1-0.1,0.1-0.2,0.2c-0.2,0.3-0.3,0.6-0.4,0.9c-0.1,0.3-0.2,0.7-0.3,1c-0.1,0.4-0.2,0.8-0.2,1.2
				c-0.1,0.2-0.1,0.5-0.1,0.7c0,0.2,0,0.4-0.1,0.6c0,0.4-0.1,0.9-0.1,1.3v13.7h3.5v-13.7c0-0.4,0-0.7,0-1.1l0.1-0.9c0,0,0-0.1,0-0.1
				c0.3,2.8,2.9,5.2,5.2,6.5c1,0.6,2.6,1.3,4.2,1.3c1.2,0,2.3-0.4,3.1-1.1l0.3,0.2c0.2,0.1,0.4,0.2,0.6,0.4l88.4,51l9.6,5.5
				c0,0,0,0,0,0c0,0,0,0,0.1,0c1.2,0.7,2.8,1,4.4,1v-4C215.7,381.2,214.2,380.8,213,380.2z"/>
			<path id="XMLID_1122_" class="st12" d="M369.4,293.4v4.1c0,0.9-0.6,1.9-1.8,2.6l-0.1,0l-136.1,78.5l-9.6,5.5v0c0,0,0,0,0,0
				c-1.2,0.7-2.9,1.1-4.5,1.1v-4c1.6,0,3.3-0.3,4.5-1.1l6.1-3.5h0l139.5-80.6C368.9,295.3,369.4,294.4,369.4,293.4z"/>
			<path id="XMLID_1121_" class="st4" d="M369.4,293.4v4.1c0,0.9-0.6,1.9-1.8,2.6l-0.1,0l-136.1,78.5l-9.6,5.5v0c0,0,0,0,0,0
				c-1.2,0.7-2.9,1.1-4.5,1.1v-4c1.6,0,3.3-0.3,4.5-1.1l6.1-3.5h0l139.5-80.6C368.9,295.3,369.4,294.4,369.4,293.4z"/>
			<path id="XMLID_1120_" class="st12" d="M369.4,320.4v4.1c0,0.9-0.6,1.9-1.8,2.6l-0.1,0l-136.1,78.5l-9.6,5.5v0c0,0,0,0,0,0
				c-1.2,0.7-2.9,1.1-4.5,1.1v-4c1.6,0,3.3-0.3,4.5-1.1l6.1-3.5h0l139.5-80.6C368.9,322.3,369.4,321.4,369.4,320.4z"/>
			<path id="XMLID_00000021081216795247707070000001774451636956962467_" class="st4" d="M369.4,320.4v4.1c0,0.9-0.6,1.9-1.8,2.6
				l-0.1,0l-136.1,78.5l-9.6,5.5v0c0,0,0,0,0,0c-1.2,0.7-2.9,1.1-4.5,1.1v-4c1.6,0,3.3-0.3,4.5-1.1l6.1-3.5h0l139.5-80.6
				C368.9,322.3,369.4,321.4,369.4,320.4z"/>
		</g>
	</g>
	<g id="Book_57_">
		<g id="XMLID_1100_">
			<polygon id="XMLID_00000013886570670965182450000010108066458846338945_" class="st19" points="104.8,303.9 222.8,371.1 
				379.7,281.1 261.7,213.8 			"/>
			<polygon id="XMLID_7677_" class="st20" points="104.8,303.9 222.8,371.1 379.7,281.1 261.7,213.8 			"/>
			<path id="XMLID_1111_" class="st0" d="M223.9,367l-114.6-65.6c2.4-6.8,2.2-14.7-0.5-23.8l114.1,65.1
				C222.8,342.7,224.5,348.4,223.9,367z"/>
			<path id="XMLID_00000127016872091878829880000011523099480334106759_" class="st19" d="M218.1,335.3c4.9,2.8,8.8,9.6,8.8,15.2
				v17.7c0,5.6-3.9,7.8-8.8,5.1l-113.3-64.9l0-4.4l112.1,63.9c2.9,1.7,5.3,0.3,5.3-3l-0.1-16.4c0-3.3-2.4-7.4-5.3-9.1l-112-63.9v-5
				L218.1,335.3z"/>
			<path id="XMLID_1109_" class="st7" d="M218.1,335.3c4.9,2.8,8.8,9.6,8.8,15.2v17.7c0,5.6-3.9,7.8-8.8,5.1l-113.3-64.9l0-4.4
				l112.1,63.9c2.9,1.7,5.3,0.3,5.3-3l-0.1-16.4c0-3.3-2.4-7.4-5.3-9.1l-112-63.9v-5L218.1,335.3z"/>
			<path id="XMLID_1108_" class="st19" d="M104.8,270.4l156.9-90.1L375,245.2c4.9,2.8,8.8,9.6,8.8,15.2l0,17.7c0,2.8-1,4.7-2.6,5.7
				l-156.9,90.1c1.6-0.9,2.6-2.9,2.6-5.7l0-17.7c0-5.6-3.9-12.4-8.8-15.2L104.8,270.4z"/>
			<path id="XMLID_1103_" class="st21" d="M104.8,270.4l156.9-90.1L375,245.2c4.9,2.8,8.8,9.6,8.8,15.2l0,17.7c0,2.8-1,4.7-2.6,5.7
				l-156.9,90.1c1.6-0.9,2.6-2.9,2.6-5.7l0-17.7c0-5.6-3.9-12.4-8.8-15.2L104.8,270.4z"/>
			<path id="XMLID_1101_" class="st19" d="M224.4,341.8c1.6,2.7,2.6,5.8,2.6,8.6l0,17.7c0,2.8-1,4.7-2.6,5.7l156.9-90.1
				c1.6-0.9,2.6-2.9,2.6-5.7l0-17.7c0-2.8-1-5.9-2.6-8.6L224.4,341.8z"/>
			<path id="XMLID_7639_" class="st11" d="M224.4,341.8c1.6,2.7,2.6,5.8,2.6,8.6l0,17.7c0,2.8-1,4.7-2.6,5.7l156.9-90.1
				c1.6-0.9,2.6-2.9,2.6-5.7l0-17.7c0-2.8-1-5.9-2.6-8.6L224.4,341.8z"/>
			<g>
				<path class="st9" d="M360.6,263.5c2.9,12.4,2.8,23.1,0,32.2l-7.3,4.2c2.8-9.1,2.9-19.8,0-32.2L360.6,263.5z"/>
				<path class="st9" d="M256.4,323.7c2.9,12.4,2.8,23.1,0,32.2l-7.3,4.2c2.8-9.1,2.9-19.8,0-32.2L256.4,323.7z"/>
			</g>
		</g>
	</g>
	<g id="Book_00000070116784767768137440000006944578969287841696_">
		<path id="XMLID_00000082339366261516978270000015215841410960645300_" d="M198.2,336l3.8-2.2c0,0-2.2-0.7-3.2-0.2
			C197.8,334.1,198.2,336,198.2,336z"/>
		<path id="XMLID_00000035531650851803574840000001304427837306130597_" class="st22" d="M195.5,333.6c0,0,3.1-3.4,6.8,0
			c3.7,3.4,3.9,6.8,5.5,6.8c1.5-0.1,1.5-19.7,1.5-19.7l-14.7,6.1L195.5,333.6z"/>
		<path id="XMLID_00000110435681712815315230000004189830935666880953_" class="st3" d="M195.5,333.6c0,0,3.1-3.4,6.8,0
			c3.7,3.4,3.9,6.8,5.5,6.8c1.5-0.1,1.5-19.7,1.5-19.7l-14.7,6.1L195.5,333.6z"/>
		<path id="XMLID_00000021082803859535898670000009949189122059031986_" class="st22" d="M356.3,238.5l0.2-0.1l-9.3-5.3l-92.1-53.5
			L98.3,270.1c-2.4,1.4-2.9,3.4-1,4.5l3.5,2l94.7,54.7l0.7-0.5L356.3,238.5z"/>
		<path id="XMLID_00000009568507732263566220000004282902053505412495_" class="st4" d="M356.3,238.5l0.2-0.1l-9.3-5.3l-92.1-53.5
			L98.3,270.1c-2.4,1.4-2.9,3.4-1,4.5l3.5,2l94.7,54.7l0.7-0.5L356.3,238.5z"/>
		<path id="XMLID_00000011749663439541113090000011318839320834377091_" class="st5" d="M208.2,307.8l-7.3-1.5l0,21.8
			c4.4,1.9,7.2,3.7,7.7,7.4L208.2,307.8z"/>
		<path id="XMLID_00000165916975470682702490000011616723216529468862_" class="st0" d="M197.6,328.4l-93.8-54.2
			c-1.6-0.9-2.9-3.2-2.9-5.1l0-21.4l94.7,55.2c0,0,1.1,4.1,4.5,5.4c3.4,1.3,0.8,2.6,0.8,2.6l0,17.1
			C197.9,327.7,197.6,328.4,197.6,328.4z"/>
		<path id="XMLID_00000065763166855318103450000001438940659273056157_" class="st22" d="M206.2,306.8c-1-0.6-1.7-0.6-1.7-0.1l0,0.9
			c0,1-1.5,1-3.5-0.1c-1.9-1.1-3.5-2.8-3.5-3.8l0-0.9c0-0.5-1.3-1.7-2.9-2.6l152.6-87.4c0.9,0.5,2.4,1.4,2.4,1.4
			c0.4,0.4,0.6,1,0.6,1.3l0,0.9c0,1,1.5,2.7,3.5,3.8c1.9,1.1,3.5,1.2,3.5,0.1l0-0.9c0-0.5,0.8-0.5,1.7,0.1L206.2,306.8z"/>
		<path id="XMLID_00000111167956433644339140000005477618797388643990_" class="st16" d="M206.2,306.8c-1-0.6-1.7-0.6-1.7-0.1l0,0.9
			c0,1-1.5,1-3.5-0.1c-1.9-1.1-3.5-2.8-3.5-3.8l0-0.9c0-0.5-1.3-1.7-2.9-2.6l152.6-87.4c0.9,0.5,2.4,1.4,2.4,1.4
			c0.4,0.4,0.6,1,0.6,1.3l0,0.9c0,1,1.5,2.7,3.5,3.8c1.9,1.1,3.5,1.2,3.5,0.1l0-0.9c0-0.5,0.8-0.5,1.7,0.1L206.2,306.8z"/>
		<path id="XMLID_00000021831132706698171440000001937716721509415077_" class="st22" d="M349.4,214.1l0.2-0.1l-2.4-1.4L246,154.1
			L98.3,239.4c-2.4,1.4-2.9,3.4-1,4.5l3.5,2l94.7,57L349.4,214.1z"/>
		<path id="XMLID_00000116922976688140406480000017863318340549243553_" class="st4" d="M349.4,214.1l0.2-0.1l-2.4-1.4L246,154.1
			L98.3,239.4c-2.4,1.4-2.9,3.4-1,4.5l3.5,2l94.7,57L349.4,214.1z"/>
		<path id="XMLID_00000137103205101935416870000016965187036680581551_" class="st22" d="M357.1,218.3l-152.5,88l5.3,4.2l152-87.8
			c-0.7-1.6-1.3-2.4-2-2.8L357.1,218.3z"/>
		<path id="XMLID_00000121267047806615155730000000811263102691830185_" class="st4" d="M357.1,218.3l-152.5,88l5.3,4.2l152-87.8
			c-0.7-1.6-1.3-2.4-2-2.8L357.1,218.3z"/>
		<g id="XMLID_00000136370146176581240260000006662877191305317309_">
			<path id="XMLID_00000075869637645249725220000000112468175287717273_" class="st22" d="M361.4,254.7c0.1-0.1,0.2-0.1,0.3-0.2
				c0.1,0,0.1-0.1,0.2-0.2c0.1-0.1,0.2-0.3,0.3-0.4c0.1-0.1,0.1-0.1,0.2-0.2c0.2-0.3,0.3-0.5,0.4-0.9c0.1-0.3,0.2-0.6,0.3-1
				c0.1-0.4,0.2-0.7,0.2-1.2c0.1-0.2,0.1-0.5,0.1-0.7c0-0.2,0-0.4,0.1-0.6c0-0.4,0.1-0.9,0.1-1.3v-17.6c0-2.8-0.6-5.6-1.4-7.7
				l-152,87.8l-0.6,31.9L361.4,254.7L361.4,254.7z"/>
		</g>
		<g>
			<path class="st22" d="M231.1,298.4l18.3-10.6c2.8,14,3.2,19.6,0,31.5l-18.3,10.6C234.3,318,233.9,312.4,231.1,298.4z"/>
			<path class="st7" d="M231.1,298.4l18.3-10.6c1.1,14.4,1.1,20.1,0,31.5l-18.3,10.6C232.2,316.3,232,311.1,231.1,298.4z"/>
			<path class="st22" d="M256.2,283.9l6.8-3.9c2.8,14,3.2,19.6,0,31.5l-6.8,3.9C259.4,303.5,259,297.9,256.2,283.9z"/>
			<path class="st7" d="M256.2,283.9l6.8-3.9c1.1,13.5,0.9,21.4,0,31.5l-6.8,3.9C257.4,305.8,257.3,294,256.2,283.9z"/>
			<path class="st7" d="M339,236.1l6.8-3.9c1.1,13.5,0.9,21.4,0,31.5l-6.8,3.9C340.2,257.9,340.2,246.2,339,236.1z"/>
		</g>
		<g id="XMLID_00000152250400541920348180000013922415753169927099_">
			<g>
				<path id="XMLID_00000142158687644130331700000012714203164536667313_" class="st22" d="M211.4,318.3l-3.4,0
					c0-3.6-1.1-6.7-1.7-7.4c-0.7,0.6-1.7,0.9-2.8,0.9c-1.6,0-3.2-0.7-4.2-1.3c-1.4-0.8-2.9-2-3.9-3.5c-0.1-0.1-0.2-0.2-0.2-0.3
					c-0.6-0.9-1-1.9-1-2.9l-89.8-51.9l-3-1.8l-3.9-2.2c-0.8-0.5-1.2-1.1-1.2-1.8v-4c0,0.8,0.5,1.4,1.2,1.8l0.1,0l10.3,5.9l86.9,50.2
					c1.6,0.9,2.9,2.1,2.9,2.6v0.9c0,0.4,0.3,1,0.8,1.6c0.6,0.8,1.6,1.6,2.7,2.2c1.9,1.1,3.5,1.2,3.5,0.1l0-0.9
					c0-0.5,0.8-0.5,1.7,0.1l1.7,1C209.8,308.8,211.4,313.6,211.4,318.3z"/>
				<path id="XMLID_00000011734706174381525270000006971144790134725532_" class="st3" d="M211.4,318.3l-3.4,0
					c0-3.6-1.1-6.7-1.7-7.4c-0.7,0.6-1.7,0.9-2.8,0.9c-1.6,0-3.2-0.7-4.2-1.3c-1.4-0.8-2.9-2-3.9-3.5c-0.1-0.1-0.2-0.2-0.2-0.3
					c-0.6-0.9-1-1.9-1-2.9l-89.8-51.9l-3-1.8l-3.9-2.2c-0.8-0.5-1.2-1.1-1.2-1.8v-4c0,0.8,0.5,1.4,1.2,1.8l0.1,0l10.3,5.9l86.9,50.2
					c1.6,0.9,2.9,2.1,2.9,2.6v0.9c0,0.4,0.3,1,0.8,1.6c0.6,0.8,1.6,1.6,2.7,2.2c1.9,1.1,3.5,1.2,3.5,0.1l0-0.9
					c0-0.5,0.8-0.5,1.7,0.1l1.7,1C209.8,308.8,211.4,313.6,211.4,318.3z"/>
				<path id="XMLID_00000163777705656607006390000008277572380404120743_" class="st22" d="M208,318.3l0,17.6c0,0.4,0,0.7,0,1.1
					l-0.1,0.9c0,0,0,0.1,0,0.1c-0.3-2.7-2.9-5.1-5.1-6.4c-1-0.6-2.6-1.3-4.2-1.3c-1.2,0-2.3,0.4-3,1.1l-0.3-0.2
					c-0.2-0.1-0.4-0.2-0.6-0.4l-86.9-50.2c0,0-2.3-1.3-5-2.9c-0.5-0.3-1-0.5-1.4-0.8c-1.5-0.9-2.9-1.7-4.2-2.4
					c-0.6-0.4-0.9-1-0.9-1.6l0,1.1l0,2.9c0,0.6,0.3,1.1,0.9,1.5c0,0,0,0,0,0c0.5,0.3,1,0.6,1.5,0.9c0.3,0.2,0.6,0.4,1,0.6
					c0.6,0.3,1.1,0.7,1.7,1c0.4,0.2,0.7,0.4,1,0.6c0.3,0.2,0.5,0.3,0.7,0.4c0.8,0.5,1.3,0.7,1.3,0.7l69,39.8l22,12.7
					c1.6,0.9,2.8,1.2,2.9,0.8c0-0.1,0-0.1,0-0.2l0-0.9c0-1.1,1.5-1.1,3.5,0c1.9,1.1,2.7,2.4,2.7,3.5l0,1.1c0,0.6,0.2,1.1,0.5,1.3
					c0.1,0.1,0.3,0.2,0.5,0.3c0.3,0.2,0.7,0.4,1.1,0.6c0.4,0.2,0.9,0.5,1.3,0.8c0.6,0.4,1.2,0.3,1.7-0.2c0.1,0,0.1-0.1,0.2-0.2
					c0.1-0.1,0.2-0.3,0.3-0.4l0,0c0.1-0.1,0.1-0.1,0.2-0.2c0.2-0.3,0.3-0.5,0.4-0.9c0.1-0.3,0.2-0.6,0.3-1c0.1-0.4,0.2-0.7,0.2-1.2
					c0.1-0.2,0.1-0.5,0.1-0.7c0-0.2,0-0.4,0.1-0.6c0-0.4,0.1-0.9,0.1-1.3l0-17.6L208,318.3z"/>
				<path id="XMLID_00000086678970276053160350000007594352149091592076_" class="st3" d="M208,318.3l0,17.6c0,0.4,0,0.7,0,1.1
					l-0.1,0.9c0,0,0,0.1,0,0.1c-0.3-2.7-2.9-5.1-5.1-6.4c-1-0.6-2.6-1.3-4.2-1.3c-1.2,0-2.3,0.4-3,1.1l-0.3-0.2
					c-0.2-0.1-0.4-0.2-0.6-0.4l-86.9-50.2c0,0-2.3-1.3-5-2.9c-0.5-0.3-1-0.5-1.4-0.8c-1.5-0.9-2.9-1.7-4.2-2.4
					c-0.6-0.4-0.9-1-0.9-1.6l0,1.1l0,2.9c0,0.6,0.3,1.1,0.9,1.5c0,0,0,0,0,0c0.5,0.3,1,0.6,1.5,0.9c0.3,0.2,0.6,0.4,1,0.6
					c0.6,0.3,1.1,0.7,1.7,1c0.4,0.2,0.7,0.4,1,0.6c0.3,0.2,0.5,0.3,0.7,0.4c0.8,0.5,1.3,0.7,1.3,0.7l69,39.8l22,12.7
					c1.6,0.9,2.8,1.2,2.9,0.8c0-0.1,0-0.1,0-0.2l0-0.9c0-1.1,1.5-1.1,3.5,0c1.9,1.1,2.7,2.4,2.7,3.5l0,1.1c0,0.6,0.2,1.1,0.5,1.3
					c0.1,0.1,0.3,0.2,0.5,0.3c0.3,0.2,0.7,0.4,1.1,0.6c0.4,0.2,0.9,0.5,1.3,0.8c0.6,0.4,1.2,0.3,1.7-0.2c0.1,0,0.1-0.1,0.2-0.2
					c0.1-0.1,0.2-0.3,0.3-0.4l0,0c0.1-0.1,0.1-0.1,0.2-0.2c0.2-0.3,0.3-0.5,0.4-0.9c0.1-0.3,0.2-0.6,0.3-1c0.1-0.4,0.2-0.7,0.2-1.2
					c0.1-0.2,0.1-0.5,0.1-0.7c0-0.2,0-0.4,0.1-0.6c0-0.4,0.1-0.9,0.1-1.3l0-17.6L208,318.3z"/>
			</g>
		</g>
	</g>
</g>
<g id="Open_Book">
	<g id="Book_40_">
		<g id="XMLID_7318_">
			<polygon id="XMLID_7362_" class="st23" points="337.1,444.9 440.9,384.9 374.6,346.7 270.8,406.6 			"/>
			<polygon id="XMLID_7360_" class="st14" points="337.1,444.9 440.9,384.9 374.6,346.7 270.8,406.6 			"/>
			<g id="XMLID_7347_">
				<path id="XMLID_7359_" class="st0" d="M387.7,414.1l0-1.9c0-2.3,4.1-8.8,9.2-11.8l41.2-23.8v8.3L387.7,414.1z"/>
				<path id="XMLID_7356_" class="st10" d="M438,376.7l-41.2,23.8c-5.1,2.9-9.2,9.5-9.2,11.7l0,1.9l-63.4-36.6l0,0l0-1.9
					c0-2.3,4.1-8.8,9.2-11.8l41.2-23.8l0,0L438,376.7z"/>
				<path id="XMLID_7354_" class="st10" d="M438,376.7l-41.2,23.8c-5.1,2.9-9.2,9.5-9.2,11.7l0,1.9l-63.4-36.6l0,0l0-1.9
					c0-2.3,4.1-8.8,9.2-11.8l41.2-23.8L438,376.7z"/>
				<path id="XMLID_7353_" class="st24" d="M387.6,412.4l-3.9-2.3l-5.2-3c2.9-0.3,5,0.1,6.4,0.9
					C386.8,409.1,387.5,410.9,387.6,412.4z"/>
				<path id="XMLID_7349_" class="st1" d="M387.6,412.4l-3.9-2.3l-5.2-3c2.9-0.3,5,0.1,6.4,0.9C386.8,409.1,387.5,410.9,387.6,412.4
					z"/>
			</g>
			<polygon id="XMLID_7332_" class="st23" points="337.1,446.6 337.1,444.9 270.8,406.6 270.8,408.3 			"/>
			<polygon id="XMLID_7324_" class="st3" points="337.1,446.6 337.1,444.9 270.8,406.6 270.8,408.3 			"/>
			<polygon id="XMLID_7319_" class="st23" points="337.1,446.6 440.9,386.7 440.9,385 337.1,444.9 			"/>
		</g>
		<path id="XMLID_7315_" class="st0" d="M387.6,412.4c0-2.3-4.2-4.2-9.3-1.3l-41.2,23.6v8.5l50.5-29.2
			C387.7,414.1,387.7,414.7,387.6,412.4z"/>
		<polygon id="XMLID_7313_" class="st17" points="337.1,443.3 337.1,434.7 273.7,398.1 273.7,406.7 		"/>
		<path id="XMLID_7312_" class="st10" d="M378.3,411.1l-1.8,1.1l-39.4,22.6l-56-32.4l-7.4-4.3l41.2-23.6c3.7-2.1,5.8-2,7.3-1.1l0,0
			l64.3,37.1C384.2,409.2,381.5,409.5,378.3,411.1z"/>
		<g id="XMLID_6775_">
			<g>
				<polygon id="XMLID_00000008857757946194083060000002374828702927690922_" class="st1" points="334.2,428.3 369.3,408.1 
					371.2,407 372.5,407.8 370.7,408.8 335.6,429.1 				"/>
				<polygon id="XMLID_00000127763893268637086420000012111183181704604840_" class="st1" points="331,426.4 366.1,406.2 368,405.1 
					369.3,405.9 367.5,407 332.3,427.2 				"/>
				<polygon id="XMLID_00000054263451887854267020000017572703565269364123_" class="st1" points="327.8,424.6 362.9,404.3 
					364.7,403.3 366.1,404 364.2,405.1 329.1,425.3 				"/>
				<polygon id="XMLID_00000030460652155628254670000014380107664223785124_" class="st1" points="324.5,422.7 359.6,402.4 
					361.5,401.4 362.8,402.2 361,403.2 325.9,423.5 				"/>
				<polygon id="XMLID_00000133495574364237508530000007389340922857205415_" class="st1" points="321.3,420.8 356.4,400.6 
					358.2,399.5 359.6,400.3 357.7,401.3 322.6,421.6 				"/>
				<polygon id="XMLID_00000096753009067804801800000008765403158409295540_" class="st1" points="318,419 353.1,398.7 355,397.6 
					356.3,398.4 354.5,399.5 319.4,419.7 				"/>
				<polygon id="XMLID_00000073685036906369270360000016689535931055645854_" class="st1" points="314.8,417.1 349.9,396.8 
					351.7,395.8 353.1,396.6 351.2,397.6 316.1,417.9 				"/>
				<polygon id="XMLID_00000150065186648680831480000008042728704274780331_" class="st1" points="311.5,415.2 346.7,395 
					348.5,393.9 349.9,394.7 348,395.7 312.9,416 				"/>
				<polygon id="XMLID_00000106149363401940330310000003673525694965401487_" class="st1" points="308.3,413.3 343.4,393.1 
					345.3,392 346.6,392.8 344.8,393.9 309.7,414.1 				"/>
				<polygon id="XMLID_00000027585792784982100260000004665401416205133734_" class="st1" points="305.1,411.5 340.2,391.2 
					342,390.2 343.4,390.9 341.5,392 306.4,412.2 				"/>
				<polygon id="XMLID_00000143584645425219961780000016508921482415008910_" class="st1" points="301.8,409.6 336.9,389.3 
					338.8,388.3 340.1,389.1 338.3,390.1 303.2,410.4 				"/>
				<polygon id="XMLID_00000111913920162613735320000018190060550269856384_" class="st1" points="298.6,407.7 333.7,387.5 
					335.5,386.4 336.9,387.2 335,388.2 299.9,408.5 				"/>
				<polygon id="XMLID_00000014607707441800072420000014429091744037684103_" class="st1" points="295.3,405.9 330.4,385.6 
					332.3,384.5 333.6,385.3 331.8,386.4 296.7,406.6 				"/>
				<polygon id="XMLID_00000098199394646328931110000006623017472262870424_" class="st1" points="292.1,404 327.2,383.7 329,382.7 
					330.4,383.4 328.6,384.5 293.4,404.8 				"/>
				<polygon id="XMLID_00000078044933305635713780000017071259382113564288_" class="st1" points="288.9,402.1 324,381.9 
					325.8,380.8 327.2,381.6 325.3,382.6 290.2,402.9 				"/>
				<polygon id="XMLID_00000164506059436339516540000008653958972109474475_" class="st1" points="285.6,400.2 320.7,380 
					322.6,378.9 323.9,379.7 322.1,380.8 287,401 				"/>
				<polygon id="XMLID_00000078017429887202580840000012678747615509324732_" class="st1" points="282.4,398.4 317.5,378.1 
					319.3,377.1 320.7,377.8 318.8,378.9 283.7,399.1 				"/>
			</g>
		</g>
		<path id="XMLID_6774_" class="st18" d="M378.7,408.9c-0.8,0.1-2.4,0.6-3.3,0.8c-3.7,0.8-10.4,3.9-16.7,7
			c-8.5,4.2-16.4,8.8-16.4,8.8l-58-33.5l30.6-17.5c1.5-0.9,2.7-1.3,3.8-1.6c1.1,0.2,2,0.5,2.6,0.9l0.4-0.7c0.2,0.1,0.3,0.1,0.5,0.2
			l64.3,37.1C382.9,408.4,381.2,408.7,378.7,408.9z"/>
		<polygon id="XMLID_6773_" class="st25" points="337.1,436.6 343.4,433.4 337.1,437.2 330.8,433.6 		"/>
		<polygon id="XMLID_6772_" class="st25" points="337.1,440.9 348.7,434.2 337.1,440.4 324.2,433.4 		"/>
		<polygon id="XMLID_6771_" class="st25" points="273.7,400 283.4,405.9 273.7,400.9 		"/>
		<polygon id="XMLID_6770_" class="st25" points="273.7,403.3 288.1,412.2 273.7,404.1 		"/>
		<path id="XMLID_6768_" class="st0" d="M378.5,407.1c-0.8,0.1-1.6,0.2-2.5,0.4c-3.7,0.8-10.4,3.9-16.7,7
			c-8.5,4.2-16.4,8.8-16.4,8.8l-63.5-36.6c0,0,24.1-13.9,33.6-15.7c4.4-0.9,7.2-0.3,8.8,0.7l0,0l63,36.4
			C383.5,407.2,381.4,406.8,378.5,407.1z"/>
		<g id="XMLID_6327_">
			<path class="st1" d="M377.7,403.9c-1.4-0.8-3.5-1.3-6.4-0.9c-0.8,0.1-1.6,0.2-2.5,0.4c-2.5,0.6-6.3,2.1-10.4,4
				c-2.1,1-4.2,2-6.3,3.1c-5.1,2.5-10,5.2-13.1,6.9l1.4,0.8c3.1-1.7,8-4.4,13.1-6.9c2.1-1.1,4.3-2.1,6.3-3.1c4.1-1.9,7.9-3.4,10.4-4
				c0.9-0.2,1.7-0.3,2.5-0.4c2.9-0.3,5,0.1,6.4,0.9L377.7,403.9z"/>
			<path class="st1" d="M374.4,402c-1.4-0.8-3.5-1.3-6.4-0.9c-0.8,0.1-1.6,0.2-2.5,0.4c-2.5,0.6-6.3,2.1-10.4,4
				c-2.1,1-4.2,2-6.3,3.1c-5.1,2.6-10,5.2-13.1,6.9l1.4,0.8c3.1-1.7,8-4.4,13.1-6.9c2.1-1.1,4.3-2.1,6.3-3.1c4.1-1.9,7.9-3.4,10.4-4
				c0.9-0.2,1.7-0.3,2.5-0.4c2.9-0.3,5,0.1,6.4,0.9L374.4,402z"/>
			<path class="st1" d="M371.2,400.1c-1.4-0.8-3.5-1.3-6.4-0.9c-0.8,0.1-1.6,0.2-2.5,0.4c-2.5,0.6-6.3,2.1-10.4,4
				c-2.1,1-4.2,2-6.3,3.1c-5.1,2.6-10,5.2-13.1,6.9l1.4,0.8c3.1-1.7,8-4.4,13.1-6.9c2.1-1.1,4.3-2.1,6.3-3.1c4.1-1.9,7.9-3.4,10.4-4
				c0.9-0.2,1.7-0.3,2.5-0.4c2.9-0.3,5,0.1,6.4,0.9L371.2,400.1z"/>
			<path class="st1" d="M367.9,398.2c-1.4-0.8-3.5-1.3-6.4-0.9c-0.8,0.1-1.6,0.2-2.5,0.4c-2.5,0.6-6.3,2.1-10.4,4
				c-2.1,1-4.2,2-6.3,3.1c-5.1,2.5-10,5.2-13.1,6.9l1.4,0.8c3.1-1.7,8-4.4,13.1-6.9c2.1-1.1,4.3-2.1,6.3-3.1c4.1-1.9,7.9-3.4,10.4-4
				c0.9-0.2,1.7-0.3,2.5-0.4c2.9-0.3,5,0.1,6.4,0.9L367.9,398.2z"/>
			<path class="st1" d="M364.7,396.4c-1.4-0.8-3.5-1.3-6.4-0.9c-0.8,0.1-1.6,0.2-2.5,0.4c-2.5,0.6-6.3,2.1-10.4,4
				c-2.1,1-4.2,2-6.3,3.1c-5.1,2.5-10,5.2-13.1,6.9l1.4,0.8c3.1-1.7,8-4.4,13.1-6.9c2.1-1.1,4.3-2.1,6.3-3.1c4.1-1.9,7.9-3.4,10.4-4
				c0.9-0.2,1.7-0.3,2.5-0.4c2.9-0.3,5,0.1,6.4,0.9L364.7,396.4z"/>
			<path class="st1" d="M361.5,394.5c-1.4-0.8-3.5-1.3-6.4-0.9c-0.8,0.1-1.6,0.2-2.5,0.4c-2.5,0.6-6.3,2.1-10.4,4
				c-2.1,1-4.2,2-6.3,3.1c-5.1,2.6-10,5.2-13.1,6.9l1.4,0.8c3.1-1.7,8-4.4,13.1-6.9c2.1-1.1,4.3-2.1,6.3-3.1c4.1-1.9,7.9-3.4,10.4-4
				c0.9-0.2,1.7-0.3,2.5-0.4c2.9-0.3,5,0.1,6.4,0.9L361.5,394.5z"/>
			<path class="st1" d="M358.2,392.6c-1.4-0.8-3.5-1.3-6.4-0.9c-0.8,0.1-1.6,0.2-2.5,0.4c-2.5,0.6-6.3,2.1-10.4,4
				c-2.1,1-4.2,2-6.3,3.1c-5.1,2.5-10,5.2-13.1,6.9l1.4,0.8c3.1-1.7,8-4.4,13.1-6.9c2.1-1.1,4.3-2.1,6.3-3.1c4.1-1.9,7.9-3.4,10.4-4
				c0.9-0.2,1.7-0.3,2.5-0.4c2.9-0.3,5,0.1,6.4,0.9L358.2,392.6z"/>
			<path class="st1" d="M355,390.7c-1.4-0.8-3.5-1.3-6.4-0.9c-0.8,0.1-1.6,0.2-2.5,0.4c-2.5,0.6-6.3,2.1-10.4,4
				c-2.1,1-4.2,2-6.3,3.1c-5.1,2.5-10,5.2-13.1,6.9l1.4,0.8c3.1-1.7,8-4.4,13.1-6.9c2.1-1.1,4.3-2.1,6.3-3.1c4.1-1.9,7.9-3.4,10.4-4
				c0.9-0.2,1.7-0.3,2.5-0.4c2.9-0.3,5,0.1,6.4,0.9L355,390.7z"/>
			<g id="XMLID_6764_">
				<g>
					<path id="XMLID_00000084522724635321561610000003419943990560772760_" class="st1" d="M346.7,388.8c-0.8,0.1-1.6,0.2-2.5,0.4
						c-3.7,0.8-10.4,3.9-16.7,7c-5.1,2.5-10,5.2-13.1,6.9l-1.4-0.8c3.1-1.7,8-4.4,13.1-6.9c6.3-3.2,12.9-6.2,16.7-7
						c0.9-0.2,1.7-0.3,2.5-0.4c2.9-0.3,5,0.1,6.4,0.9l1.4,0.8C351.7,388.9,349.7,388.4,346.7,388.8z"/>
				</g>
			</g>
			<g id="XMLID_6760_">
				<g>
					<path id="XMLID_00000175296295554309245470000007823873074193317039_" class="st1" d="M343.5,386.9c-0.8,0.1-1.6,0.2-2.5,0.4
						c-3.7,0.8-10.4,3.9-16.7,7c-5.1,2.6-10,5.2-13.1,6.9l-1.4-0.8c3.1-1.7,8-4.4,13.1-6.9c6.3-3.2,12.9-6.2,16.7-7
						c0.9-0.2,1.7-0.3,2.5-0.4c2.9-0.3,5,0.1,6.4,0.9l1.4,0.8C348.5,387,346.4,386.6,343.5,386.9z"/>
				</g>
			</g>
			<g id="XMLID_6756_">
				<g>
					<path id="XMLID_00000098918306686825602290000003139213912981411483_" class="st1" d="M340.2,385c-0.8,0.1-1.6,0.2-2.5,0.4
						c-3.7,0.8-10.4,3.9-16.7,7c-5.1,2.6-10,5.2-13.1,6.9l-1.4-0.8c3.1-1.7,8-4.4,13.1-6.9c6.3-3.2,12.9-6.2,16.7-7
						c0.9-0.2,1.7-0.3,2.5-0.4c2.9-0.3,5,0.1,6.4,0.9l1.4,0.8C345.2,385.1,343.2,384.7,340.2,385z"/>
				</g>
			</g>
			<g id="XMLID_00000181070700276713508340000002886305725912425634_">
				<g>
					<path id="XMLID_00000061452590323504223540000008616303370525415824_" class="st1" d="M337,383.1c-0.8,0.1-1.6,0.2-2.5,0.4
						c-3.7,0.8-10.4,3.9-16.7,7c-5.1,2.5-10,5.2-13.1,6.9l-1.4-0.8c3.1-1.7,8-4.4,13.1-6.9c6.3-3.2,12.9-6.2,16.7-7
						c0.9-0.2,1.7-0.3,2.5-0.4c2.9-0.3,5,0.1,6.4,0.9l1.4,0.8C342,383.3,339.9,382.8,337,383.1z"/>
				</g>
			</g>
			<g id="XMLID_00000133505516188173814810000013197967897914102442_">
				<g>
					<path id="XMLID_00000028297563176214095960000002868177611840462015_" class="st1" d="M333.8,381.3c-0.8,0.1-1.6,0.2-2.5,0.4
						c-3.7,0.8-10.4,3.9-16.7,7c-5.1,2.5-10,5.2-13.1,6.9l-1.4-0.8c3.1-1.7,8-4.4,13.1-6.9c6.3-3.2,12.9-6.2,16.7-7
						c0.9-0.2,1.7-0.3,2.5-0.4c2.9-0.3,5,0.1,6.4,0.9l1.4,0.8C338.7,381.4,336.7,380.9,333.8,381.3z"/>
				</g>
			</g>
			<g id="XMLID_00000109727101124323559800000008525129812759768728_">
				<g>
					<path id="XMLID_00000164471581468529882360000018337725800255069113_" class="st1" d="M330.5,379.4c-0.8,0.1-1.6,0.2-2.5,0.4
						c-3.7,0.8-10.4,3.9-16.7,7c-5.1,2.6-10,5.2-13.1,6.9l-1.4-0.8c3.1-1.7,8-4.4,13.1-6.9c6.3-3.2,12.9-6.2,16.7-7
						c0.9-0.2,1.7-0.3,2.5-0.4c2.9-0.3,5,0.1,6.4,0.9l1.4,0.8C335.5,379.5,333.4,379.1,330.5,379.4z"/>
				</g>
			</g>
			<g id="XMLID_6336_">
				<g>
					<path id="XMLID_00000107570228059066905260000014883447297139324823_" class="st1" d="M327.3,377.5c-0.8,0.1-1.6,0.2-2.5,0.4
						c-3.7,0.8-10.4,3.9-16.7,7c-5.1,2.6-10,5.2-13.1,6.9l-1.4-0.8c3.1-1.7,8-4.4,13.1-6.9c6.3-3.2,12.9-6.2,16.7-7
						c0.9-0.2,1.7-0.3,2.5-0.4c2.9-0.3,5,0.1,6.4,0.9l1.4,0.8C332.2,377.6,330.2,377.2,327.3,377.5z"/>
				</g>
			</g>
			<g id="XMLID_6332_">
				<g>
					<path id="XMLID_00000071529922490599435280000010900844719625837450_" class="st1" d="M324,375.6c-0.8,0.1-1.6,0.2-2.5,0.4
						c-3.7,0.8-10.4,3.9-16.7,7c-5.1,2.5-10,5.2-13.1,6.9l-1.4-0.8c3.1-1.7,8-4.4,13.1-6.9c6.3-3.2,12.9-6.2,16.7-7
						c0.9-0.2,1.7-0.3,2.5-0.4c2.9-0.3,5,0.1,6.4,0.9l1.4,0.8C329,375.8,326.9,375.3,324,375.6z"/>
				</g>
			</g>
			<g id="XMLID_6328_">
				<g>
					<path id="XMLID_00000115486168666307800410000012808332144382495911_" class="st1" d="M320.8,373.8c-0.8,0.1-1.6,0.2-2.5,0.4
						c-3.7,0.8-10.4,3.9-16.7,7c-5.1,2.5-10,5.2-13.1,6.9l-1.4-0.8c3.1-1.7,8-4.4,13.1-6.9c6.3-3.2,12.9-6.2,16.7-7
						c0.9-0.2,1.7-0.3,2.5-0.4c2.9-0.3,5,0.1,6.4,0.9l1.4,0.8C325.7,373.9,323.7,373.4,320.8,373.8z"/>
				</g>
			</g>
		</g>
		<g id="XMLID_6289_">
			<g>
				<path id="XMLID_00000103223091856879777310000000242896350652605865_" class="st1" d="M390.9,397.1c-1.9,1.1-3.7,2.7-5.1,4.4
					l-1.3-0.8c1.5-1.7,3.2-3.3,5.1-4.4l37-21.3l1.3,0.8L390.9,397.1z"/>
				<path id="XMLID_00000122719934809275174460000003415072065588729264_" class="st1" d="M390.9,397.1c-1.9,1.1-3.7,2.7-5.1,4.4
					l-1.3-0.8c1.5-1.7,3.2-3.3,5.1-4.4l37-21.3l1.3,0.8L390.9,397.1z"/>
				<path id="XMLID_00000062153929170317586810000006811256952039049661_" class="st1" d="M387.6,395.2c-1.9,1.1-3.7,2.7-5.1,4.4
					l-1.3-0.8c1.5-1.7,3.2-3.3,5.1-4.4l37-21.3l1.3,0.8L387.6,395.2z"/>
				<path id="XMLID_00000165928725862744708920000008795214797065266603_" class="st1" d="M384.4,393.3c-1.9,1.1-3.7,2.7-5.1,4.4
					l-1.3-0.8c1.5-1.7,3.2-3.3,5.1-4.4l37-21.3l1.3,0.8L384.4,393.3z"/>
				<path id="XMLID_00000118393643594589257170000002015842377198561975_" class="st1" d="M381.1,391.5c-1.9,1.1-3.7,2.7-5.1,4.4
					l-1.3-0.8c1.5-1.7,3.2-3.3,5.1-4.4l37-21.3l1.3,0.8L381.1,391.5z"/>
				<path id="XMLID_00000009579359977021850080000008292320198779244990_" class="st1" d="M377.9,389.6c-1.9,1.1-3.7,2.7-5.1,4.4
					l-1.3-0.8c1.5-1.7,3.2-3.3,5.1-4.4l37-21.3l1.3,0.8L377.9,389.6z"/>
				<path id="XMLID_00000101807801318977686020000003139831316478959754_" class="st1" d="M374.7,387.7c-1.9,1.1-3.7,2.7-5.1,4.4
					l-1.3-0.8c1.5-1.7,3.2-3.3,5.1-4.4l37-21.3l1.3,0.8L374.7,387.7z"/>
				<path id="XMLID_00000003801936201668430310000012076374039414208154_" class="st1" d="M371.4,385.9c-1.9,1.1-3.7,2.7-5.1,4.4
					l-1.3-0.8c1.5-1.7,3.2-3.3,5.1-4.4l37-21.3l1.3,0.8L371.4,385.9z"/>
				<path id="XMLID_00000082351793741164848400000005549118000884533139_" class="st1" d="M368.2,384c-1.9,1.1-3.7,2.7-5.1,4.4
					l-1.3-0.8c1.5-1.7,3.2-3.3,5.1-4.4l37-21.3l1.3,0.8L368.2,384z"/>
				<path id="XMLID_00000108303779234065475180000014241459420164123820_" class="st1" d="M364.9,382.1c-1.9,1.1-3.7,2.7-5.1,4.4
					l-1.3-0.8c1.5-1.7,3.2-3.3,5.1-4.4l37-21.3l1.3,0.8L364.9,382.1z"/>
				<path id="XMLID_00000013177312660413750490000002151229413419835553_" class="st1" d="M361.7,380.2c-1.9,1.1-3.7,2.7-5.1,4.4
					l-1.3-0.8c1.5-1.7,3.2-3.3,5.1-4.4l37-21.3l1.3,0.8L361.7,380.2z"/>
				<path id="XMLID_00000066479686972701497170000016035846839691016838_" class="st1" d="M358.4,378.4c-1.9,1.1-3.7,2.7-5.1,4.4
					L352,382c1.5-1.7,3.2-3.3,5.1-4.4l37-21.3l1.3,0.8L358.4,378.4z"/>
				<path id="XMLID_00000032624843963930926480000004738680163305806001_" class="st1" d="M355.2,376.5c-1.9,1.1-3.7,2.7-5.1,4.4
					l-1.3-0.8c1.5-1.7,3.2-3.3,5.1-4.4l37-21.3l1.3,0.8L355.2,376.5z"/>
				<path id="XMLID_00000066510709915447251050000009615562948917674648_" class="st1" d="M351.9,374.6c-1.9,1.1-3.7,2.7-5.1,4.4
					l-1.3-0.8c1.5-1.7,3.2-3.3,5.1-4.4l37-21.3l1.3,0.8L351.9,374.6z"/>
				<path id="XMLID_00000094588106235756454180000010292125099133790141_" class="st1" d="M348.7,372.7c-1.9,1.1-3.7,2.7-5.1,4.4
					l-1.3-0.8c1.5-1.7,3.2-3.3,5.1-4.4l37-21.3l1.3,0.8L348.7,372.7z"/>
				<path id="XMLID_00000015347376585286376350000000344610724545716098_" class="st1" d="M345.5,370.9c-1.9,1.1-3.7,2.7-5.1,4.4
					l-1.3-0.8c1.5-1.7,3.2-3.3,5.1-4.4l37-21.3l1.3,0.8L345.5,370.9z"/>
				<path id="XMLID_00000016796813218003659020000017181384976491391927_" class="st1" d="M342.2,369c-1.9,1.1-3.7,2.7-5.1,4.4
					l-1.3-0.8c1.5-1.7,3.2-3.3,5.1-4.4l37-21.3l1.3,0.8L342.2,369z"/>
				<path id="XMLID_00000163768329619341470830000004545334644086706082_" class="st1" d="M339,367.1c-1.9,1.1-3.7,2.7-5.1,4.4
					l-1.3-0.8c1.5-1.7,3.2-3.3,5.1-4.4l37-21.3l1.3,0.8L339,367.1z"/>
			</g>
		</g>
		<polygon id="XMLID_6288_" class="st25" points="429.4,384 438,379.4 438,378.7 		"/>
		<polygon id="XMLID_6287_" class="st25" points="438,382 423.6,390 438,381.4 		"/>
		<path id="XMLID_6285_" class="st26" d="M289.3,381.3c7.8-4.1,18.2-9.2,23.7-10.3c4.4-0.9,7.2-0.3,8.8,0.7l0,0l63,36.4
			c-1.4-0.8-3.5-1.3-6.4-0.9c0,0-31.2-19-51.3-25.5C307,375.1,289.3,381.3,289.3,381.3z"/>
	</g>
</g>
<g id="Pen">
	<g id="Pen_00000111886665296732151450000014267943032604652677_">
		<g id="Pen_00000105400892288752003650000002648803007498191277_">
			<g id="XMLID_00000063597675853983999040000015131422837854972351_">
				<path id="XMLID_00000180335036853281694880000016091482411966879132_" class="st23" d="M141.5,399.6c0.1,0,0.2,0,0.3,0.1
					l-0.5-0.3c0,0-0.1,0-0.1,0l0,0c0,0-0.1,0-0.1,0l0,0c0,0-0.1,0-0.1,0l-0.1,0c0,0-0.1,0-0.1,0h0c-0.3,0-0.7,0.1-1.1,0.3
					c-1.3,0.8-2.4,2.6-2.4,4.1c0,0.2,0,0.4,0.1,0.6c0,0,0,0.1,0,0.1c0,0,0,0,0,0.1c0,0,0,0.1,0,0.1c0.1,0.1,0.1,0.3,0.2,0.4
					c0,0,0.1,0.2,0.4,0.3l0.6,0.3c-0.1-0.1-0.2-0.1-0.3-0.2c0.4,0.1,0.9,0,1.4-0.3c1.3-0.8,2.4-2.6,2.4-4.1
					C142,400.3,141.8,399.9,141.5,399.6z"/>
				<path id="XMLID_00000074416405520110001840000011012032748539879337_" class="st24" d="M196.8,431.4l-3.3,5.8l-0.6-0.3
					l-54.4-31.4c-0.1-0.1-0.2-0.1-0.3-0.2c-0.3-0.3-0.4-0.7-0.4-1.3c0-1.5,1.1-3.4,2.4-4.1c0.4-0.2,0.7-0.3,1.1-0.3
					c0.1,0,0.2,0,0.3,0c0.1,0,0.2,0,0.3,0.1c0,0,0,0,0,0l0,0c0,0,0,0,0,0L196.8,431.4z"/>
				<path id="XMLID_00000176742697923576844300000002813761878424158654_" class="st23" d="M195.1,431.6c1.3-0.8,2.4-0.1,2.4,1.4
					c0,1.5-1.1,3.4-2.4,4.1c-1.3,0.8-2.4,0.1-2.4-1.4C192.7,434.2,193.8,432.4,195.1,431.6z"/>
			</g>
			<path id="XMLID_00000111161653688634070910000008446092992296612755_" class="st1" d="M200.2,435.1
				C200.2,435.1,200.2,435.1,200.2,435.1l-3.1-3.4c0,0,0,0,0,0l0,0c0,0,0,0-0.1-0.1l0,0l0,0c-0.4-0.4-1.1-0.5-1.9,0
				c-1.3,0.8-2.4,2.6-2.4,4.1c0,0.9,0.4,1.5,0.9,1.6l0,0l0,0c0.1,0,0.1,0,0.2,0l0,0c0,0,0,0,0,0l4.4,1c0.2,0,0.5,0,0.8-0.2
				c0.8-0.4,1.4-1.5,1.4-2.3C200.4,435.5,200.3,435.3,200.2,435.1z"/>
			<g id="XMLID_00000053536055119083983850000016271779024195751613_">
				<path id="XMLID_00000111171913388705310950000018303907810866742434_" class="st5" d="M155.9,410.3
					C155.9,410.3,155.9,410.3,155.9,410.3L155.9,410.3c-0.2-0.1-0.4-0.1-0.6,0c-0.5,0.3-0.8,0.9-0.8,1.5c0,0.2,0.1,0.4,0.2,0.5
					c0,0,0,0,0,0l0.1,0.1l41.6,24l2.4-1.4L155.9,410.3z"/>
				<path id="XMLID_00000029036844394031167470000001890870157373240462_" class="st15" d="M192.9,434.5l3.4,1.9l2.4-1.4l-4.5-2.6
					C193.6,433,193.2,433.7,192.9,434.5z"/>
			</g>
			<g id="XMLID_00000047767779083804182730000010506069770104689851_">
				<g id="XMLID_00000151530302304184957840000008769731261152323735_">
					<path id="XMLID_00000080911644998965108240000009191635430043743916_" class="st23" d="M201.4,436.7L201.4,436.7L201.4,436.7
						l-2.7-3c0,0,0-0.1-0.1-0.1c-0.3-0.3-0.8-0.3-1.4,0c-0.9,0.5-1.7,1.8-1.7,2.9c0,0.6,0.2,1,0.6,1.2c0,0,0,0,0,0l0.1,0l4,0.9l0,0
						c0.1,0,0.3,0,0.4-0.1c0.4-0.2,0.8-0.8,0.8-1.3C201.6,437,201.5,436.8,201.4,436.7z"/>
					<path id="XMLID_00000172436993918124260490000012740486765544519346_" class="st18" d="M201.4,436.7L201.4,436.7L201.4,436.7
						l-2.7-3c0,0,0-0.1-0.1-0.1c-0.3-0.3-0.8-0.3-1.4,0c-0.9,0.5-1.7,1.8-1.7,2.9c0,0.6,0.2,1,0.6,1.2c0,0,0,0,0,0l0.1,0l4,0.9l0,0
						c0.1,0,0.3,0,0.4-0.1c0.4-0.2,0.8-0.8,0.8-1.3C201.6,437,201.5,436.8,201.4,436.7z"/>
				</g>
				<g id="XMLID_00000173841303689354854150000009755693807680998052_">
					<path id="XMLID_00000079466737678653911840000015501878705159846041_" class="st23" d="M201.6,437.1c0,0.5-0.3,1.1-0.8,1.3
						c-0.2,0.1-0.3,0.1-0.4,0.1l0,0l-2-0.4c-0.3-0.1-0.5-0.4-0.5-0.9c0-0.8,0.5-1.7,1.2-2.1c0.4-0.2,0.8-0.2,1,0l0.1,0.1l1.4,1.5
						l0,0C201.5,436.8,201.6,437,201.6,437.1z"/>
					<path id="XMLID_00000024701995630258094660000005588377394591338153_" class="st18" d="M200.8,436.7c0.4-0.2,0.8,0,0.8,0.4
						c0,0.5-0.3,1.1-0.8,1.3c-0.4,0.2-0.8,0-0.8-0.4C200,437.5,200.4,437,200.8,436.7z"/>
				</g>
			</g>
			<g id="XMLID_00000028291700860270950040000003593677662960424876_">
				<path id="XMLID_00000084501893066187839710000008892699584725653432_" class="st10" d="M146.9,405.1c-0.2-0.1-0.4-0.1-0.6,0.1
					c-0.5,0.3-0.8,0.9-0.8,1.5c0,0.3,0.1,0.5,0.2,0.5l0,0l8.9,5.1c-0.1-0.1-0.2-0.3-0.2-0.5c0-0.5,0.4-1.2,0.8-1.5
					c0.2-0.1,0.4-0.1,0.6-0.1L146.9,405.1z"/>
				<path id="XMLID_00000098214477568299218300000011890729790845791381_" class="st0" d="M147.2,405.7c0,0.5-0.4,1.2-0.8,1.5
					c-0.2,0.1-0.4,0.1-0.6,0.1c-0.2-0.1-0.3-0.3-0.3-0.5c0-0.5,0.4-1.2,0.8-1.5c0.2-0.1,0.4-0.1,0.6-0.1
					C147.1,405.2,147.2,405.4,147.2,405.7z"/>
			</g>
			<path id="XMLID_00000007422198126694258580000006065735135056977317_" class="st23" d="M145.3,402.1L145.3,402.1L145.3,402.1
				C145.3,402,145.2,402,145.3,402.1l-3.6-2.1c0,0-0.1,0-0.1,0l0,0l0,0c-0.4-0.2-0.9-0.1-1.4,0.2c-1.2,0.7-2.1,2.3-2.1,3.7
				c0,0.7,0.2,1.2,0.6,1.4v0l3.5,2c0,0,0,0,0,0l0,0l0,0c0.4,0.2,0.9,0.2,1.5-0.2c1.2-0.7,2.1-2.3,2.1-3.7
				C145.9,402.8,145.6,402.3,145.3,402.1z"/>
			<path id="XMLID_00000013157317778313718960000013932004022936834470_" class="st27" d="M145.3,402.1L145.3,402.1L145.3,402.1
				C145.3,402,145.2,402,145.3,402.1l-3.6-2.1c0,0-0.1,0-0.1,0l0,0l0,0c-0.4-0.2-0.9-0.1-1.4,0.2c-1.2,0.7-2.1,2.3-2.1,3.7
				c0,0.7,0.2,1.2,0.6,1.4v0l3.5,2c0,0,0,0,0,0l0,0l0,0c0.4,0.2,0.9,0.2,1.5-0.2c1.2-0.7,2.1-2.3,2.1-3.7
				C145.9,402.8,145.6,402.3,145.3,402.1z"/>
			<path id="XMLID_00000031166297002156564250000008564129910833939359_" class="st18" d="M143.7,402.2c1.2-0.7,2.1-0.1,2.1,1.2
				c0,1.4-1,3-2.1,3.7c-1.2,0.7-2.1,0.1-2.1-1.2C141.6,404.5,142.6,402.9,143.7,402.2z"/>
			<g id="XMLID_00000097483938206471084600000002129270123166364038_">
				<path id="XMLID_00000022519276831207709820000004063953277243742089_" class="st5" d="M202.5,438L202.5,438l-1.4-0.9l0,0
					c-0.1,0-0.2,0-0.3,0c-0.2,0.1-0.4,0.4-0.4,0.7c0,0.1,0,0.2,0.1,0.3l0,0l1.4,0.9l0,0c0.1,0,0.2,0.1,0.3,0.1
					c0.3,0,0.6-0.2,0.6-0.6C202.8,438.3,202.7,438.1,202.5,438z"/>
				<path id="XMLID_00000173870588703115070470000007199135822393671345_" class="st28" d="M202.6,438.1L202.6,438.1
					C202.6,438,202.6,438,202.6,438.1C202.5,438,202.5,438,202.6,438.1c-0.2-0.1-0.2-0.1-0.3,0c-0.2,0.1-0.4,0.4-0.4,0.7
					c0,0.1,0,0.2,0.1,0.2c0,0,0,0,0,0c0,0,0,0,0,0c0.1,0,0.1,0,0.2,0c0.3,0,0.6-0.3,0.6-0.6C202.8,438.3,202.7,438.1,202.6,438.1z"
					/>
			</g>
		</g>
	</g>
</g>
<g id="Pencil">
	<g id="Pencil_00000067957009384157925260000012701020380885475219_">
		<g>
			<path id="XMLID_00000093892456523247265170000004345824655707816877_" class="st29" d="M129.7,410.7l-9.3-1.8
				c-0.3-0.1-0.5,0.3-0.3,0.5l6.3,7.1L129.7,410.7z"/>
			<path id="XMLID_00000130642413459263063220000016369057867552389823_" class="st28" d="M120.1,409.3c-0.2-0.2,0-0.5,0.3-0.5
				l1.8,0.4l0,0c-0.5,0.3-0.8,0.9-0.7,1.5l0,0.2L120.1,409.3z"/>
		</g>
		<path id="XMLID_00000013170210508043003060000001322659039879900060_" class="st23" d="M167.5,440l-0.8-0.4l-0.9-0.5l-39.4-22.6
			c-0.3-1-0.2-2.1,0.3-3.1c0.7-1.5,1.9-2.6,3-2.7l39.4,22.6l1.8,1C169.6,433.7,166.3,439.4,167.5,440z"/>
		<g>
			<path id="XMLID_00000124158650212584365870000007657175640715956129_" class="st17" d="M164.6,438.4l-1.7-1
				c-0.5-0.3-0.2-1.5,0.4-2.8c0.8-1.7,2.3-3.3,3-3l1.2,0.7l0.4,0.3c-0.7-0.4-2.2,1.3-3,3C164.4,436.8,164.1,438,164.6,438.4
				L164.6,438.4C164.6,438.3,164.6,438.4,164.6,438.4z"/>
			<path id="XMLID_00000033362335356596117000000004873947467998177976_" class="st23" d="M164.2,438.1c-1.2-0.6,2.2-6.4,3.3-5.7
				l1.7,1c-1.2-0.6-4.5,5.1-3.3,5.7L164.2,438.1z"/>
		</g>
		<g>
			<path id="XMLID_00000173879912512961755580000013373117115796431547_" class="st17" d="M167.5,440l-1.7-1c-1.1-0.6,2-6.2,3.2-5.8
				c0,0,0,0,0.1,0l1.7,1C169.6,433.7,166.3,439.4,167.5,440z"/>
			<path id="XMLID_00000181089325107297596930000007310302436408858249_" class="st14" d="M120.1,409l0.3-0.2l6.7,3.7l41.3,23.7
				c0.1-0.1,0.1-0.1,0.2,0c-1,1.5-1.7,3.5-1.1,3.8l-0.8-0.4l-0.9-0.5l-39.4-22.6l0,0l-6.3-7.1C120,409.2,120,409.1,120.1,409z"/>
		</g>
		<g>
			<path id="XMLID_00000130629085823846510900000010999503573110579634_" class="st30" d="M174.6,444.1l-7.1-4.1
				c-0.5-0.3-0.2-1.5,0.4-2.7c0.8-1.7,2.3-3.3,3-3c0,0,0,0,0,0l7.1,4.1c1.4,0.8,0.1,3.9-1.5,5.3
				C175.9,444.1,175.2,444.4,174.6,444.1z"/>
			<path id="XMLID_00000088094056315398797560000018003931103765478839_" class="st18" d="M174.2,441.9c0.4-1.6,1.7-3.2,2.9-3.5
				c0.4-0.1,0.8-0.1,1.1,0.1c1.1,1-0.2,3.8-1.7,5.1c-0.6,0.5-1.2,0.7-1.8,0.5C174.1,443.8,173.9,443,174.2,441.9z"/>
		</g>
	</g>
</g>
<g id="Coffee_Cup_00000106836537612161033980000012727036619690861490_">
	<g id="Coffee_Cup">
		<path class="st28" d="M113.2,308.8c12.6,7.2,12.6,19,0,26.3c-12.6,7.2-32.9,7.2-45.5,0c-12.6-7.2-12.6-19,0-26.3
			C80.3,301.5,100.7,301.5,113.2,308.8z"/>
		<g>
			<path class="st24" d="M113.7,288.7c-12.8-7.4-33.6-7.4-46.4,0c-6.9,4-10,9.2-9.6,14.4h0l7,81.6c0,0,0,0,0,0l0,0h0
				c0.3,3.6,2.8,7.1,7.5,9.8c10.1,5.8,26.4,5.8,36.5,0c4.7-2.7,7.2-6.2,7.5-9.8h0l7-81.6h0C123.7,297.9,120.5,292.7,113.7,288.7z"/>
			<path class="st18" d="M113.7,288.7c-10.6-6.1-26.5-7.2-39-3.2c0,0,0,0,0,0c-1,0.3-2.1,0.7-3.1,1.1c-0.1,0-0.2,0.1-0.3,0.1
				c-0.2,0.1-0.4,0.2-0.7,0.3c-0.2,0.1-0.4,0.2-0.6,0.3c-0.2,0.1-0.4,0.2-0.5,0.3c-0.2,0.1-0.5,0.2-0.7,0.4
				c-0.1,0.1-0.3,0.1-0.4,0.2c-0.4,0.2-0.7,0.4-1.1,0.6c-6.9,4-10,9.2-9.6,14.4h0l7,81.6c0,0,0,0,0,0l0,0h0c0.3,3.6,2.8,7.1,7.5,9.8
				c3.8,2.2,8.6,3.6,13.5,4.1c-4.2-1.9-7.4-5.1-7.6-10.2c-0.1-3.4-0.3-9.6-0.6-16.8c11,3.1,24.6,2,33.7-3.2c3.2-1.8,5.5-4,6.9-6.3
				l2.7-31.5c-1.5,2.6-4.1,5-7.7,7.1c-9.9,5.7-24.7,6.9-36.7,3.6c-0.2-7.2-0.5-13.2-0.6-16.3c13.4,3.3,29.5,1.9,40.4-4.4
				c2.3-1.3,4.2-2.8,5.7-4.3l1.1-13.1h0C123.7,297.9,120.5,292.7,113.7,288.7z"/>
			<ellipse class="st1" cx="90.5" cy="302.1" rx="32.8" ry="18.9"/>
		</g>
		<g>
			<g>
				<g>
					<path class="st23" d="M116.4,280.1c-14.3-8.3-37.5-8.3-51.8,0c-7.1,4.1-10.7,9.5-10.7,14.9c0,1.1,0,5.4,0,6.4
						c0,5.4,3.6,10.8,10.7,14.9c14.3,8.3,37.5,8.3,51.8,0c7.2-4.1,10.7-9.5,10.7-15c0-1.1,0-5.3,0-6.4
						C127.1,289.6,123.5,284.2,116.4,280.1z"/>
					<path class="st4" d="M116.4,280.1c-14.3-8.3-37.5-8.3-51.8,0c-7.1,4.1-10.7,9.5-10.7,14.9c0,1.1,0,5.4,0,6.4
						c0,5.4,3.6,10.8,10.7,14.9c14.3,8.3,37.5,8.3,51.8,0c7.2-4.1,10.7-9.5,10.7-15c0-1.1,0-5.3,0-6.4
						C127.1,289.6,123.5,284.2,116.4,280.1z"/>
					<path class="st4" d="M75.9,275.7c-4.1,1-7.9,2.5-11.3,4.4c-7.1,4.1-10.7,9.5-10.7,14.9c0,1.1,0,5.4,0,6.4
						c0,5.4,3.6,10.8,10.7,14.9c3.3,1.9,7.2,3.4,11.3,4.4V275.7z"/>
				</g>
				<ellipse class="st23" cx="90.5" cy="295" rx="36.6" ry="21.1"/>
			</g>
			<g>
				<path class="st23" d="M123.2,292.7L123.2,292.7l-1.2-10.8h0c-0.5-4.1-3.5-8.1-9.2-11.2c-12.3-6.8-32.4-6.8-44.7,0
					c-5.7,3.1-8.7,7.1-9.2,11.2h0l-1.2,10.8h0c-0.5,4.9,2.6,9.9,9.4,13.6c12.7,6.9,34,6.9,46.7,0
					C120.6,302.6,123.8,297.6,123.2,292.7z"/>
				<path class="st4" d="M123.2,292.7L123.2,292.7l-1.2-10.8h0c-0.5-4.1-3.5-8.1-9.2-11.2c-12.3-6.8-32.4-6.8-44.7,0
					c-5.7,3.1-8.7,7.1-9.2,11.2h0l-1.2,10.8h0c-0.5,4.9,2.6,9.9,9.4,13.6c12.7,6.9,34,6.9,46.7,0
					C120.6,302.6,123.8,297.6,123.2,292.7z"/>
				<path class="st4" d="M68.1,270.7c-5.7,3.1-8.7,7.1-9.2,11.2h0l-1.2,10.8h0c-0.5,4.9,2.6,9.9,9.4,13.6c2.6,1.4,5.5,2.5,8.7,3.4
					l0.8-12.9l1.5-29.8C74.5,267.9,71.1,269.1,68.1,270.7z"/>
				<ellipse class="st23" cx="90.5" cy="283" rx="31.6" ry="17.3"/>
				<ellipse class="st23" cx="90.5" cy="283" rx="27.2" ry="13.6"/>
				<ellipse class="st4" cx="90.5" cy="283" rx="27.2" ry="13.6"/>
				<path class="st23" d="M109.8,280.4c-10.6-5.3-27.9-5.3-38.5,0c-3.5,1.7-5.8,3.8-7,6.1c1.2,2.2,3.5,4.3,7,6.1
					c10.6,5.3,27.9,5.3,38.5,0c3.5-1.7,5.8-3.8,7-6.1C115.6,284.3,113.3,282.2,109.8,280.4z"/>
				<path class="st31" d="M109.8,280.4c-10.6-5.3-27.9-5.3-38.5,0c-3.5,1.7-5.8,3.8-7,6.1c1.2,2.2,3.5,4.3,7,6.1
					c10.6,5.3,27.9,5.3,38.5,0c3.5-1.7,5.8-3.8,7-6.1C115.6,284.3,113.3,282.2,109.8,280.4z"/>
				<path class="st23" d="M113.6,277.2l-32.1,18.5c-3.7-0.7-7.3-1.7-10.3-3.2c-4.9-2.5-7.6-5.6-7.9-8.9c0.3-3.2,3-6.4,7.9-8.9
					c10.6-5.3,27.9-5.3,38.5,0C111.2,275.6,112.5,276.4,113.6,277.2z"/>
				<path class="st20" d="M113.6,277.2l-32.1,18.5c-3.7-0.7-7.3-1.7-10.3-3.2c-4.9-2.5-7.6-5.6-7.9-8.9c0.3-3.2,3-6.4,7.9-8.9
					c10.6-5.3,27.9-5.3,38.5,0C111.2,275.6,112.5,276.4,113.6,277.2z"/>
				<path class="st23" d="M115.6,284.7l-20,11.6c-4.7,0.4-9.5,0.3-14.1-0.5l32.1-18.5L115.6,284.7z"/>
				<path class="st18" d="M115.6,284.7l-20,11.6c-4.7,0.4-9.5,0.3-14.1-0.5l32.1-18.5L115.6,284.7z"/>
				<path class="st13" d="M114.9,292.8l-4.6,2.7c-0.4,0.3-1.2,0.2-1.7-0.1l0,0c-0.5-0.3-0.6-0.7-0.1-1l4.6-2.7
					c0.4-0.3,1.2-0.2,1.7,0.1l0,0C115.3,292.1,115.3,292.6,114.9,292.8z"/>
			</g>
		</g>
		<g>
			<path class="st5" d="M122.6,322.9l-2.7,31.7c-0.3,4.1-3.2,8.1-8.6,11.2c-11.5,6.6-30.1,6.6-41.6,0c-5.8-3.3-8.6-7.7-8.6-12
				L58.4,323c0.4,4.4,3.6,8.7,9.4,12c12.6,7.2,32.9,7.2,45.5,0C119.1,331.7,122.2,327.3,122.6,322.9L122.6,322.9z"/>
			<path class="st28" d="M107.9,349.1c1.2-1.1,2.7-2.1,4.3-2.8c0.7-0.3,0.7-1.2,0.1-1.5c-3.1-1.6-7.6-0.5-10.7,2.7
				c-3.3,3.4-4,8.2-1.8,11.2c0.3,0.4,0.8,0.4,1.2,0.2c1.7-1.3,2.8-2.9,3.9-5.4C105.6,351.9,106.6,350.4,107.9,349.1z M115,347.5
				c-0.2-0.4-0.7-0.5-1.1-0.4c-3,1.3-5.2,3.3-6.8,6.3c-0.8,1.5-1.3,3.2-2.3,4.6c-0.7,1-1.6,1.8-2.6,2.4c-0.1,0.1-0.1,0.4,0.1,0.5
				c3.1,1.4,7.4,0.3,10.4-2.9C115.8,354.8,116.6,350.5,115,347.5z"/>
		</g>
		<path class="st15" d="M78,339c-3.7-0.9-7.2-2.2-10.3-4c-5.8-3.3-8.9-7.7-9.4-12l2.7,30.7c0,4.4,2.9,8.7,8.6,12
			c2.8,1.6,6,2.8,9.4,3.6L78,339z"/>
	</g>
</g>
<g id="Character">
	<g id="Character_1_">
		<g id="Bottom_2_">
			<g>
				<g>
					<path class="st29" d="M245.2,260.2l7.9-18.8l22.3,8.8c-10.2,11.7-21.1,25.9-23.4,30.8c0,0-11.8-1.7-14.1-7.5
						C235.6,267.8,242.2,262.4,245.2,260.2z"/>
					<g>
						<path class="st28" d="M232.7,268.3c-1.1,0.9-1.7,1.8-2.4,3c-0.7,1.2,0,6.5-0.6,9.1c-0.5,2.5-1,3.3-2,6.5
							c-1.1,3.6-3.3,6.9,0.1,15.6c3.5,8.8,8.2,12.6,12,14.5c2,1,4.6,0.8,4.6,0.8s4.7-2.2,3.8-5C247.4,309.8,232.7,268.3,232.7,268.3
							z"/>
						<path id="XMLID_00000107580005612747987290000004132944415860283787_" class="st23" d="M254.9,276.5c-0.1,0.9-1.2,2.4-1.7,3.2
							c-1.6,2.6-2.1,6.1-2.5,9.1c-1.8,14.3,4.3,21-2.9,26.9c-2.1,1.5-6.7,1.5-14.3-6.9c-3.9-4.3-6.6-13.4-5.5-17.8
							c1.1-4.3,2.8-7.2,3.4-10.5c0.6-3.3-0.3-9.3,1.3-12.3c0.9-1.7,2.6-3,4.1-4.1c1.3-0.9,4.1-2.2,5.5-3.1c1.4-1,2-1.8,3-0.9
							l-1.4,2.1c-2.2,3.6-1.5,4.1-1.3,5.9c0.2,1.9-0.3,4-0.5,5.9c1.6-2.3,2.2-4.3,4.1-4.1c1.8,0.2,2.2,0.1,5.1,2.5
							C254.2,274.7,254.9,275.7,254.9,276.5z"/>
						<path id="XMLID_00000163758589442389154520000009849229266474224520_" class="st16" d="M254.9,276.5c-0.1,0.9-1.2,2.4-1.7,3.2
							c-1.6,2.6-2.1,6.1-2.5,9.1c-1.8,14.3,4.3,21-2.9,26.9c-2.1,1.5-6.7,1.5-14.3-6.9c-3.9-4.3-6.6-13.4-5.5-17.8
							c1.1-4.3,2.8-7.2,3.4-10.5c0.6-3.3-0.3-9.3,1.3-12.3c0.9-1.7,2.6-3,4.1-4.1c1.3-0.9,4.1-2.2,5.5-3.1c1.4-1,2-1.8,3-0.9
							l-1.4,2.1c-2.2,3.6-1.5,4.1-1.3,5.9c0.2,1.9-0.3,4-0.5,5.9c1.6-2.3,2.2-4.3,4.1-4.1c1.8,0.2,2.2,0.1,5.1,2.5
							C254.2,274.7,254.9,275.7,254.9,276.5z"/>
						<path class="st3" d="M233.5,308.9c-3.9-4.3-6.6-13.4-5.5-17.8c0.4-1.6,0.9-2.9,1.3-4.2c0,0.3-0.1,0.6-0.1,0.8
							c0,0.6-0.1,1.1-0.1,1.7c0,2.1,0.1,4.4,1.2,6.3c0.9,1.7,3.1,6,5.5,5.9c1.3,0,2.4-1.4,2.8-3c0.2-0.6,0.4-2.4,0.4-2.4
							s3.6,0.5,6.3,2.1c3.6,2,3.5,2.5,3.5,2.5c-0.1,0.8-0.1,2.1,0.1,3c0.3,0.9,0.9,2.4,1.5,2.9c0.3,0.3,0.6,0.5,0.9,0.6
							c0.1,3.3-0.6,5.9-3.6,8.3C245.7,317.3,241.1,317.2,233.5,308.9z"/>
						<g>
							<path class="st28" d="M250.6,288.8c-0.6,4.4-0.4,8.1,0,11.3c-1,3.7-2.2,3.7-2.5,1.8c-0.3-1.9,1.6-9.8,3-16.3
								C250.9,286.7,250.8,287.8,250.6,288.8z"/>
							<path class="st28" d="M240.4,266.9c-0.3-1.7,0.1-3.6,1-5.3c0.3-0.2,0.6-0.4,0.9-0.5c1.4-1,2-1.8,3-0.9l-1.4,2.1
								c-2.2,3.6-1.5,4.1-1.3,5.9c0.2,1.9-0.3,4-0.5,5.9c-1,6.2-2.1,8.4-2.4,14.2c-0.2,5.8,1.2,9.6,0.4,10c-0.8,0.4-2.5-0.1-3.1-4.8
								c-0.6-4.6,0.8-12.5,2-16.3C240,273.3,240.9,269.3,240.4,266.9z"/>
						</g>
						<g>
							<g>
								<path class="st17" d="M238.5,296.7c0.1,0.1,0.2,0.1,0.3,0.1c4.1,0.5,6.4,1.4,9.6,4.7c0.2,0.2,0.6,0.2,0.8,0
									c0.2-0.2,0.2-0.6,0-0.8c-3.5-3.5-5.9-4.5-10.3-5.1c-0.3,0-0.6,0.2-0.6,0.5C238.3,296.4,238.4,296.5,238.5,296.7z"/>
							</g>
							<g>
								<path class="st17" d="M238.9,291.8c0.1,0.1,0.2,0.1,0.3,0.1c4.3,0.7,6.7,1.7,10.2,5.2c0.3,0.3,0.6,0.2,0.8,0
									c0.2-0.2,0.2-0.6,0-0.8c-3.7-3.7-6.3-4.8-10.8-5.5c-0.3-0.1-0.6,0.2-0.7,0.5C238.7,291.5,238.8,291.7,238.9,291.8z"/>
							</g>
							<g>
								<path class="st17" d="M238.4,286.5c0.1,0.1,0.2,0.1,0.3,0.2c4.7,0.7,7.5,2,11.4,5.8c0.2,0.3,0.7,0.3,0.9,0
									c0.3-0.3,0.3-0.7,0-0.9c-4-4.1-7.1-5.4-12.1-6.2c-0.4-0.1-0.7,0.2-0.7,0.5C238.2,286.1,238.3,286.4,238.4,286.5z"/>
							</g>
							<g>
								<path class="st17" d="M238.8,281.9c0.1,0.1,0.2,0.1,0.3,0.2c4.6,0.7,7.3,1.9,11.1,5.7c0.2,0.2,0.7,0.3,0.9,0
									c0.3-0.2,0.3-0.7,0-0.9c-4-4-6.9-5.3-11.8-6.1c-0.3-0.1-0.7,0.2-0.7,0.5C238.6,281.6,238.7,281.8,238.8,281.9z"/>
							</g>
							<g>
								<path class="st17" d="M240.2,277.4c0.1,0.1,0.2,0.1,0.3,0.2c4.6,0.7,7.3,1.9,11.1,5.7c0.2,0.2,0.7,0.3,0.9,0
									c0.3-0.2,0.3-0.7,0-0.9c-4-4-6.9-5.3-11.8-6.1c-0.3-0.1-0.7,0.2-0.7,0.5C239.9,277,240,277.2,240.2,277.4z"/>
							</g>
						</g>
					</g>
				</g>
				<g>
					<path class="st23" d="M219.7,195.8c0,0,47.9-5.7,66.6-5.5c19.1,0.1,20.9,14.5,16.1,23.3c-9.2,16.8-38.8,51.2-38.8,51.2
						s-11.9-3.6-15.2-12.9l6.2-16.7l-37.1,5.1l-6.7-4.9L219.7,195.8z"/>
					<path class="st7" d="M219.7,195.8c0,0,47.9-5.7,66.6-5.5c19.1,0.1,20.9,14.5,16.1,23.3c-9.2,16.8-38.8,51.2-38.8,51.2
						s-11.9-3.6-15.2-12.9l6.2-16.7l-37.1,5.1l-6.7-4.9L219.7,195.8z"/>
					<path class="st32" d="M267.4,248.2c-4.1-5.2-6.8-6.5-14.2-9l-4.7,12.7c3.3,9.3,15.2,12.9,15.2,12.9s3.4-4,8.3-9.9
						C270.6,252.6,269,250.3,267.4,248.2z"/>
					<path class="st32" d="M257.2,219.5c-2.4,3.6-4.5,6.8-6.3,9.9c-1.8,3.1-7.3,4.6-12.9,3.4c-7-1.4-14.7-4.3-19.2-6.3
						c3.1-5.7,2.5-12.7,2.5-12.7c-2,8.9-8.5,13.7-8.5,13.7l1.4,9.7l2.7,3.3l31.9-4.4l0,0l5.2-0.7c6.6-15.7,9.1-22.6,17.3-25.8
						C271.3,209.4,264.3,208.9,257.2,219.5z"/>
				</g>
			</g>
			<g>
				<g>
					<path class="st29" d="M282.3,312.9l-17.5-18.7l17.2-14.9c8.1,12.5,15.9,24.4,21,29c0,0-3.4,11.4-9.8,12.1
						C286.7,321,283.7,316.5,282.3,312.9z"/>
					<g>
						<path class="st28" d="M286.5,324.1c0.6,1.3,1.4,2.2,2.4,3.2c1,1,6.5,1.9,9,3.1c2.4,1.2,3,1.9,5.9,3.8c3.3,2.1,6,5.2,15.7,4.2
							c9.8-1,15-4.7,18-8.1c1.6-1.8,2-4.4,2-4.4s-0.9-5.4-4-5.2C332.3,320.9,286.5,324.1,286.5,324.1z"/>
						<path id="XMLID_00000057127625171304489140000014182166845423182989_" class="st23" d="M300.9,304.1c0.9,0.3,2.1,1.9,2.8,2.6
							c2.2,2.3,5.6,3.8,8.5,5.1c13.9,5.8,22.4,1.5,26.2,10.4c1,2.5-0.3,7.1-10.9,12.4c-5.4,2.7-15.4,2.9-19.4,0.6
							c-4.1-2.3-6.5-4.8-9.6-6.4c-3.2-1.6-9.5-2.3-12-4.7c-1.5-1.4-2.3-3.4-3-5.3c-0.6-1.5-2.2-6.9-2.2-6.9c3,3.2,5.9,1.9,7.7,2.3
							c2,0.3,3.9,1.4,5.8,2.1c-1.9-2.3-3.8-3.4-3-5.3c0.7-1.8,0.7-2.2,3.9-4.5C298.9,304.3,300.1,303.8,300.9,304.1z"/>
						<path id="XMLID_00000039827747117304864150000000164059597552450476_" class="st16" d="M300.9,304.1c0.9,0.3,2.1,1.9,2.8,2.6
							c2.2,2.3,5.6,3.8,8.5,5.1c13.9,5.8,22.4,1.5,26.2,10.4c1,2.5-0.3,7.1-10.9,12.4c-5.4,2.7-15.4,2.9-19.4,0.6
							c-4.1-2.3-6.5-4.8-9.6-6.4c-3.2-1.6-9.5-2.3-12-4.7c-1.5-1.4-2.3-3.4-3-5.3c-0.6-1.5-2.2-6.9-2.2-6.9c3,3.2,5.9,1.9,7.7,2.3
							c2,0.3,3.9,1.4,5.8,2.1c-1.9-2.3-3.8-3.4-3-5.3c0.7-1.8,0.7-2.2,3.9-4.5C298.9,304.3,300.1,303.8,300.9,304.1z"/>
						<path class="st3" d="M327.5,334.6c-5.4,2.7-15.4,2.9-19.4,0.6c-1.5-0.8-2.7-1.7-3.9-2.5c0.3,0.1,0.6,0.3,0.8,0.4
							c0.5,0.2,1.1,0.4,1.6,0.6c2.1,0.6,4.5,1.1,6.7,0.6c2-0.5,6.9-1.4,7.4-3.9c0.3-1.4-0.8-2.8-2.2-3.6c-0.6-0.4-2.3-1.1-2.3-1.1
							s1.5-3.4,3.8-5.8c3-3.1,3.5-2.8,3.5-2.8c0.8,0.3,2.1,0.7,3.1,0.7c1,0,2.6-0.2,3.3-0.7c0.3-0.2,0.6-0.5,0.9-0.8
							c3.3,0.8,5.8,2.2,7.4,5.9C339.3,324.7,338,329.3,327.5,334.6z"/>
						<g>
							<path class="st28" d="M312.1,311.8c4.3,1.8,8.1,2.6,11.4,3.2c3.4,2.1,3.1,3.2,1.1,3c-2-0.2-9.4-4.4-15.6-7.6
								C310.1,310.9,311.1,311.3,312.1,311.8z"/>
							<path class="st28" d="M287.2,316c-1.8-0.1-3.3,0-4.9-0.9c-1-0.5-1.6-2.8-1.5-3.8l1.6,1.7c2.8,1.2,4.7,0.9,6.6,1.2
								c2,0.3,3.9,1.4,5.8,2.1c6,2.7,7.8,4.5,13.6,6.4c5.8,1.9,10,1.5,10.2,2.4c0.2,0.9-0.8,2.5-5.7,1.8c-4.8-0.6-12.4-4.3-15.9-6.6
								C293.6,318.1,289.8,316.2,287.2,316z"/>
						</g>
						<g>
							<g>
								<path class="st17" d="M316.6,326.1c0.1-0.1,0.2-0.2,0.2-0.3c1.7-4,3.2-6,7.4-8.4c0.3-0.2,0.4-0.5,0.2-0.8
									c-0.2-0.3-0.5-0.4-0.8-0.2c-4.5,2.5-6.2,4.7-8,9c-0.1,0.3,0,0.7,0.3,0.8C316.2,326.3,316.5,326.2,316.6,326.1z"/>
							</g>
							<g>
								<path class="st17" d="M311.8,324.4c0.1-0.1,0.2-0.2,0.2-0.3c1.9-4.1,3.5-6.3,8-8.8c0.3-0.2,0.4-0.5,0.2-0.8
									c-0.2-0.3-0.5-0.4-0.8-0.2c-4.7,2.7-6.6,5-8.6,9.4c-0.1,0.3,0,0.7,0.3,0.8C311.4,324.5,311.7,324.5,311.8,324.4z"/>
							</g>
							<g>
								<path class="st17" d="M306.4,323.4c0.1-0.1,0.2-0.2,0.2-0.3c2-4.5,4.1-7,9-9.8c0.3-0.2,0.4-0.6,0.3-0.9
									c-0.2-0.3-0.6-0.4-0.9-0.3c-5.2,2.9-7.4,5.6-9.6,10.4c-0.2,0.3,0,0.7,0.3,0.9C305.9,323.6,306.2,323.5,306.4,323.4z"/>
							</g>
							<g>
								<path class="st17" d="M301.9,321.7c0.1-0.1,0.2-0.2,0.2-0.3c2-4.4,4-6.9,8.8-9.6c0.3-0.2,0.4-0.6,0.3-0.9
									c-0.2-0.3-0.6-0.4-0.9-0.3c-5.1,2.9-7.3,5.5-9.4,10.2c-0.2,0.3,0,0.7,0.3,0.9C301.4,321.8,301.7,321.8,301.9,321.7z"/>
							</g>
							<g>
								<path class="st17" d="M297.7,319.1c0.1-0.1,0.2-0.2,0.2-0.3c2-4.4,4-6.9,8.8-9.6c0.3-0.2,0.4-0.6,0.3-0.9
									c-0.2-0.3-0.6-0.4-0.9-0.3c-5.1,2.9-7.3,5.5-9.4,10.2c-0.2,0.3,0,0.7,0.3,0.9C297.2,319.2,297.5,319.2,297.7,319.1z"/>
							</g>
						</g>
					</g>
				</g>
				<path class="st23" d="M292.3,293.8c-4.2,7.5-15.5,13.8-15.5,13.8s-4.8-4.4-16.4-13.8c-8.2-6.7-14.9-13.2-19.7-21.3
					c-13.9-2.8-36.8-1.5-62.4-11.5c-12.7-5-23.4-16.9-26-29.3c-1.4-6.5-2.2-13.6-2.1-22.3c0.2-22.8,73-12.1,73-12.1l-10.2,30
					c0,0,30.8,11.7,41.3,16.1c4.8,2,6.2,1.9,11.9,9.8C279,271.3,292.3,293.8,292.3,293.8z"/>
				<path class="st7" d="M292.3,293.8c-4.2,7.5-15.5,13.8-15.5,13.8s-4.8-4.4-16.4-13.8c-8.2-6.7-14.9-13.2-19.7-21.3
					c-13.9-2.8-36.8-1.5-62.4-11.5c-12.7-5-23.4-16.9-26-29.3c-1.4-6.5-2.2-13.6-2.1-22.3c0.2-22.8,73-12.1,73-12.1l-10.2,30
					c0,0,30.8,11.7,41.3,16.1c4.8,2,6.2,1.9,11.9,9.8C279,271.3,292.3,293.8,292.3,293.8z"/>
				<path class="st32" d="M280.1,305.5c0.3-0.2,0.6-0.4,0.9-0.6c-6.2-5.8-21.7-20.9-26.5-27.3c-1.6-2.2-2.9-4.2-4-5.9
					c-2.6-4.1-4.4-6.8-7.6-7.6c-0.7-0.2-2.3-0.5-4.8-1c-12.7-2.6-46.3-9.5-58-15.8c-0.3-0.2-0.7-0.4-1-0.6c4-4,3.6-11.6,0.5-16.2
					c-3.3-5-5.8-14.9-4-19.8l-1-0.4c-2.1,5.6,1,16,4.1,20.7c2.9,4.4,3.2,11.6-0.6,15.1c-11.2-7-16.8-19.2-16.3-35.6l-1.1,0
					c-0.5,17.7,6,30.7,18.8,37.7c11.8,6.4,45.6,13.3,58.3,15.9c2.4,0.5,4.1,0.8,4.8,1c2.8,0.7,4.4,3.2,6.9,7.1
					c1.1,1.7,2.4,3.7,4.1,6C258.6,285,274.3,300.1,280.1,305.5z"/>
			</g>
		</g>
		<g id="Top_00000023966466448139259420000008952701938709700783_">
			<g>
				<path class="st23" d="M211.1,78.2c-1.6-2.3-4.3-3.1-6.9-3.7c-1-0.2-1,1.9-0.1,2.1c2.6,0.6,6,1.3,6.4,4.5c0.2,1.7,0,3.5,0,5.2
					c0,1.7,0,3.5,0,5.2c0,3.4,0,6.9-0.1,10.3c0,3.6-0.2,7.3,0,11c0.1,0.9,1.7,2.1,1.8,0.7c0.4-4.1,0.2-8.3,0.2-12.4
					c0-4.1,0.1-8.2,0.1-12.2C212.5,85.5,213.1,81.2,211.1,78.2z"/>
				<g>
					<polygon class="st5" points="214.5,80.5 189.1,49.9 187.2,49.5 144.4,84.8 169.7,115.4 171.6,115.8 					"/>
					<polygon class="st28" points="189.1,49.9 146.3,85.1 171.6,115.8 214.5,80.5 					"/>
				</g>
			</g>
			<path class="st33" d="M160.9,98.9c0.4,1.9,0.4,3.8-0.6,5.6c-0.9,1.6-2.6,2.5-4.3,3.2c-3,1.1-5.6,2.3-7.5,4.4
				c-2.4,2.6-3,5.5-2.5,9.8c0,0.4-0.1,0.8-0.3,1.1c-0.2,0.2-0.5,0.3-0.7,0.4c-3.9,1.5-6.9,4.9-8.3,8.8c-1.4,3.9-1.8,9.3,0.3,13
				c1.6,3,3.8,5.4,6.7,7.2c5.7,3.7,12.7,5.2,19.4,5.8c0.4,0,0.8,0.1,1.1,0.1c14.9,1.3,32,1.7,45.2-5.4c6.5-3.5,13.4-7.3,14.2-18.2
				c0.6-8.6-4.9-14.6-10.8-16.3c1.5-2.7,3-4.8,1.5-9.2c-0.9-2.7-3.6-4.8-5.9-6.6c-2.2-1.8-3-3.7-3.2-6.7c-0.2-2.2,0.3-5.3,0.3-5.3
				c2.1-1.1,2.4-4.1,1.8-6.2c0,0-1.9-5.2-2-5.3c-3.2-4.4-8.1-6.5-13.4-6.9c-4.5-0.4-8.9-0.9-13.4,0c-4.5,1-8.7,3-12.2,6
				c-1.3,1.1-2.6,2.4-3.5,3.9c-1.2,1.9-2,4.2-2.3,6.4c-0.4,2.8-0.4,5.6,0.2,8.4C160.6,97.5,160.8,98.2,160.9,98.9z"/>
			<g id="Arm_00000163789015758351024060000006832866105789761665_">
				<path id="Arm_00000032610403979813695060000012348045278726145961_" class="st15" d="M200.8,124.6c13.2-2.2,17.5,7.5,18.6,13.7
					c1.3,7.1,1.2,23.7,1.2,23.7l19.1,13.4l-6.7,12.4c0,0-17.3-7.6-23-10.4c-6.3-3.1-5.5-5.1-6.4-14.9
					C202.6,152.8,200.3,130.2,200.8,124.6z"/>
			</g>
			<g>
				<path class="st5" d="M148.4,218.5c0.2-2.8-1.4-25.9,0.7-47.1c0.7-6.8,7.4-35.6,9.1-40.7l13.4-3.8c0,0,11.6-1.5,26-2.2l3.2-0.1
					c0.9,0.9,15,11.2,19.3,22.6c2.1,5.5,2.2,19.4,2.4,29.6c0.2,10.5,1.3,13.5,3.5,15c-1.5,11.3-17.4,25.1-36.4,29.5
					C166.8,226.5,149.9,219.3,148.4,218.5z"/>
				<path class="st5" d="M148.4,218.5c0.4,21.1,4.9,29,15.6,37.5c11.6,9.3,34.6,13.4,44.9,14.3c14.1,1.3,29.3,1.7,29.3,1.7
					s-1.3-15.3,5.7-25.5s29.2-47.3,52.7-54.4c-4.2-3.3-11.7-3.5-36.4-1.2c-24.8,2.2-33.5,3.2-37-1.5L148.4,218.5z"/>
				<path class="st15" d="M211.3,146.5c2.2-1.1,4.5-2.6,6.2-4.5c-0.5-0.7-0.9-1.4-1.4-2.1c-0.2,0.3-0.5,0.5-0.7,0.8
					c-1.3,1.3-2.9,2.4-4.6,3.3c-3.8,2.1-7.9,3.6-12,4.6c-8.9,2.3-18.3,2.4-27.4,1.1c-5.4-0.7-10.6-2-15.8-3.5c-1-0.3-1.3,1.8-0.4,2
					C173.2,153.6,194,155.6,211.3,146.5z"/>
			</g>
			<g id="Laptop_00000158747952282344560990000018038355729213457293_">
				<g>
					<g id="XMLID_00000122678845424307345150000001192583545720340099_">
						<path id="XMLID_00000145027350165426118260000017912218285244418201_" class="st1" d="M192.8,234l0,1.3c0,1.3,0.7,2.5,1.8,3.1
							l33.9,19.7c0.5,0.3,1.2,0.5,1.8,0.5c0.6,0,1.2-0.2,1.8-0.5l62.5-35.7c1.1-0.6,1.8-1.8,1.8-3.1l0-0.9l-66.1,37.8L192.8,234z"/>
					</g>
					<g id="XMLID_1195_">
						<g id="XMLID_00000014628678319277990130000007766703397661048758_">
							<path class="st24" d="M296.3,218.4l-36.9-21.5c-0.7-0.4-1.5-0.4-2.1,0L193,233.6c-0.3,0.2-0.3,0.6,0,0.8l37.2,21.7
								L296.3,218.4z"/>
						</g>
					</g>
					<g id="XMLID_1190_">
						<g id="XMLID_1193_">
							<polygon class="st10" points="229.9,253 210,241.4 268.4,208 288.4,219.6 							"/>
						</g>
					</g>
					<g id="XMLID_00000038404912687135357560000014321758465502585995_">
						<g id="XMLID_1188_">
							<polygon class="st1" points="220.2,221 220.6,221.2 230.3,226.9 247.8,216.9 248.1,216.7 238,210.8 							"/>
						</g>
					</g>
					<g id="XMLID_00000016042649323815767230000004212981318313144977_">
						<g id="XMLID_00000053541698747722405560000003770324721499065228_">
							<polygon class="st10" points="220.6,221.2 230.3,226.9 247.8,216.9 238,211.3 							"/>
						</g>
					</g>
					<g id="XMLID_00000087414251539870177040000018391991625736813725_" class="st4">
						<path id="XMLID_00000069380902090487538530000003512181640585787069_" d="M230.2,256.2l0,2.4c0.6,0,1.2-0.2,1.8-0.5l62.5-35.7
							c1.1-0.6,1.8-1.8,1.8-3.1l0-0.9L230.2,256.2z"/>
					</g>
				</g>
				<path class="st29" d="M256.2,198c0.2,0.3,0.4,0.7,0.5,1.1c0.6,1.4,1.2,2.8,1.8,4.3c0.4,1,0.9,2,1.7,2.8c0.6,0.6,2.6,1.9,3.3,0.7
					c0.2-0.3,0.1-0.6,0-0.9c-0.2-1.2-0.5-2.5-0.8-3.7c-0.1-0.5-0.5-2.1,0-2.5c0.1-0.1,0.3-0.1,0.5-0.1c0.8-0.1,1.5-0.5,2-1.1
					c0.1-0.1,0.2-0.3,0.4-0.4c0.2-0.1,0.5-0.1,0.8-0.1c0.4,0,0.8-0.3,1.1-0.6c0.1-0.2,0.3-0.4,0.3-0.6c0.2-0.6,0.2-1.2,0.2-1.8
					c0-1.2,0-2.3-0.1-3.5c0-0.5-0.1-1-0.2-1.5c-0.4-1.2-1.5-2.1-2.4-2.9c-1-1-2.1-2-3.2-2.9c-0.9-0.7-1.7-1.5-2.8-1.9
					c-1.1-0.4-2.3-0.6-3.5-0.8c-3.7-0.7-7.2-1.7-10.7-3.2c-0.4-0.2-3.9-2-5.4-2.9c-4.5,3.6-7.1,7.7-6.7,12.4
					c0.1-0.1,3.4,2.2,3.8,2.5c1.7,1.2,3,2.6,4.2,4.2c1,1.3,1.9,2.7,3.2,3.7c2.1,1.7,4.9,2.4,6.8,4.2c0.5,0.4,0.9,0.9,1.5,1
					c0.8,0.1,1.5-0.7,1.6-1.5c0.1-0.8-0.2-1.6-0.6-2.3c-0.8-1.5-1.7-2.9-2.8-4.1c1.7-0.4,4.1,0.8,5.3,2.1
					C256,197.8,256.1,197.9,256.2,198z"/>
				<g id="Arm_00000093147019972298319120000018313424606087266184_">
					<g>
						<path class="st29" d="M138.4,189.9c1.1-16.5,2.5-28.2,4-40.5c1-7.4,5-14.9,15.6-18.2c9.2,5.7,8.7,25,7.8,29.6l-4.1,29.4
							c0,0,4.8,3.4,13.2,8.9c7,4.6,11.7,8.7,19.8,9.2c8.1,0.4,11.3-0.1,15.6,1.5c2.3,0.8,7.5,2.7,9.3,3.5c1.8,0.8,5.1,3.7,8.1,5.6
							c2.8,2-0.5,3.4-2.6,2.9c-2.8-0.6-4.6-1.7-6.5-2.6c-1.8-0.9-3.6-1.1-5.5-1.7c0.5,1.3,1.5,4.8,1.6,6.2c0.1,1.2,0.4,2.5-0.5,3.4
							c-0.5,0.5-1.7,0.9-2.3,1.2c0,0,0,0.6-0.4,1.1c-0.4,0.5-1.4,0.7-2,0.7c-0.5,0-1.2-0.1-1.2-0.1c0,0.8-0.7,1.5-1.2,1.7
							c-1.8,0.8-4.5,0.6-4.9,0.5c-0.2-0.1-2.1-0.9-2.7-1.2c-0.8-0.4-1.5-0.5-1.9-1c-0.4-0.6,0.6-2,1.5-2.2c1-0.3,2.5-0.1,3.1,0
							c-0.5-0.9-0.9-1.6-1.1-2.6c-0.9-1.3-7,0.5-12.5-0.1c-4.2-0.4-7.4-4.2-9.3-4.9c-12.2-4.6-18.7-6.1-31.4-12.1
							C137.4,203.1,137.9,198.6,138.4,189.9z"/>
					</g>
					<g>
						<path class="st30" d="M214.2,217.7c-0.7-1.5-1.8-3.3-3-3.7c0.7,0.7,1.7,2.8,2,3.4C213.5,217.5,213.8,217.6,214.2,217.7z"/>
					</g>
					<g>
						<path class="st30" d="M211.8,228.2c0.2-1.1,0-2.3-0.1-3.4c-0.1-1.1-0.4-2.2-0.7-3.3c-0.3-1.1-0.6-2.2-1.1-3.2
							c-0.5-1-1.2-2-2.2-2.6c0.4,0.4,0.7,0.8,1,1.3c0.3,0.5,0.5,1,0.7,1.5c0.4,1,0.7,2.1,1,3.2c0.3,1.1,0.5,2.2,0.8,3.3
							C211.4,226,211.7,227.1,211.8,228.2z"/>
					</g>
					<path class="st30" d="M208.2,230c0.1-1.1-0.1-2.2-0.2-3.3c-0.2-1.1-0.4-2.2-0.7-3.3c-0.3-1.1-0.7-2.1-1.1-3.2
						c-0.5-1-0.9-2.1-1.9-2.7c0.4,0.4,0.6,0.9,0.8,1.4c0.2,0.5,0.4,1,0.6,1.5c0.3,1,0.7,2.1,1,3.1
						C207.2,225.6,207.8,227.8,208.2,230z"/>
					<path class="st30" d="M199.1,227.7c0.5,0,1,0,1.4,0.1c0.4,0.1,0.8,0.3,1.4,0.4l-0.3-0.3c0,0.3,0.1,0.5,0.1,0.7
						c0.1,0.2,0.2,0.4,0.3,0.5c0.3,0.3,0.6,0.5,1,0.5c-0.2-0.3-0.5-0.5-0.6-0.8c-0.1-0.1-0.1-0.3-0.2-0.4c0-0.1,0-0.3,0-0.4l0-0.3
						l-0.3-0.1c-0.4-0.1-0.8-0.2-1.3-0.2C200.1,227.5,199.5,227.5,199.1,227.7z"/>
					<path class="st15" d="M158.2,130.7c-4.8,0.4-12.2,2.3-15,7c-2.9,4.7-2.7,17.5-3.5,25.7c-1,10.2-1.9,20.8-2.5,28.8
						c-0.4,5.8-0.3,9.9,3,12.8c3.3,2.9,25.2,10.2,25.2,10.2c0.1-4.1,3.5-13.8,8.4-16.8l-11.1-8.4l4.2-30.4
						C166.8,159.5,169.7,135.6,158.2,130.7z"/>
				</g>
				<g>
					<g id="XMLID_00000034048216025738230130000006812805657659182250_">
						<path id="XMLID_00000181794853187905225450000011607676648244194457_" class="st10" d="M231.2,256.7c1.2,0.5,2.5,0.4,3.6-0.3
							l62.2-35.6c1.1-0.6,1.8-1.7,2.1-2.9l7-40.5c0-0.2,0.1-0.5,0.1-0.7c0-1.1-0.4-2.2-1.2-3l-64.6,37c-0.8,0.5-1.4,1.3-1.5,2.2
							L231.2,256.7z"/>
					</g>
					<g id="XMLID_00000017507295912874578010000010320266982040330148_">
						<path id="XMLID_00000176017131516295028160000001394950731119217550_" class="st1" d="M230.2,256.2l0.4,0.2
							c0.2,0.1,0.4,0.2,0.6,0.3l7.5-43.8c0.2-0.9,0.7-1.7,1.5-2.2l64.6-37c-0.2-0.3-0.5-0.5-0.9-0.7l-64.8,37
							c-0.8,0.5-1.4,1.3-1.5,2.2L230.2,256.2z"/>
					</g>
					<g id="XMLID_00000040575946319671580520000010736447423045163909_">
						<path id="XMLID_00000067923483837968875010000003128893190633547926_" class="st23" d="M264.4,218.8c0.5-2.7,3.3-6.3,6.3-8
							c3-1.7,5.1-0.9,4.6,1.8c-0.5,2.7-3.3,6.3-6.3,8C266,222.3,264,221.5,264.4,218.8z"/>
					</g>
				</g>
			</g>
			<g id="Head_00000093156680842813778700000002418101792552859267_">
				<g id="Head_00000102530065588220403250000006732665049580761752_">
					<g id="Head_00000153685359219790387070000006685723335745089162_">
						<g id="XMLID_00000052794412936897351140000005658111129601827719_">
							<g id="XMLID_00000091007537509168016520000000565806329357487261_">
								<path id="XMLID_00000091017386431303757800000005027145942133853087_" class="st29" d="M168.7,111.1
									c-2.5,0.5-4.9-0.6-6.5-2.2c-3.5-3.6-3.9-7.3-2.4-9.8c1.2-2.1,4.4-3.4,6.7-2.1c2.4,1.4,2.5,2.6,3.5,4.2
									c1,1.7,3.2,0.3,2.3-6.4c4.6-2.3,3.6-9.9,6.1-13c3.8-5,10.3-3.9,12.4-2.8c1.8-1.5,5.6-2.4,8.8-0.8c3.2,1.6,6.2,4.6,7,16.8
									c0.8,12.1-0.4,17.9-2.8,20.9c-1.7,2.2-5.1,4.7-10.6,4.8l0.1,4.6c0,0,12.8,12.5-3.1,11.7c-12-0.6-18.9-9.6-18.9-9.6l0-18.3
									C171.3,109.2,171.1,110.6,168.7,111.1z"/>
							</g>
							<circle class="st30" cx="180.3" cy="99" r="3.8"/>
							<path class="st30" d="M201.2,98.5c0,2.1,1.7,3.8,3.8,3.8c0.6,0,1.2-0.2,1.8-0.5c0-2-0.1-4.3-0.3-6.9c0,0,0,0,0,0
								c-0.5-0.2-1-0.3-1.5-0.3C203,94.7,201.2,96.4,201.2,98.5z"/>
							<path class="st28" d="M186.7,95.7c0,1.1-0.9,2-2,2s-2-0.9-2-2c0-1.1,0.9-2,2-2S186.7,94.6,186.7,95.7z"/>
							<circle class="st28" cx="200.5" cy="95.2" r="2"/>
							<g>
								<path class="st33" d="M194.9,108.3c-0.3,1.9-2.2,3.2-4.1,2.8c-1.9-0.3-3.2-2.1-2.9-4L194.9,108.3z"/>
								<path class="st30" d="M187.8,108.3c0.2,1.4,1.4,2.6,2.9,2.9c0.4,0.1,0.9,0.1,1.3,0C191.7,109.2,189.8,108,187.8,108.3z"/>
							</g>
							<g>
								<g id="XMLID_00000177461415824544267890000005554116662617546169_">
									<path id="XMLID_00000111176680112888737580000002641755956660102552_" class="st28" d="M203.3,88.5l-4.6-1.4
										c0.4-1.3,1.7-2,3-1.6C202.9,85.9,203.7,87.2,203.3,88.5z"/>
								</g>
								<g id="XMLID_00000183231836319602867340000010330826809417789864_">
									<path id="XMLID_00000074405667165728404420000013808302659787791502_" class="st28" d="M186.2,87.3l-4.9,1.8
										c-0.6-1.3,0.1-2.8,1.4-3.3C184.1,85.3,185.6,86,186.2,87.3z"/>
								</g>
								<g>
									<path class="st15" d="M208.5,89.5c-0.3,0-0.6,0-0.9-0.1c-2.9-0.2-6.8-0.1-9,0.6c-2.8,1-3.8,1.9-5.4,2
										c-1.7,0.1-2.8-0.8-6-1.6c-2.5-0.6-6.6-0.3-9.7,0.1c-0.3,0-0.7,0.1-1,0.1c-0.5,0.1-1.1,0.8-1,1.6c0.1,0.8,0.8,1.4,1,1.7
										c0.1,0.2,0.3,0.4,0.4,0.7c0.4,1.2,0.8,3.6,1.5,4.9c0.3,0.5,0.7,1.1,1.3,1.7c0.2,0.2,0.4,0.3,0.7,0.5
										c0.1,0.1,0.2,0.1,0.4,0.2c0.3,0.2,0.7,0.3,1.1,0.4c0.1,0,0.1,0,0.2,0c0.1,0,0.2,0,0.3,0.1c0.1,0,0.2,0,0.3,0.1
										c0.3,0.1,0.6,0.1,1,0.1c0.1,0,0.3,0,0.4,0c0.2,0,0.3,0,0.5,0c4-0.1,5.5-2,6.4-3.9c0.9-1.9,0.4-4.5,2.3-4.6
										c0.1,0,0.1,0,0.2,0c0.1,0,0.1,0,0.2,0c1.4,0.2,1.4,2.7,2.3,4.4c0.4,0.7,0.8,1.3,1.4,1.8c0.1,0.1,0.2,0.2,0.3,0.3
										c0.1,0,0.1,0.1,0.2,0.1c0.1,0,0.1,0.1,0.2,0.1c0.1,0,0.1,0.1,0.2,0.1c0.1,0.1,0.1,0.1,0.2,0.1c0,0,0.1,0.1,0.1,0.1
										c0,0,0.1,0,0.1,0.1c0.5,0.2,1,0.4,1.6,0.5c0,0,0.1,0,0.1,0c0.6,0.1,1.2,0.1,1.9,0.1c3.7-0.2,4.9-2.3,5.4-3.6
										c0.5-1.3,0.6-3.7,0.8-5c0-0.3,0.2-0.5,0.3-0.7c0.3-0.3,0.7-1.1,0.7-1.8C209.5,90.2,209,89.5,208.5,89.5z M189.8,97.2
										c-0.1,0.7-0.4,1.8-1.2,2.6l0,0c-0.8,0.9-2.1,1.6-4.2,1.6c-2.2,0.1-3.5-0.8-4.3-1.7c-0.1-0.1-0.1-0.1-0.1-0.2
										c0-0.1-0.1-0.1-0.1-0.2c0-0.1-0.1-0.1-0.1-0.2c0-0.1-0.1-0.1-0.1-0.2c0,0-0.1-0.1-0.1-0.1c0,0,0-0.1-0.1-0.1
										c0-0.1-0.1-0.1-0.1-0.2l0,0c-0.1-0.2-0.2-0.4-0.2-0.5c0,0,0,0,0,0c0-0.1-0.1-0.2-0.1-0.3c-0.1-0.2-0.1-0.4-0.2-0.5
										c0,0,0-0.1,0-0.1c0,0,0-0.1,0-0.1c-0.4-1.3-0.9-3.8-0.3-4.4c0.6-0.6,2.4-1.3,5.4-1.1c0.1,0,0.2,0,0.3,0
										c0.5,0,0.9,0.1,1.4,0.2c0.2,0,0.4,0.1,0.5,0.1c0.5,0.1,0.9,0.2,1.3,0.4c0.1,0,0.3,0.1,0.4,0.1c0.2,0.1,0.3,0.1,0.4,0.2
										c0,0,0.1,0,0.1,0c0.1,0,0.1,0,0.2,0.1c0.4,0.2,0.7,0.4,0.9,0.6C190.2,94,190.1,95.7,189.8,97.2z M207,96
										c-0.2,1-0.5,3.2-2.5,4.3c-0.6,0.3-1.3,0.5-2.2,0.5c-2.3,0.1-3.7-0.7-4.5-1.8c0,0,0,0,0,0c0,0-0.1-0.1-0.1-0.1
										c0,0-0.1-0.1-0.1-0.1c0,0,0,0,0-0.1c0-0.1-0.1-0.1-0.1-0.2c0-0.1-0.1-0.2-0.1-0.2c0,0,0-0.1-0.1-0.1c0,0,0,0,0-0.1
										c0,0,0-0.1,0-0.1c0,0,0-0.1,0-0.1c-0.2-0.3-0.3-0.7-0.3-1c-0.4-1.4-0.7-3.1-0.2-3.9c0.5-0.8,2.6-1.8,4.7-2.1
										c0.5-0.1,0.9-0.1,1.4-0.2c0.1,0,0.1,0,0.2,0c0.1,0,0.1,0,0.2,0c0.2,0,0.3,0,0.5,0c0.1,0,0.1,0,0.2,0c0.1,0,0.2,0,0.2,0
										c0.1,0,0.3,0,0.4,0c0.2,0,0.5,0.1,0.7,0.1c0.1,0,0.1,0,0.2,0c0,0,0,0,0,0c0,0,0.1,0,0.1,0c0.1,0,0.1,0,0.2,0
										c0.1,0,0.1,0,0.2,0.1c0.1,0,0.2,0.1,0.3,0.1c0,0,0,0,0.1,0c0.3,0.1,0.6,0.3,0.8,0.4C207.5,92.1,207.3,94.7,207,96z"/>
									<g id="XMLID_00000178199696873082559930000014424739344162743484_">
										<path class="st30" d="M199.7,102.7l-6.8,2.8l-1.4-8.5c0.3-1.3,0.5-2.6,1.6-2.7L199.7,102.7z"/>
									</g>
									<path class="st15" d="M176.2,90.8l-9.7,6.2c0.5,0.3,0.9,0.6,1.6,1.2l8.4-5.2L176.2,90.8z"/>
								</g>
							</g>
						</g>
					</g>
				</g>
				<path class="st30" d="M193.2,120.8c-6.2-0.1-16.6-2.6-19.9-9.8c0.4,7.1,8.3,10.8,11.8,11.6c4.3,1.1,8.2,1,8.2,1L193.2,120.8z"/>
			</g>
			<path class="st15" d="M160.4,96.3c0,0,4.7-8.6,13.5-12.3c8.8-3.7,18.6-0.3,18.6-0.3s4.5-2.7,8.7-2c4.3,0.6,5.9,2.7,5.9,2.7
				l-4-13.8c0,0-4.7-5.7-18-4.7c-13.6,1.1-23.3,7.3-27.4,16.1L160.4,96.3z"/>
		</g>
	</g>
</g>
<g id="Speech_Bubble">
	<g id="Speech_Bubble_11_">
		<g id="Speech_Bubble_12_">
			<g>
				<path class="st19" d="M94.8,152.2l0-16.5l13.9-1.5c0.3,0,0.6,0,0.8,0.2c0.7,0.4,7.1,4.1,7.3,4.2c0.7,0.4,0.9,1.4,0.3,2l-15,15.8
					L94.8,152.2z"/>
			</g>
			<g>
				<path id="XMLID_00000031911522111345589310000006376512009095186854_" class="st19" d="M51.2,189.5l0-51.2c0-0.7,0.5-1.6,1.2-2
					l41.7-24.1c0.6-0.4,1.7-0.4,2.3,0l6.5,3.8c0.6,0.4,1.2,1.3,1.2,2l0,51.2c0,0.7-0.5,1.6-1.2,2l-41.7,24.1c-0.6,0.4-1.7,0.4-2.3,0
					l-6.5-3.8C51.7,191.2,51.2,190.3,51.2,189.5z"/>
				<path id="XMLID_00000163782827240953064110000006305045997779288754_" class="st14" d="M61,195.5c-0.6,0.2-1-0.1-1-0.8l0-51.2
					c0-0.4,0.1-0.8,0.3-1.1l-8.8-5.2c-0.2,0.4-0.3,0.8-0.3,1.1l0,51.2c0,0.7,0.5,1.6,1.2,2l6.5,3.8C59.4,195.7,60.3,195.8,61,195.5z
					"/>
				<path class="st19" d="M116.1,138.4l-12,1.3l0-21.5c0-0.7-0.5-1-1.2-0.7l-41.7,24.1c-0.6,0.4-1.2,1.3-1.2,2l0,51.2
					c0,0.7,0.5,1,1.2,0.7l41.7-24.1c0.6-0.4,1.2-1.3,1.2-2l0-14.9l13.1-13.8C118,139.8,117.3,138.3,116.1,138.4z"/>
				<path class="st34" d="M116.1,138.4l-12,1.3l0-21.5c0-0.7-0.5-1-1.2-0.7l-41.7,24.1c-0.6,0.4-1.2,1.3-1.2,2l0,51.2
					c0,0.7,0.5,1,1.2,0.7l41.7-24.1c0.6-0.4,1.2-1.3,1.2-2l0-14.9l13.1-13.8C118,139.8,117.3,138.3,116.1,138.4z"/>
			</g>
		</g>
		<path id="Check_1_" class="st10" d="M94.6,131.5c-1.9-0.8-4,0.1-4.8,2L76,166.4l-3.3-3.2c-1.4-1.4-3.8-1.4-5.2,0.1
			c-1.4,1.4-1.4,3.8,0.1,5.2l7.1,6.9c0.7,0.7,1.6,1,2.5,1c0.2,0,0.5,0,0.7-0.1c1.2-0.2,2.2-1.1,2.6-2.2l15.9-37.8
			C97.4,134.5,96.5,132.3,94.6,131.5z"/>
	</g>
</g>
</svg>
