<?xml version="1.0" encoding="utf-8"?>
<!-- Generator: Adobe Illustrator 27.1.1, SVG Export Plug-In . SVG Version: 6.00 Build 0)  -->
<svg version="1.1" id="Layer_1" xmlns="http://www.w3.org/2000/svg" xmlns:xlink="http://www.w3.org/1999/xlink" x="0px" y="0px"
	 viewBox="0 0 768.1 426.7" style="enable-background:new 0 0 768.1 426.7;" xml:space="preserve">
<style type="text/css">
	.st0{fill:#662D91;}
	.st1{fill:#008FCA;}
	.st2{fill:#42A240;}
	.st3{fill:#EF3E2D;}
	.st4{fill:#FEBE10;}
	.st5{fill:#009AD0;}
</style>
<g>
	<path class="st0" d="M83.4,0.2C33.8-3-14,44.1,22.6,89.4C38.4,109,68,115,88.3,130.3c0.5,0.4,1.1,0.7,1.7,1
		c20.3,9.6,14.6,39.2-9.7,33c-20.2-4-34.9-17.7-49.6-29.9c-4.3-3.5-10.7-2.4-13.5,2.4c-8.3,14.4-21,41.7-16.1,43
		c42.8,42.5,145.9,50.9,157.6-21c9.7-59.7-91.6-72.2-93.2-98.2c-1.8-30,42.6-0.8,60.7,9.1c9.6,5.3,17.6-20.5,20.8-31.5
		c1-3.3,2.1-6.5,0.3-9.5C135.1,8.7,107.9,0.1,83.4,0.2z"/>
	<path class="st1" d="M298.9,5.9c-12.1,7.5-16.2,12.9-29,29.8c-3.5,4.5-41.9,46.6-41.4,33.6c0.1-15.8-1.2-31.6-0.3-47.4
		C230.8,4.3,215.5,5,202.7,5.3c-32.3-2.3-24.5,6.2-23.9,36.6c0.4,19.2,1.2,45.9,1.9,63.8c1,32.3,0.9,69.7,0.9,101.5
		c0,3.2,45.9,2.7,46.3-1.6c0.9-10.9-0.2-25.3,0.2-36.1c0.4-12.2,0.9-17.5,3.9-29c4-15,13.6-10.1,18.7-2.8
		c12.3,21,17.9,29.8,30.3,50.8c4.9,8.9,6.7,22.6,20.4,21.3c9.4-1.5,48.2,6.6,37.1-11.4c-20.6-35.9-43-72-59.7-109.6
		c20.7-23,45.3-44.8,65.6-68.6c6.5-5.1,4.2-16-5-14.1C325.9,6.9,312.1,4.2,298.9,5.9"/>
	<path class="st2" d="M374.1,6.3c-10.3,1-5.7,15.5-7,22.7c0.5,38.6,0.6,82.3,0.6,120.9c0.2,17,0.6,33.9-0.3,50.9
		c-0.6,10.5,15,9,28.7,9s27.2,1.5,27.2-7.4c0-53.6,0.8-123.4,1.5-175c-0.7-5.1,2.4-16.9-2.6-19.8C406.2,5.2,390.3,4.3,374.1,6.3"/>
	<path class="st3" d="M495.2,5.7c-6.8,0.2-13.1,0.3-19.1,0.2c-6-0.1-12.3,0.1-19.1,0.5c-3.7,0.2-5.6,2.2-5.6,6.1
		c0.2,7,0.4,15.1,0.5,24.1c0.1,9.1,0.2,18.5,0.3,28.2c0.1,9.7,0.1,19.2,0,28.5c-0.1,9.3-0.2,17.5-0.2,24.8v24.3c0,9-0.1,18-0.2,27
		c-0.1,9.1-0.2,18.1-0.2,27c0,4.5,0.8,7.5,2.5,9.1c1.6,1.6,4.8,2.6,9.5,3c1.2,0.2,2.4,0.3,3.7,0.3h4c14.5,0.2,28.8,0.3,43,0.3h43.4
		c5.6,0,11.2,0.1,16.8,0.2c5.6,0.1,11.1,0.3,16.5,0.5c5.1,0,7.6-2.1,7.3-6.4c-0.5-4.3-0.8-8.4-0.9-12.3c-0.1-3.9-0.4-8-0.9-12.3
		c-0.5-6-0.8-10.5-0.9-13.4c-0.1-3-0.8-5.1-2.1-6.4c-1.3-1.3-3.7-1.9-7.2-1.9H570h-24.5c-8.2,0-16.3-0.2-24.5-0.6
		c-4.7,0-7.5-0.4-8.4-1.3c-0.9-0.9-1.5-3.3-1.7-7.4c-0.5-6.2-0.5-12.2-0.2-17.9c0.3-5.8,0.4-11.8,0.2-18.2
		c-0.7-15.1-1.1-30.9-1.2-47.2s-0.5-32-1.2-47.2c-0.2-4.9-1.2-8.1-2.8-9.6c-1.4-1.3-4.3-2-8.6-2C496.5,5.6,495.8,5.7,495.2,5.7"/>
	<path class="st4" d="M664.9,5.7c-6.8,0.2-13.1,0.3-19.1,0.2c-6-0.1-12.3,0.1-19.1,0.5c-3.7,0.2-5.6,2.2-5.6,6.1
		c0.2,7,0.4,15.1,0.5,24.1c0.1,9.1,0.2,18.5,0.3,28.2c0.1,9.7,0.1,19.2,0,28.5s-0.2,17.5-0.2,24.8v24.3c0,9-0.1,18-0.2,27
		c-0.1,9.1-0.2,18.1-0.2,27c0,4.5,0.8,7.5,2.5,9.1s4.8,2.6,9.5,3c1.2,0.2,2.4,0.3,3.7,0.3h4c14.5,0.2,28.8,0.3,43,0.3h43.4
		c5.6,0,11.2,0.1,16.8,0.2c5.6,0.1,11.1,0.3,16.4,0.5c5.1,0,7.6-2.1,7.3-6.4c-0.5-4.3-0.8-8.4-0.9-12.3c-0.1-3.9-0.4-8-0.9-12.3
		c-0.5-6-0.8-10.5-0.9-13.4c-0.1-3-0.8-5.1-2.1-6.4c-1.3-1.3-3.7-1.9-7.2-1.9h-16.4h-24.5c-8.2,0-16.3-0.2-24.5-0.6
		c-4.7,0-7.5-0.4-8.4-1.3c-0.9-0.9-1.5-3.3-1.8-7.4c-0.5-6.2-0.5-12.2-0.2-17.9c0.3-5.8,0.4-11.8,0.2-18.2
		c-0.7-15.1-1.1-30.9-1.2-47.2s-0.5-32-1.2-47.2c-0.2-4.9-1.2-8.1-2.8-9.6c-1.4-1.3-4.3-2-8.6-2C666.2,5.6,665.6,5.7,664.9,5.7"/>
	<path class="st2" d="M59.7,322.7c-0.8-0.9-1.2-2.7-1.4-5.3c-0.2-5-0.3-10.9-0.4-17.8c-0.1-6.8-0.1-12.8-0.1-17.8
		c-0.2-3.7,0.1-5.9,0.9-6.7c0.8-0.7,3-1.3,6.8-1.7c0.4,0,1.6,0,3.7-0.1c2.1-0.1,4.6,0,7.7,0.3s6.3,0.9,9.8,1.8s6.7,2.4,9.7,4.5
		c2.9,2,5.4,4.7,7.4,7.9c2,3.2,3,7.3,3,12.1c0,6.1-1.8,10.8-5.4,13.9s-7.8,5.5-12.6,7c-4.8,1.5-9.6,2.3-14.2,2.5
		c-4.6,0.2-7.9,0.4-9.8,0.6c-0.4,0-0.8,0-1.2,0C61.5,323.8,60.3,323.4,59.7,322.7 M15,241.2c-4,0.4-6.6,1.3-7.9,2.8
		c-1.3,1.5-3.2,3.9-3.4,7.8c0,3.3,1.3,155.1,1.7,160.1c0.4,2.8,1,4.7,1.8,5.7c0.8,1,2.6,1.6,5.2,1.8c3.2,0.2,30.7-0.3,36.5-0.3
		c3.9,0.2,6.6-0.5,7.9-2.2c1.3-1.7,1.9-4.5,1.7-8.3c-0.4-5.4-0.2-37.5,0.6-38.6c0.8-1.1,3.1-1.5,7.1-1.1c11.9,1.1,23.4,0,34.6-3.3
		c6.6-2,13.4-4.7,20.2-7.9c6.9-3.2,13.2-7.4,18.8-12.5c5.7-5.1,10.3-11.3,13.9-18.5c3.6-7.2,5.4-16,5.4-26.4c0-6.7-1.3-13-4-19
		c-2.6-6-5.8-11.4-9.5-16.1c-3.7-4.7-7.5-8.6-11.6-11.7c-4-3.1-7.4-5-10-6c-9.2-3.3-19.1-5.3-29.7-5.8
		C84.3,241.1,18.2,240.9,15,241.2z"/>
	<path class="st4" d="M373.6,241.5c-2.5,0.4-4,0.9-4.7,1.5s-1.2,2.3-1.5,4.9c-0.2,2.2-0.3,4.5-0.4,6.7c-0.1,2.2-0.1,4.5-0.1,6.7
		c0.2,12.6,0.3,25.9,0.4,40c0.1,14.1,0.1,27.4,0.1,40v25c0,8.3-0.1,16.7-0.3,25c0,3.5,0,6.8-0.1,9.7c-0.1,3,0,6.1,0.1,9.5
		c0,5.7,2.9,8.2,8.8,7.2c6.8,0.2,32.1,0.3,38.1,0c3.2,0.4,5.2,0.2,6.1-0.4c0.8-0.7,1.3-2.5,1.3-5.4v-62.8
		c0.4-16.7,0.7-32.7,0.8-47.9c0.2-15.3,0.4-29,0.6-41.3c0-1.8,0-4.2,0.1-7c0.1-2.8,0-5.1-0.4-7c-0.2-2-0.9-3.2-2.3-3.3
		s-3-0.4-5.1-0.6c-7-0.9-13.8-1.4-20.6-1.5c-0.7,0-1.5,0-2.2,0C386.2,240.5,380,240.8,373.6,241.5"/>
	<path class="st5" d="M490.2,240.7c-5.3,0.4-13.1,0.5-18.2,0.3c-5.1-0.2-10.6-0.2-16.4,0c-2.3-0.5-3.6,0.7-3.9,3.9v6.1
		c0,3.2,0.2,162.5,0.5,164c0.5,2.4,1.7,3.3,3.7,2.8c2.6-0.5,5.5-0.7,8.8-0.5c3.3,0.2,6.1,0.2,8.6,0c2.4,0,4.8,0.1,7.2,0.3
		c2.4,0.2,6,0.4,8.5,0.5c3.5,0.2,5.8-0.4,6.9-1.7c1.1-1.3,1.6-4.1,1.6-8.3c-0.3-8.9-1.4-79.2-1.4-79.2c0-0.7,0.1-1.2,0.2-1.4
		c0-0.2,0.1-0.4,0.2-0.5c0.3,0.2,0.7,0.3,1.2,0.3s0.8,0.2,0.9,0.5c0.6,1.1,1.8,3.3,3.6,6.5c1.8,3.2,42.5,74.6,46.9,79.6
		c0.8,0.9,1.7,1.7,2.8,2.4c1.1,0.7,2.1,1,3,1c6.6,0.4,13.2,0.5,19.7,0.5H594c2,0,3.2-0.3,3.7-1c0.5-0.7,0.7-2.2,0.7-4.6
		c-0.2-7-0.2-14-0.2-21c0-7-0.2-13.9-0.5-21c-0.3-10.4-0.6-20.7-0.8-30.8s-0.5-20.4-0.8-30.6c0-3.9,0-8.3,0.1-13.3
		c0.1-5,0.2-10.1,0.2-15.3c0.1-5.2,0.2-10.3,0.2-15.3c0.1-5,0.1-9.5,0.1-13.3c0-4.6-0.5-7.5-1.4-8.8c-0.9-1.2-3.4-1.8-7.4-1.8
		c-4.5-0.2-8.8-0.2-13.1,0c-4.3,0.2-9.9,0.5-14.4,0.8c-3.2,0.2-5.2,0.8-5.9,2s-1,3.7-0.8,7.8c0.2,6.1,1.2,77.6,1.4,83.7
		c0,2-0.1,4.5-0.2,7.2c-0.2,2.8-0.5,4.2-1.2,4.2c-0.6,0-4.8-7.8-5.9-9.3c-4.8-6.7-8.2-13.9-12.7-21.8c-4.5-7.9-7.8-15.8-12.1-23.9
		c-4.4-8.1-21.1-38.9-25.3-46.2c-1.1-1.7-2.1-2.9-3.1-3.8c-0.8-0.7-2-1-3.4-1C490.9,240.6,490.6,240.6,490.2,240.7"/>
	<path class="st0" d="M627.6,241.8c-1.4,0-2.7,0.3-3.8,1c-1.1,0.7-1.6,1.9-1.6,3.8c0,5.6,0,11.2,0.1,16.8c0.1,5.7,0.3,11.3,0.7,16.8
		c0.2,2,0.4,3.6,0.7,4.7c0.3,1.1,0.7,1.9,1.3,2.5s1.5,0.9,2.7,1.1c1.2,0.2,2.7,0.3,4.7,0.3h26.6c2.9,0,5,0,6.5,0.1
		c1.4,0.1,2.4,0.5,3,1.1c0.5,0.7,0.8,1.7,0.8,3.1s0.1,3.5,0.3,6.2c0.4,6.5,0.6,13.7,0.7,21.5c0.1,7.9,0.2,15,0.4,21.5
		c0.2,11.7,0.3,23.3,0.3,34.7c0,11.5,0.1,23.1,0.3,34.7c0.2,3,0.6,4.8,1.3,5.6s2.5,1,5.4,0.8c4.7,0,10.6,0,15.2-0.1
		c4.6-0.1,9.2-0.1,13.9-0.1c3.6-0.2,8.4-0.8,9.4-1.8c1-1,1.5-3.4,1.5-7.1v-13.6c0-6.1,0-12.9,0.1-20.4c0.1-7.5,0.1-15.4,0-23.6
		c-0.1-8.2-0.1-16.2,0-23.8c0.1-7.6,0.1-14.5,0.1-20.6v-13.9c0-2.6,0.3-4.2,0.8-4.9c0.5-0.7,2.1-1.1,4.6-1.2c7-0.2,11.5-0.2,18.6,0
		c3.4,0,6.8,0.1,10.3,0.3c3.4,0.2,6.9,0.4,10.5,0.6c3.4,0.4,5.1-1.1,5.1-4.5c-0.2-5.4-0.3-10.8-0.4-16.3c-0.1-5.5-0.3-11-0.7-16.5
		c-0.2-2.6-1.2-4.6-3-6.1s-4.2-2.3-7.3-2.5c-21.6-0.7-43.2-1.1-64.6-1.1C670.8,241,649.2,241.2,627.6,241.8"/>
	<path class="st3" d="M223.6,305c0-21.5,16.8-37.4,37.5-37.4c20.7,0,37.5,15.8,37.5,37.4s-16.8,39-37.5,39
		C240.4,344.1,223.6,326.6,223.6,305 M254.8,230.7c-3.9,0.6-7.8,1.1-11.7,1.9c-40.4,8.4-68.4,44.8-60.1,85.2
		c3.1,14.9,9.5,28.6,17.6,41.6c13.5,21.6,45,67.3,60.3,67.3s32.5-25.9,45-40.9c12.4-14.9,21.3-32.2,28.1-50c6.1-16,9-32.5,4.3-49.2
		c-8.1-28.4-27.9-46.4-58.9-54c-3.9-1-8-1.3-12.1-2L254.8,230.7L254.8,230.7z"/>
</g>
</svg>
