<?xml version="1.0" standalone="no"?>
<!DOCTYPE svg PUBLIC "-//W3C//DTD SVG 20010904//EN"
 "http://www.w3.org/TR/2001/REC-SVG-20010904/DTD/svg10.dtd">
<svg version="1.0" xmlns="http://www.w3.org/2000/svg"
 width="150.000000pt" height="150.000000pt" viewBox="0 0 150.000000 150.000000"
 preserveAspectRatio="xMidYMid meet">
<metadata>
Created by potrace 1.14, written by Peter Selinger 2001-2017
</metadata>
<g transform="translate(0.000000,150.000000) scale(0.100000,-0.100000)"
fill="#000000" stroke="none">
<path d="M677 1424 c-2 -2 -22 -7 -43 -9 -76 -10 -254 -98 -254 -127 0 -5 -4
-6 -10 -3 -5 3 -10 -2 -10 -11 0 -10 -3 -15 -6 -11 -11 11 -96 -108 -109 -153
-4 -14 -11 -29 -15 -35 -14 -17 -28 -114 -25 -178 5 -125 57 -257 173 -437 30
-47 60 -88 66 -92 6 -5 7 -8 1 -8 -7 0 -7 -3 0 -8 6 -4 29 -32 52 -63 23 -31
48 -63 57 -72 9 -8 16 -18 16 -22 0 -20 133 -128 164 -133 25 -4 96 18 96 30
0 4 7 8 15 8 8 0 15 6 15 14 0 8 9 18 20 21 11 3 20 10 20 14 0 4 16 24 35 44
19 20 33 37 30 37 -3 0 3 8 13 18 28 30 62 72 62 77 0 3 8 14 18 24 33 37 41
50 91 137 28 48 56 102 62 121 6 18 15 33 20 33 6 0 8 4 4 9 -3 5 -1 12 5 16
6 4 8 11 4 16 -3 5 -1 15 4 22 35 44 54 249 30 335 -51 188 -211 334 -413 378
-37 8 -181 14 -188 8z m154 -266 c19 -6 36 -14 39 -17 3 -3 17 -12 31 -19 34
-18 91 -113 99 -167 4 -24 3 -42 -2 -39 -4 3 -4 -5 1 -18 10 -26 -13 -118 -30
-118 -6 0 -8 -4 -5 -9 9 -14 -64 -86 -112 -110 -29 -15 -60 -22 -95 -21 -29 0
-60 1 -69 1 -10 0 -18 5 -18 10 0 6 -4 8 -9 5 -10 -7 -78 41 -109 78 -36 43
-56 105 -57 176 0 74 17 122 57 165 15 17 28 33 28 38 0 4 7 7 15 7 8 0 15 4
15 9 0 8 16 16 70 31 40 12 114 11 151 -2z"/>
</g>
</svg>
